<svg width="745" height="689" viewBox="0 0 745 689" fill="none" xmlns="http://www.w3.org/2000/svg">
<path d="M763 526.947H0V527.292H763V526.947Z" fill="#EBEBEB"/>
<path d="M130.595 540.066H80.054V540.41H130.595V540.066Z" fill="#EBEBEB"/>
<path d="M345.731 536.331H261.16V536.676H345.731V536.331Z" fill="#EBEBEB"/>
<path d="M168.15 548.251H138.866V548.596H168.15V548.251Z" fill="#EBEBEB"/>
<path d="M654.12 539.9H588.212V540.245H654.12V539.9Z" fill="#EBEBEB"/>
<path d="M677.376 539.9H667.717V540.245H677.376V539.9Z" fill="#EBEBEB"/>
<path d="M494.5 544.737H423.022V545.082H494.5V544.737Z" fill="#EBEBEB"/>
<path d="M361.662 465.488H67.0067C64.6984 465.485 62.486 464.654 60.8552 463.179C59.2244 461.704 58.3085 459.704 58.3085 457.62V83.5895C58.3286 81.517 59.2534 79.5354 60.882 78.0751C62.5106 76.6147 64.7115 75.7936 67.0067 75.79H361.662C363.973 75.79 366.189 76.619 367.823 78.0946C369.457 79.5702 370.375 81.5716 370.375 83.6584V457.62C370.375 459.707 369.457 461.708 367.823 463.184C366.189 464.659 363.973 465.488 361.662 465.488ZM67.0067 76.0656C64.7995 76.0693 62.6842 76.8636 61.125 78.2742C59.5657 79.6848 58.69 81.5964 58.69 83.5895V457.62C58.69 459.613 59.5657 461.525 61.125 462.935C62.6842 464.346 64.7995 465.14 67.0067 465.144H361.662C363.871 465.14 365.987 464.346 367.549 462.936C369.111 461.526 369.99 459.614 369.994 457.62V83.5895C369.99 81.5952 369.111 79.6836 367.549 78.2734C365.987 76.8631 363.871 76.0693 361.662 76.0656H67.0067Z" fill="#EBEBEB"/>
<path d="M691.751 465.488H397.08C394.771 465.485 392.557 464.655 390.924 463.18C389.29 461.705 388.371 459.706 388.367 457.62V83.5895C388.391 81.5158 389.319 79.5342 390.95 78.0742C392.581 76.6142 394.784 75.7936 397.08 75.79H691.751C694.043 75.7972 696.241 76.6199 697.866 78.0799C699.491 79.5399 700.414 81.5194 700.434 83.5895V457.62C700.434 459.702 699.52 461.699 697.893 463.174C696.265 464.649 694.057 465.481 691.751 465.488ZM397.08 76.0656C394.872 76.0693 392.755 76.8631 391.193 78.2734C389.632 79.6836 388.752 81.5952 388.748 83.5895V457.62C388.752 459.614 389.632 461.526 391.193 462.936C392.755 464.346 394.872 465.14 397.08 465.144H691.751C693.96 465.14 696.076 464.346 697.638 462.936C699.2 461.526 700.079 459.614 700.083 457.62V83.5895C700.079 81.5952 699.2 79.6836 697.638 78.2734C696.076 76.8631 693.96 76.0693 691.751 76.0656H397.08Z" fill="#EBEBEB"/>
<path d="M454.504 102.509H159.894V293.486H454.504V102.509Z" fill="#FAFAFA"/>
<path d="M437.733 293.5L362.806 102.509H306.573L381.5 293.5H437.733Z" fill="white"/>
<path d="M286.522 293.5L211.595 102.509H191.086L266.012 293.5H286.522Z" fill="white"/>
<path d="M145.855 95.9502H468.558C468.73 95.9502 468.9 95.9809 469.058 96.0407C469.217 96.1004 469.36 96.1879 469.481 96.2981C469.602 96.4084 469.697 96.5391 469.761 96.6828C469.825 96.8265 469.857 96.9803 469.855 97.1353C469.855 97.4459 469.719 97.7439 469.475 97.9635C469.232 98.1832 468.902 98.3066 468.558 98.3066H145.855C145.51 98.3066 145.178 98.1836 144.932 97.9644C144.687 97.7451 144.547 97.4472 144.543 97.1353C144.543 96.821 144.681 96.5195 144.927 96.2973C145.173 96.0751 145.507 95.9502 145.855 95.9502Z" fill="#E0E0E0"/>
<path d="M308.954 102.11H305.459V293.914H308.954V102.11Z" fill="#F0F0F0"/>
<path d="M305.444 102.11H303.705V293.914H305.444V102.11Z" fill="#E0E0E0"/>
<path d="M157.865 196.42V199.576L456.549 199.576V196.42L157.865 196.42Z" fill="#F0F0F0"/>
<path d="M157.865 292.136V100.594H456.533V292.136V295.292H157.865V292.136ZM453.054 292.136V103.832H161.359V292.136H453.054Z" fill="#F0F0F0"/>
<path d="M157.85 100.677H156.11V295.333H157.85V100.677Z" fill="#E0E0E0"/>
<path opacity="0.5" d="M201.173 93.0564V317.34H138.118L149.685 93.0564H201.173Z" fill="#EBEBEB"/>
<path opacity="0.5" d="M411.486 93.0564V317.34H474.54L462.973 93.0564H411.486Z" fill="#EBEBEB"/>
<path d="M118.54 344.211H94.4899V520.36H118.54V344.211Z" fill="#F0F0F0"/>
<path d="M364.073 520.36H99.1136V526.947H364.073V520.36Z" fill="#F0F0F0"/>
<path d="M118.555 520.36H368.697V344.211H118.555L118.555 520.36Z" fill="#F5F5F5"/>
<path d="M116.052 338.464H91.4684V344.211H116.052V338.464Z" fill="#F0F0F0"/>
<path d="M116.037 344.211H371.703V338.464H116.037V344.211Z" fill="#FAFAFA"/>
<path d="M360.044 443.344H127.192V356.268H360.044V443.344ZM128.81 441.883H358.427V357.729H128.81V441.883Z" fill="#E0E0E0"/>
<path d="M360.044 508.289H127.192V452.053H360.044V508.289ZM128.81 506.828H358.427V453.514H128.81V506.828Z" fill="#E0E0E0"/>
<path d="M326.533 356.999H160.703C159.523 356.999 158.567 357.862 158.567 358.928V359.741C158.567 360.806 159.523 361.67 160.703 361.67H326.533C327.713 361.67 328.67 360.806 328.67 359.741V358.928C328.67 357.862 327.713 356.999 326.533 356.999Z" fill="#E0E0E0"/>
<path d="M326.533 452.783H160.703C159.523 452.783 158.567 453.647 158.567 454.712V455.526C158.567 456.591 159.523 457.455 160.703 457.455H326.533C327.713 457.455 328.67 456.591 328.67 455.526V454.712C328.67 453.647 327.713 452.783 326.533 452.783Z" fill="#E0E0E0"/>
<path d="M530.834 518.486H670.738V133.032H530.834V518.486Z" fill="#F0F0F0"/>
<path d="M530.834 133.046H526.394V518.5H530.834V133.046Z" fill="#E0E0E0"/>
<path d="M553.541 503.783H648.046V147.735H553.541V503.783Z" fill="#FAFAFA"/>
<path d="M381.5 589.178C544.908 589.178 677.376 582.194 677.376 573.579C677.376 564.964 544.908 557.98 381.5 557.98C218.092 557.98 85.6239 564.964 85.6239 573.579C85.6239 582.194 218.092 589.178 381.5 589.178Z" fill="#F5F5F5"/>
<path d="M218.767 561.576L230.716 557.484L223.391 531.412L211.443 535.505L218.767 561.576Z" fill="#B55B52"/>
<path d="M128.993 561.797H141.765L143.688 535.064H130.9L128.993 561.797Z" fill="#B55B52"/>
<path d="M143.047 560.46H127.467C127.217 560.457 126.973 560.534 126.78 560.678C126.587 560.822 126.457 561.023 126.414 561.246L124.461 571.498C124.421 571.754 124.443 572.014 124.525 572.262C124.607 572.509 124.746 572.738 124.934 572.933C125.122 573.127 125.355 573.283 125.615 573.39C125.876 573.497 126.158 573.552 126.444 573.551C131.45 573.468 135.097 573.207 141.414 573.207C145.291 573.207 157.025 573.579 162.397 573.579C167.768 573.579 168.196 568.783 165.968 568.342C156.018 566.399 148.449 563.726 145.153 561.163C144.565 560.711 143.819 560.462 143.047 560.46Z" fill="#263238"/>
<path d="M230.106 556.271L217.058 560.736C216.82 560.818 216.62 560.97 216.49 561.167C216.36 561.365 216.307 561.596 216.341 561.824L218.02 572.215C218.049 572.471 218.144 572.717 218.296 572.935C218.449 573.153 218.655 573.335 218.899 573.469C219.143 573.602 219.418 573.683 219.702 573.704C219.987 573.726 220.272 573.688 220.538 573.593C225.207 571.911 229.19 569.775 235.141 567.846C241.941 565.85 248.48 563.193 254.644 559.923C259.069 557.387 257.207 552.564 255.117 553.322C245.625 556.767 243.29 557.897 233.325 556.161C232.262 555.927 231.147 555.966 230.106 556.271Z" fill="#263238"/>
<path d="M196.396 210.131C200.41 216.553 204.652 223.167 208.925 229.561C213.198 235.955 217.577 242.349 222.231 248.302C223.345 249.804 224.597 251.251 225.726 252.643C225.976 253.048 226.313 253.404 226.718 253.69C227.432 254.02 228.245 254.136 229.037 254.021C230.496 253.886 231.928 253.576 233.295 253.097C236.757 251.87 240.063 250.309 243.153 248.44C244.801 247.461 246.48 246.455 248.112 245.38C249.745 244.306 251.393 243.148 252.889 242.115L260.046 247.875C258.74 249.578 257.34 251.22 255.849 252.794C254.408 254.382 252.88 255.905 251.271 257.355C249.62 258.857 247.872 260.27 246.037 261.586C244.124 262.998 242.082 264.261 239.933 265.361C237.507 266.631 234.898 267.591 232.181 268.214C228.803 269.001 225.259 269.001 221.88 268.214C218.229 267.296 214.956 265.433 212.465 262.854C210.939 261.255 209.413 259.753 208.04 258.168C202.514 251.977 197.373 245.514 192.642 238.807C187.912 232.165 183.486 225.51 179.427 218.427L196.396 210.131Z" fill="#B65B52"/>
<path d="M173.72 210.669C170.286 221.252 194.535 250.107 194.535 250.107L218.951 235.9C214.345 226.723 208.661 218.019 201.997 209.938C192.032 198.432 177.504 199.052 173.72 210.669Z" fill="#407BFF"/>
<path opacity="0.2" d="M173.72 210.669C170.286 221.252 194.535 250.107 194.535 250.107L218.951 235.9C214.345 226.723 208.661 218.019 201.997 209.938C192.032 198.432 177.504 199.052 173.72 210.669Z" fill="black"/>
<path opacity="0.2" d="M188.629 223.084C193.665 225.027 201.066 235.969 204.927 244.085L194.535 250.107C188.742 243.115 183.529 235.745 178.939 228.059C182.22 224.766 185.974 222.065 188.629 223.084Z" fill="black"/>
<path d="M251.378 245.711L255.864 234.37L268.576 239.882C268.576 239.882 265.936 249.983 256.627 249.969L251.378 245.711Z" fill="#B55B52"/>
<path d="M267.172 226.915L272.559 232.276L268.576 239.855L255.865 234.37L267.172 226.915Z" fill="#B55B52"/>
<path opacity="0.2" d="M223.391 531.426L227.16 544.861L215.212 548.954L211.443 535.518L223.391 531.426Z" fill="black"/>
<path opacity="0.2" d="M130.9 535.077H143.688L142.696 548.844H129.908L130.9 535.077Z" fill="black"/>
<path d="M116.77 205.983C130.504 249.818 128.276 296.325 129.13 305.778L197.434 303.463C209.047 238.118 188.278 201.753 188.278 201.753C188.278 201.753 183.898 200.995 177.932 200.444C176.07 200.265 174.056 200.113 171.95 200.017C170.79 199.948 169.615 199.92 168.425 199.893C158.726 200.041 149.046 200.694 139.431 201.849C137.615 202.056 135.768 202.29 133.968 202.566C132.167 202.842 130.687 203.09 129.145 203.365C122.08 204.619 116.77 205.983 116.77 205.983Z" fill="#407BFF"/>
<path opacity="0.2" d="M116.77 205.983C130.504 249.818 128.276 296.325 129.13 305.778L197.434 303.463C209.047 238.118 188.278 201.753 188.278 201.753C188.278 201.753 183.898 200.995 177.932 200.444C176.07 200.265 174.056 200.113 171.95 200.017C170.79 199.948 169.615 199.92 168.425 199.893C158.726 200.041 149.046 200.694 139.431 201.849C137.615 202.056 135.768 202.29 133.968 202.566C132.167 202.842 130.687 203.09 129.145 203.365C122.08 204.619 116.77 205.983 116.77 205.983Z" fill="black"/>
<path opacity="0.2" d="M131.312 224.793C132.533 229.024 131.129 248.385 126.231 253.152C125.559 246.951 124.705 240.489 123.484 233.86L131.312 224.793Z" fill="black"/>
<path d="M139.812 172.25C142.33 180.518 145.428 195.841 139.37 201.891C144.817 206.107 151.868 210.917 162.962 210.517C174.056 210.117 171.568 203.379 168.348 199.948C157.758 198.404 157.453 191.432 158.735 184.79L139.812 172.25Z" fill="#B55B52"/>
<path d="M163.252 209.043L165.266 210.269L157.911 212.212L159.803 209.125L163.252 209.043Z" fill="#407BFF"/>
<path d="M166.029 208.395L165.266 210.269L172.652 212.212L172.148 208.643L166.029 208.395Z" fill="#407BFF"/>
<path d="M134.959 201.188L137.859 199.879C138.323 199.669 138.841 199.579 139.358 199.618C139.875 199.656 140.37 199.823 140.789 200.099C147.496 204.493 155.165 207.542 163.282 209.043C157.453 211.551 158.887 218.303 158.887 218.303C158.887 218.303 140.346 212.791 134.471 202.786C134.305 202.515 134.263 202.196 134.354 201.897C134.445 201.598 134.663 201.344 134.959 201.188Z" fill="white"/>
<path d="M171.583 199.465L167.326 198.887C167.216 198.871 167.103 198.885 167.002 198.926C166.901 198.968 166.815 199.036 166.757 199.121C166.698 199.207 166.669 199.306 166.672 199.406C166.676 199.507 166.712 199.604 166.777 199.686C168.303 201.601 170.744 205.804 166.029 208.395C171.858 210.903 173.659 217.063 173.659 217.063C173.659 217.063 181.289 209.663 172.407 199.893C172.195 199.669 171.904 199.518 171.583 199.465Z" fill="white"/>
<path opacity="0.2" d="M147.518 177.293L158.704 184.652C158.381 186.206 158.212 187.783 158.2 189.365C154.187 189.117 148.403 185.548 147.671 181.813C147.324 180.327 147.272 178.796 147.518 177.293Z" fill="black"/>
<path d="M172.24 155.177C171.721 159.187 167.463 162.632 164.716 163.445L161.283 146.068C168.989 141.149 172.957 149.554 172.24 155.177Z" fill="#263238"/>
<path d="M135.951 159.986C138.179 171.258 138.836 177.969 145.931 183.136C156.613 190.908 171.461 184.087 173.018 172.443C174.422 161.956 170.546 145.282 157.666 142.044C154.829 141.319 151.834 141.261 148.965 141.875C146.096 142.488 143.448 143.754 141.273 145.551C139.098 147.349 137.467 149.618 136.536 152.144C135.604 154.67 135.403 157.37 135.951 159.986Z" fill="#B55B52"/>
<path d="M138.332 167.592C144.115 170.348 146.649 164.134 146.71 161.598C146.71 157.574 144.848 153.151 142.544 151.539C153.714 151.539 175.81 151.043 170.225 141.438C164.64 131.833 153.439 132.922 145.092 138.186C140.651 140.942 126.277 138.544 129.832 146.027C122.339 149.623 128.84 163.031 138.332 167.592Z" fill="#263238"/>
<path d="M131.053 145.406C129.061 145.398 127.127 144.803 125.544 143.712C125.804 144.719 126.422 145.621 127.304 146.281C128.186 146.941 129.283 147.321 130.427 147.363L131.053 145.406Z" fill="#263238"/>
<path d="M131.236 169.26C132.668 171.853 135.173 173.834 138.21 174.772C142.239 175.943 143.154 172.608 142.177 169.108C141.292 165.939 139.4 161.653 135.295 161.998C131.19 162.342 129.527 166.09 131.236 169.26Z" fill="#B55B52"/>
<path d="M212.312 425.457C207.124 390.553 197.434 303.463 197.434 303.463L152.6 304.993C152.6 304.993 173.781 392.013 181.441 427.304C189.102 462.595 210.435 547.755 210.435 547.755L230.67 540.865C230.67 540.865 217.73 461.754 212.312 425.457Z" fill="#263238"/>
<path opacity="0.2" d="M169.386 328.446C165.694 329.242 162.267 330.825 159.391 333.063C163.633 350.66 169.172 373.824 173.934 394.232C177.108 376.552 177.199 343.191 169.386 328.446Z" fill="black"/>
<path d="M173.216 304.29C173.216 304.29 163.679 398.766 159.314 432.334C154.538 469.112 148.632 546.184 148.632 546.184H125.132C125.132 546.184 124.171 478.014 127.207 442.021C130.671 401.025 129.115 305.778 129.115 305.778L173.216 304.29Z" fill="#263238"/>
<path d="M151.684 546.639H124.125L123.545 539.198L154.309 538.715L151.684 546.639Z" fill="#407BFF"/>
<path d="M233.31 540.396L209.199 548.651L206.254 541.609L233.051 532.018L233.31 540.396Z" fill="#407BFF"/>
<path d="M155.438 161.226C155.545 162.163 156.186 162.852 156.858 162.783C157.529 162.714 157.971 161.901 157.849 160.978C157.727 160.055 157.102 159.366 156.43 159.435C155.759 159.503 155.316 160.248 155.438 161.226Z" fill="#263238"/>
<path d="M167.005 159.972C167.128 160.895 167.768 161.584 168.425 161.515C169.081 161.446 169.554 160.647 169.432 159.724C169.31 158.801 168.669 158.098 167.997 158.167C167.326 158.236 166.883 159.049 167.005 159.972Z" fill="#263238"/>
<path d="M163.389 160.813C164.967 163.512 166.949 166.002 169.279 168.212C168.644 168.745 167.887 169.145 167.061 169.383C166.236 169.621 165.362 169.692 164.503 169.59L163.389 160.813Z" fill="#A02724"/>
<path d="M160.505 172.47C159.346 172.468 158.2 172.252 157.137 171.835C156.074 171.417 155.117 170.809 154.324 170.045C154.295 170.018 154.272 169.985 154.257 169.949C154.242 169.913 154.236 169.875 154.238 169.836C154.241 169.798 154.252 169.761 154.272 169.727C154.291 169.692 154.318 169.662 154.351 169.638C154.384 169.614 154.423 169.597 154.464 169.587C154.505 169.577 154.548 169.575 154.59 169.581C154.632 169.586 154.672 169.6 154.708 169.621C154.743 169.641 154.774 169.669 154.797 169.701C155.69 170.532 156.786 171.162 157.997 171.54C159.208 171.918 160.501 172.034 161.771 171.878C161.811 171.872 161.851 171.874 161.889 171.882C161.928 171.891 161.964 171.907 161.996 171.929C162.027 171.951 162.053 171.979 162.072 172.01C162.092 172.042 162.103 172.076 162.107 172.112C162.116 172.183 162.094 172.255 162.045 172.311C161.997 172.368 161.926 172.405 161.848 172.415C161.402 172.467 160.953 172.486 160.505 172.47Z" fill="#263238"/>
<path d="M151.44 158.167C151.341 158.194 151.235 158.194 151.135 158.167C151.066 158.131 151.006 158.084 150.958 158.027C150.91 157.97 150.875 157.905 150.855 157.835C150.835 157.766 150.83 157.694 150.842 157.623C150.853 157.552 150.88 157.484 150.921 157.423C151.386 156.667 152.045 156.023 152.841 155.544C153.637 155.065 154.548 154.764 155.499 154.667C155.58 154.663 155.66 154.674 155.735 154.698C155.811 154.722 155.881 154.76 155.94 154.808C156 154.857 156.048 154.916 156.082 154.981C156.117 155.047 156.136 155.118 156.14 155.19C156.144 155.262 156.133 155.334 156.105 155.401C156.078 155.469 156.036 155.531 155.982 155.583C155.928 155.636 155.863 155.678 155.791 155.708C155.718 155.737 155.64 155.754 155.56 155.755C154.805 155.842 154.082 156.088 153.451 156.473C152.82 156.858 152.299 157.373 151.929 157.974C151.872 158.041 151.797 158.094 151.712 158.127C151.627 158.161 151.533 158.175 151.44 158.167Z" fill="#263238"/>
<path d="M171.538 155.866C171.437 155.862 171.338 155.836 171.25 155.791C171.163 155.745 171.088 155.681 171.034 155.604C170.646 155.012 170.107 154.514 169.462 154.149C168.817 153.785 168.084 153.565 167.326 153.509C167.164 153.509 167.009 153.451 166.894 153.348C166.78 153.244 166.716 153.104 166.716 152.958C166.716 152.812 166.78 152.672 166.894 152.568C167.009 152.465 167.164 152.407 167.326 152.407C168.285 152.477 169.212 152.75 170.031 153.205C170.851 153.66 171.539 154.284 172.041 155.025C172.084 155.085 172.112 155.151 172.126 155.221C172.14 155.291 172.138 155.362 172.121 155.431C172.104 155.501 172.072 155.566 172.027 155.624C171.982 155.682 171.925 155.731 171.858 155.769C171.764 155.829 171.653 155.863 171.538 155.866Z" fill="#263238"/>
<path d="M147.381 562.472C146.244 562.446 145.113 562.308 144.009 562.059C143.951 562.046 143.898 562.018 143.858 561.979C143.817 561.94 143.79 561.891 143.78 561.838C143.764 561.786 143.768 561.732 143.79 561.682C143.812 561.632 143.851 561.59 143.902 561.563C144.344 561.301 148.342 559.013 149.792 559.661C149.952 559.734 150.088 559.844 150.187 559.979C150.286 560.115 150.345 560.271 150.357 560.433C150.411 560.696 150.389 560.968 150.292 561.221C150.196 561.475 150.029 561.701 149.807 561.879C149.1 562.327 148.242 562.537 147.381 562.472ZM144.878 561.673C147.061 562.059 148.724 561.99 149.456 561.466C149.604 561.341 149.714 561.185 149.778 561.012C149.842 560.839 149.857 560.654 149.823 560.474C149.823 560.253 149.685 560.185 149.609 560.157C148.8 559.812 146.496 560.846 144.878 561.673Z" fill="#407BFF"/>
<path d="M144.085 562.059C144.03 562.071 143.972 562.071 143.917 562.059C143.871 562.032 143.833 561.995 143.807 561.952C143.78 561.909 143.766 561.86 143.765 561.811C143.765 561.673 143.902 558.338 145.291 557.249C145.458 557.107 145.659 557.002 145.878 556.939C146.098 556.877 146.33 556.861 146.557 556.891C146.789 556.894 147.013 556.966 147.195 557.095C147.378 557.225 147.507 557.405 147.564 557.608C147.9 558.889 145.489 561.425 144.192 562.072C144.155 562.077 144.118 562.072 144.085 562.059ZM146.405 557.387C146.157 557.389 145.918 557.473 145.733 557.622C144.889 558.677 144.43 559.944 144.421 561.246C145.687 560.336 147.198 558.49 147 557.663C147 557.594 147 557.442 146.542 557.387H146.405Z" fill="#407BFF"/>
<path d="M231.952 557.36C231.895 557.362 231.838 557.348 231.789 557.321C231.74 557.294 231.701 557.255 231.677 557.208C231.645 557.163 231.627 557.11 231.627 557.057C231.627 557.003 231.645 556.95 231.677 556.905C232.12 556.464 235.996 552.619 237.781 552.854C237.947 552.87 238.105 552.926 238.239 553.016C238.373 553.105 238.478 553.225 238.544 553.364C238.665 553.577 238.728 553.813 238.728 554.053C238.728 554.292 238.665 554.528 238.544 554.742C237.675 556.23 234.073 556.988 231.998 557.291L231.952 557.36ZM237.583 553.391C236.561 553.391 234.333 555.196 232.776 556.671C235.584 556.161 237.507 555.375 237.995 554.535C238.078 554.39 238.121 554.229 238.121 554.066C238.121 553.903 238.078 553.743 237.995 553.598C237.971 553.543 237.932 553.495 237.881 553.459C237.83 553.423 237.769 553.399 237.705 553.391H237.583Z" fill="#407BFF"/>
<path d="M231.952 557.36H231.861C231.809 557.347 231.763 557.323 231.725 557.289C231.688 557.255 231.661 557.213 231.647 557.167C231.647 557.043 230.716 554.025 231.754 552.371C231.9 552.134 232.099 551.925 232.338 551.76C232.577 551.594 232.85 551.474 233.142 551.407C233.951 551.2 234.317 551.489 234.5 551.751C235.233 552.895 233.356 556.216 232.15 557.263C232.128 557.292 232.099 557.317 232.064 557.333C232.03 557.35 231.991 557.359 231.952 557.36ZM233.615 551.848H233.295C233.08 551.894 232.878 551.982 232.704 552.106C232.53 552.229 232.388 552.386 232.288 552.564C231.783 553.806 231.719 555.16 232.105 556.436C233.234 555.058 234.409 552.633 233.966 551.944C233.905 551.972 233.829 551.861 233.57 551.875L233.615 551.848Z" fill="#407BFF"/>
<path d="M130.809 222.299C126.978 229.423 123.072 236.782 119.287 244.03C117.41 247.682 115.518 251.32 113.748 254.971L111.093 260.483L109.872 263.198L109.567 263.887L109.338 264.397C109.185 264.714 109.078 265.058 108.941 265.375C107.994 268.09 107.826 270.978 108.453 273.767C109.201 277.007 110.558 280.106 112.466 282.931C114.567 286.092 116.999 289.064 119.73 291.805C121.119 293.183 122.584 294.644 124.11 295.939C124.873 296.601 125.636 297.317 126.444 297.91C127.253 298.502 128.062 299.288 128.733 299.77L123.606 307.142C121.401 306.13 119.266 304.998 117.212 303.753C115.182 302.554 113.199 301.286 111.276 299.908C107.316 297.075 103.731 293.838 100.594 290.262C97.1762 286.423 94.5645 282.051 92.8876 277.364C91.1023 272.195 90.8445 266.694 92.1399 261.407C92.3383 260.759 92.4909 260.029 92.7198 259.45L93.3149 257.741L94.3831 254.696C95.1461 252.698 95.9091 250.686 96.7026 248.715C98.3049 244.76 99.9835 240.847 101.799 236.988C105.294 229.299 109.216 221.858 113.58 214.32L130.809 222.299Z" fill="#B65B52"/>
<path d="M116.77 205.983C105.111 209.277 93.6506 244.981 93.6506 244.981L120.554 255.647C120.554 255.647 129.283 238.394 134.288 224.876C139.827 210.145 130.885 201.987 116.77 205.983Z" fill="#407BFF"/>
<path opacity="0.2" d="M116.77 205.983C105.111 209.277 93.6506 244.981 93.6506 244.981L120.554 255.647C120.554 255.647 129.283 238.394 134.288 224.876C139.827 210.145 130.885 201.987 116.77 205.983Z" fill="black"/>
<path d="M125.834 297.538L136.989 303.518L126.139 313.274C126.139 313.274 116.724 306.729 119.532 301.603L125.834 297.538Z" fill="#B55B52"/>
<path d="M144.451 313.068L133.25 320.151L126.139 313.274L136.989 303.518L144.451 313.068Z" fill="#B55B52"/>
<path d="M684.205 294.948L683.673 301.586L685.195 301.685L685.727 295.047L684.205 294.948Z" fill="#407BFF"/>
<path d="M686.216 269.812L684.673 289.067L686.195 289.166L687.738 269.911L686.216 269.812Z" fill="#407BFF"/>
<path d="M644.46 486.434H270.697C268.028 486.462 265.382 485.985 262.929 485.035C260.475 484.084 258.27 482.681 256.453 480.914C254.636 479.148 253.249 477.058 252.38 474.779C251.512 472.499 251.181 470.081 251.409 467.679L271.247 218.537C271.738 213.492 274.278 208.79 278.376 205.333C282.474 201.876 287.843 199.909 293.45 199.81H667.213C669.882 199.78 672.528 200.255 674.981 201.204C677.434 202.153 679.64 203.555 681.457 205.32C683.273 207.086 684.661 209.175 685.53 211.453C686.399 213.732 686.73 216.15 686.502 218.551L666.664 467.693C666.175 472.74 663.638 477.446 659.539 480.906C655.44 484.365 650.07 486.334 644.46 486.434Z" fill="#407BFF"/>
<path d="M557.524 573.579H436.192L414.568 438.204H535.901L557.524 573.579Z" fill="#407BFF"/>
<path d="M538.251 565.504H407.015L404.405 573.579H535.656L538.251 565.504Z" fill="#407BFF"/>
<path d="M542.295 503.37L424.045 497.541L414.568 438.204H531.887L542.295 503.37Z" fill="#263238"/>
<path d="M640.249 486.434H266.47C263.797 486.461 261.148 485.982 258.692 485.027C256.237 484.072 254.031 482.663 252.216 480.89C250.402 479.118 249.019 477.021 248.157 474.736C247.295 472.451 246.973 470.029 247.212 467.624L267.05 218.482C267.556 213.452 270.097 208.766 274.187 205.322C278.278 201.877 283.631 199.915 289.223 199.81H663.001C665.669 199.782 668.313 200.258 670.764 201.208C673.215 202.158 675.419 203.56 677.235 205.326C679.05 207.091 680.436 209.179 681.304 211.457C682.172 213.734 682.503 216.151 682.275 218.551L662.437 467.693C661.952 472.739 659.417 477.445 655.321 480.905C651.225 484.364 645.856 486.334 640.249 486.434Z" fill="#263238"/>
<path d="M681.308 220.887L669.963 363.805L671.424 363.9L682.769 220.982L681.308 220.887Z" fill="white"/>
<path d="M669.031 376.249L665.102 425.743L666.563 425.838L670.492 376.343L669.031 376.249Z" fill="white"/>
<path d="M639.394 481.721H267.996C265.919 481.742 263.859 481.369 261.951 480.628C260.042 479.887 258.326 478.794 256.913 477.418C255.501 476.042 254.422 474.415 253.747 472.64C253.073 470.866 252.817 468.984 252.996 467.114L272.696 218.992C273.076 215.057 275.056 211.388 278.255 208.694C281.453 205.999 285.643 204.469 290.016 204.399H661.475C663.551 204.378 665.609 204.75 667.517 205.491C669.424 206.231 671.139 207.323 672.552 208.697C673.964 210.072 675.043 211.697 675.719 213.47C676.395 215.243 676.652 217.124 676.476 218.992L656.775 467.142C656.39 471.084 654.4 474.757 651.189 477.45C647.979 480.143 643.776 481.665 639.394 481.721Z" fill="white"/>
<path opacity="0.2" d="M639.394 481.721H267.996C265.919 481.742 263.859 481.369 261.951 480.628C260.042 479.887 258.326 478.794 256.913 477.418C255.501 476.042 254.422 474.415 253.747 472.64C253.073 470.866 252.817 468.984 252.996 467.114L272.696 218.992C273.076 215.057 275.056 211.388 278.255 208.694C281.453 205.999 285.643 204.469 290.016 204.399H661.475C663.551 204.378 665.609 204.75 667.517 205.491C669.424 206.231 671.139 207.323 672.552 208.697C673.964 210.072 675.043 211.697 675.719 213.47C676.395 215.243 676.652 217.124 676.476 218.992L656.775 467.142C656.39 471.084 654.4 474.757 651.189 477.45C647.979 480.143 643.776 481.665 639.394 481.721Z" fill="#407BFF"/>
<path opacity="0.5" d="M363.28 470.725H276.542C275.538 470.736 274.542 470.557 273.619 470.2C272.697 469.842 271.867 469.314 271.184 468.649C270.501 467.984 269.98 467.198 269.654 466.34C269.329 465.483 269.206 464.573 269.293 463.669L288.429 222.519C288.61 220.615 289.567 218.84 291.115 217.536C292.663 216.233 294.691 215.495 296.807 215.464H383.545C384.55 215.451 385.546 215.628 386.47 215.985C387.394 216.342 388.224 216.87 388.908 217.535C389.591 218.2 390.112 218.988 390.437 219.846C390.762 220.705 390.883 221.616 390.793 222.519L371.657 463.669C371.473 465.572 370.515 467.346 368.968 468.649C367.421 469.952 365.395 470.691 363.28 470.725Z" fill="white"/>
<path opacity="0.4" d="M359.922 249.418H315.028C314.124 249.427 313.228 249.265 312.397 248.942C311.567 248.62 310.82 248.145 310.205 247.547C309.591 246.948 309.121 246.241 308.826 245.469C308.532 244.697 308.42 243.879 308.496 243.065L308.985 236.851C309.15 235.138 310.012 233.541 311.404 232.368C312.796 231.195 314.619 230.529 316.523 230.498H361.433C362.337 230.489 363.233 230.651 364.063 230.974C364.894 231.296 365.64 231.771 366.255 232.37C366.87 232.968 367.34 233.675 367.634 234.447C367.929 235.219 368.041 236.037 367.964 236.851L367.461 243.065C367.312 244.784 366.455 246.39 365.06 247.566C363.664 248.742 361.831 249.403 359.922 249.418Z" fill="#407BFF"/>
<path d="M331.371 346.98H262.838C261.266 346.999 259.707 346.72 258.261 346.163C256.815 345.605 255.514 344.781 254.441 343.743C253.368 342.706 252.546 341.477 252.029 340.136C251.513 338.795 251.311 337.372 251.439 335.956L256.368 274.002C256.672 271.024 258.183 268.252 260.61 266.217C263.037 264.183 266.211 263.029 269.522 262.978H338.07C339.641 262.961 341.198 263.241 342.643 263.8C344.087 264.358 345.386 265.182 346.458 266.22C347.529 267.257 348.349 268.485 348.865 269.825C349.381 271.165 349.582 272.588 349.454 274.002L344.54 335.901C344.254 338.893 342.748 341.681 340.315 343.728C337.883 345.775 334.696 346.934 331.371 346.98Z" fill="#407BFF"/>
<path d="M341.198 296.27C339.933 296.293 338.722 296.738 337.798 297.519C336.874 298.3 336.302 299.362 336.193 300.5L335.476 309.485C335.425 310.026 335.499 310.571 335.696 311.084C335.892 311.597 336.205 312.067 336.614 312.465C337.024 312.862 337.522 313.177 338.075 313.39C338.628 313.603 339.224 313.709 339.825 313.702H346.784C347.097 313.699 347.399 313.59 347.628 313.396C347.857 313.202 347.997 312.937 348.02 312.654L349.24 297.317C349.253 297.183 349.235 297.047 349.186 296.919C349.137 296.792 349.059 296.675 348.957 296.576C348.855 296.477 348.731 296.399 348.593 296.346C348.455 296.294 348.307 296.268 348.157 296.27H341.198Z" fill="white"/>
<path d="M314.753 278.673H271.628C271.387 278.676 271.148 278.633 270.926 278.547C270.704 278.461 270.505 278.334 270.341 278.174C270.177 278.015 270.052 277.826 269.974 277.62C269.896 277.414 269.867 277.195 269.888 276.978C269.93 276.52 270.16 276.092 270.532 275.779C270.905 275.465 271.393 275.288 271.903 275.283H315.104C315.345 275.28 315.584 275.323 315.806 275.409C316.027 275.495 316.227 275.622 316.391 275.782C316.554 275.941 316.679 276.13 316.757 276.336C316.835 276.543 316.865 276.761 316.843 276.978C316.797 277.447 316.556 277.883 316.168 278.197C315.78 278.512 315.274 278.682 314.753 278.673Z" fill="white"/>
<path d="M314.081 287.285H270.865C270.624 287.288 270.385 287.245 270.163 287.159C269.942 287.074 269.742 286.947 269.578 286.787C269.414 286.627 269.289 286.438 269.211 286.232C269.133 286.026 269.104 285.807 269.125 285.59C269.171 285.135 269.402 284.71 269.774 284.4C270.146 284.089 270.633 283.914 271.14 283.909H314.356C314.597 283.905 314.835 283.946 315.057 284.03C315.279 284.114 315.478 284.24 315.642 284.399C315.806 284.557 315.932 284.745 316.01 284.951C316.088 285.156 316.117 285.374 316.096 285.59C316.054 286.049 315.824 286.476 315.452 286.79C315.079 287.103 314.591 287.28 314.081 287.285Z" fill="white"/>
<path d="M298.455 295.912H270.178C269.938 295.912 269.7 295.868 269.479 295.781C269.259 295.695 269.06 295.568 268.897 295.409C268.733 295.249 268.608 295.061 268.529 294.856C268.451 294.651 268.42 294.433 268.439 294.217C268.48 293.759 268.71 293.331 269.083 293.017C269.455 292.704 269.944 292.527 270.453 292.522H298.73C298.971 292.519 299.21 292.562 299.432 292.648C299.653 292.734 299.853 292.861 300.016 293.02C300.18 293.18 300.305 293.369 300.383 293.575C300.461 293.781 300.491 294 300.469 294.217C300.424 294.674 300.194 295.1 299.822 295.413C299.45 295.726 298.963 295.903 298.455 295.912Z" fill="white"/>
<path opacity="0.5" d="M314.875 336.976H273.154C272.123 336.987 271.1 336.803 270.152 336.436C269.204 336.069 268.352 335.526 267.651 334.843C266.949 334.16 266.414 333.352 266.079 332.471C265.744 331.59 265.618 330.656 265.707 329.728L267.233 309.898C267.418 307.946 268.399 306.124 269.987 304.788C271.574 303.451 273.654 302.694 275.824 302.664H317.622C318.652 302.653 319.673 302.837 320.62 303.203C321.566 303.57 322.418 304.111 323.119 304.792C323.82 305.473 324.356 306.28 324.692 307.159C325.028 308.039 325.156 308.972 325.069 309.898L323.543 329.728C323.353 331.692 322.36 333.523 320.758 334.863C319.156 336.203 317.059 336.956 314.875 336.976Z" fill="white"/>
<path opacity="0.4" d="M353.895 370.158H301.889C301.441 370.164 300.997 370.084 300.586 369.925C300.174 369.766 299.804 369.531 299.499 369.235C299.195 368.939 298.962 368.589 298.816 368.207C298.671 367.825 298.615 367.419 298.654 367.017C298.736 366.168 299.164 365.378 299.855 364.797C300.545 364.217 301.449 363.888 302.392 363.875H354.398C354.845 363.871 355.287 363.952 355.696 364.112C356.106 364.272 356.474 364.507 356.777 364.803C357.08 365.099 357.312 365.448 357.457 365.83C357.601 366.211 357.656 366.615 357.618 367.017C357.539 367.864 357.114 368.654 356.426 369.235C355.738 369.815 354.836 370.144 353.895 370.158Z" fill="#407BFF"/>
<path opacity="0.8" d="M343.35 382.491H310.419C309.971 382.497 309.528 382.417 309.116 382.258C308.705 382.099 308.335 381.864 308.03 381.568C307.725 381.272 307.492 380.922 307.347 380.54C307.201 380.158 307.145 379.752 307.184 379.35C307.263 378.502 307.688 377.712 308.376 377.131C309.064 376.551 309.966 376.222 310.907 376.208H343.915C344.362 376.202 344.805 376.282 345.216 376.441C345.626 376.6 345.996 376.835 346.299 377.131C346.603 377.428 346.834 377.778 346.978 378.16C347.122 378.542 347.175 378.948 347.134 379.35C347.054 380.206 346.621 381.004 345.92 381.586C345.219 382.168 344.302 382.491 343.35 382.491Z" fill="white"/>
<path opacity="0.4" d="M351.194 404.181H299.188C298.741 404.184 298.298 404.104 297.888 403.944C297.477 403.784 297.108 403.549 296.804 403.254C296.5 402.958 296.267 402.609 296.12 402.227C295.974 401.846 295.916 401.442 295.952 401.039C296.035 400.191 296.463 399.4 297.154 398.82C297.844 398.24 298.748 397.911 299.691 397.898H351.697C352.144 397.894 352.586 397.975 352.995 398.135C353.405 398.295 353.773 398.53 354.076 398.826C354.379 399.121 354.611 399.471 354.756 399.852C354.9 400.234 354.955 400.638 354.917 401.039C354.838 401.887 354.413 402.677 353.725 403.257C353.037 403.838 352.135 404.167 351.194 404.181Z" fill="#407BFF"/>
<path opacity="0.8" d="M340.71 416.5H307.718C307.271 416.508 306.828 416.43 306.416 416.273C306.005 416.115 305.634 415.882 305.329 415.587C305.024 415.292 304.791 414.942 304.646 414.561C304.5 414.179 304.444 413.774 304.483 413.372C304.563 412.518 304.994 411.722 305.692 411.141C306.389 410.559 307.303 410.234 308.252 410.231H341.214C341.661 410.225 342.105 410.305 342.517 410.464C342.928 410.623 343.298 410.858 343.603 411.154C343.908 411.45 344.14 411.8 344.286 412.182C344.432 412.564 344.487 412.97 344.449 413.372C344.366 414.22 343.937 415.008 343.246 415.586C342.556 416.164 341.652 416.49 340.71 416.5Z" fill="white"/>
<path opacity="0.4" d="M348.493 438.204H296.487C296.04 438.207 295.597 438.126 295.187 437.967C294.776 437.807 294.407 437.572 294.103 437.276C293.799 436.981 293.566 436.631 293.419 436.25C293.273 435.869 293.215 435.464 293.251 435.062C293.331 434.213 293.758 433.42 294.449 432.839C295.14 432.259 296.046 431.931 296.99 431.92H348.996C349.443 431.915 349.886 431.994 350.297 432.153C350.708 432.312 351.077 432.548 351.381 432.844C351.684 433.14 351.916 433.491 352.06 433.873C352.203 434.255 352.257 434.66 352.216 435.062C352.137 435.909 351.712 436.7 351.024 437.28C350.336 437.861 349.434 438.19 348.493 438.204Z" fill="#407BFF"/>
<path opacity="0.8" d="M338.009 450.523H305.017C304.569 450.529 304.125 450.449 303.714 450.29C303.302 450.131 302.932 449.896 302.628 449.6C302.323 449.304 302.09 448.954 301.944 448.572C301.799 448.19 301.743 447.784 301.782 447.381C301.864 446.535 302.29 445.747 302.977 445.167C303.665 444.587 304.565 444.257 305.505 444.24H338.513C338.959 444.236 339.402 444.317 339.813 444.477C340.223 444.637 340.592 444.872 340.896 445.167C341.201 445.463 341.433 445.812 341.58 446.193C341.727 446.575 341.784 446.979 341.748 447.381C341.668 448.231 341.241 449.023 340.55 449.604C339.859 450.185 338.953 450.513 338.009 450.523Z" fill="white"/>
<path opacity="0.5" d="M643.484 399.992C645.742 396.878 650.915 398.187 650.625 401.783L645.62 464.841C645.361 468.079 642.644 470.725 639.516 470.725H388.016C384.964 470.725 382.645 468.079 382.904 464.841L385.956 427.373C386.058 426.182 386.45 425.025 387.104 423.986C387.758 422.947 388.658 422.052 389.739 421.363C390.821 420.675 392.058 420.21 393.361 420.004C394.664 419.797 396.002 419.852 397.279 420.166C411.455 424.148 423.602 421.806 434.895 416.749C459.036 405.931 479.24 382.698 506.998 382.698C508.066 382.698 509.119 382.698 510.142 382.781C551.435 385.027 564.01 431.355 595.995 431.355C605.456 431.355 614.078 427.662 621.601 422.412C630.726 415.977 638.25 407.199 643.484 399.992Z" fill="#407BFF"/>
<path opacity="0.5" d="M648.703 425.967L645.651 464.841C645.391 468.079 642.675 470.725 639.547 470.725H388.016C384.964 470.725 382.645 468.079 382.904 464.841L389.008 387.59C389.42 382.299 397.096 380.066 400.209 384.352C408.236 395.376 420.581 409.693 434.788 416.749C439.951 419.47 445.795 420.963 451.772 421.089C472.099 421.089 489.388 399.331 510.035 382.781C522.686 372.639 536.603 364.453 553.251 364.453C587.998 364.453 593.126 415.439 621.494 422.412C626.957 423.79 633.29 423.473 640.859 420.855C641.754 420.506 642.734 420.372 643.704 420.468C644.673 420.563 645.598 420.884 646.389 421.399C647.18 421.915 647.808 422.607 648.214 423.407C648.62 424.208 648.788 425.09 648.703 425.967Z" fill="#407BFF"/>
<g opacity="0.8">
<path d="M649.939 410.892C649.802 410.888 649.672 410.839 649.573 410.754C649.523 410.713 649.486 410.661 649.466 410.603C649.452 410.544 649.452 410.483 649.466 410.424C649.465 410.362 649.478 410.301 649.504 410.244C649.531 410.187 649.569 410.136 649.618 410.093C649.716 410.005 649.847 409.956 649.985 409.956C650.122 409.956 650.254 410.005 650.351 410.093C650.401 410.135 650.441 410.186 650.467 410.243C650.494 410.3 650.506 410.362 650.503 410.424C650.511 410.483 650.511 410.543 650.503 410.603C650.472 410.659 650.43 410.71 650.381 410.754C650.324 410.806 650.254 410.845 650.178 410.869C650.101 410.893 650.019 410.901 649.939 410.892Z" fill="white"/>
<path d="M405.367 443.179C405.229 443.179 405.097 443.129 405 443.041C404.903 442.953 404.848 442.834 404.848 442.71C404.852 442.588 404.908 442.473 405.005 442.388C405.102 442.303 405.232 442.255 405.367 442.255C405.504 442.255 405.636 442.305 405.734 442.393C405.831 442.48 405.886 442.6 405.886 442.724C405.886 442.849 405.831 442.97 405.735 443.06C405.638 443.15 405.506 443.203 405.367 443.206V443.179ZM400.132 442.917C400.064 442.913 399.996 442.897 399.934 442.869C399.872 442.842 399.818 442.803 399.773 442.755C399.729 442.707 399.696 442.651 399.676 442.592C399.657 442.532 399.651 442.469 399.659 442.407C399.667 442.345 399.688 442.285 399.721 442.231C399.755 442.177 399.8 442.129 399.854 442.091C399.908 442.052 399.969 442.024 400.036 442.007C400.102 441.99 400.171 441.986 400.239 441.994C400.374 442.007 400.498 442.069 400.584 442.164C400.669 442.259 400.71 442.381 400.697 442.503C400.682 442.619 400.622 442.726 400.526 442.805C400.431 442.883 400.307 442.928 400.178 442.931L400.132 442.917ZM410.006 442.503C409.997 442.442 410.002 442.379 410.021 442.319C410.039 442.26 410.071 442.204 410.113 442.155C410.156 442.106 410.209 442.066 410.269 442.036C410.329 442.006 410.395 441.987 410.464 441.98C410.532 441.972 410.601 441.977 410.667 441.993C410.733 442.01 410.795 442.038 410.849 442.077C410.903 442.115 410.948 442.163 410.981 442.217C411.015 442.272 411.036 442.331 411.043 442.393C411.052 442.455 411.047 442.517 411.028 442.577C411.01 442.637 410.978 442.693 410.936 442.741C410.893 442.79 410.84 442.831 410.78 442.861C410.72 442.891 410.654 442.91 410.586 442.917C410.517 442.924 410.448 442.92 410.382 442.903C410.316 442.886 410.254 442.858 410.2 442.82C410.146 442.781 410.101 442.733 410.068 442.679C410.034 442.625 410.013 442.565 410.006 442.503ZM394.975 442.2C394.84 442.171 394.722 442.096 394.645 441.991C394.569 441.886 394.539 441.759 394.563 441.635C394.595 441.513 394.678 441.407 394.794 441.338C394.91 441.269 395.051 441.242 395.188 441.263C395.323 441.293 395.441 441.368 395.517 441.472C395.594 441.577 395.624 441.704 395.6 441.828C395.573 441.934 395.507 442.028 395.412 442.096C395.318 442.163 395.202 442.2 395.081 442.2H394.975ZM415.103 441.732C415.084 441.671 415.08 441.608 415.089 441.545C415.099 441.483 415.122 441.423 415.157 441.369C415.193 441.315 415.24 441.268 415.296 441.231C415.353 441.194 415.416 441.167 415.484 441.153C415.617 441.128 415.756 441.149 415.873 441.213C415.989 441.277 416.074 441.379 416.11 441.497C416.142 441.62 416.121 441.749 416.049 441.857C415.978 441.965 415.863 442.044 415.728 442.076H415.606C415.486 442.086 415.366 442.057 415.268 441.993C415.17 441.93 415.101 441.837 415.072 441.732H415.103ZM582.001 441.925C581.864 441.925 581.732 441.875 581.634 441.787C581.537 441.7 581.482 441.58 581.482 441.456C581.482 441.332 581.537 441.213 581.634 441.125C581.732 441.037 581.864 440.988 582.001 440.988C582.139 440.988 582.271 441.037 582.368 441.125C582.465 441.213 582.52 441.332 582.52 441.456C582.52 441.58 582.465 441.7 582.368 441.787C582.271 441.875 582.139 441.925 582.001 441.925ZM586.655 441.263C586.647 441.202 586.652 441.141 586.671 441.082C586.69 441.023 586.721 440.968 586.764 440.92C586.807 440.872 586.86 440.833 586.92 440.804C586.98 440.776 587.046 440.758 587.113 440.753C587.182 440.744 587.252 440.747 587.319 440.763C587.386 440.779 587.449 440.807 587.503 440.846C587.558 440.884 587.603 440.933 587.635 440.988C587.668 441.044 587.688 441.104 587.693 441.167C587.706 441.293 587.664 441.418 587.575 441.516C587.487 441.614 587.359 441.676 587.22 441.69C587.083 441.698 586.948 441.658 586.843 441.579C586.738 441.499 586.671 441.386 586.655 441.263ZM576.782 441.635C576.714 441.629 576.649 441.609 576.589 441.579C576.53 441.549 576.478 441.508 576.437 441.459C576.395 441.41 576.365 441.354 576.349 441.294C576.332 441.235 576.329 441.172 576.34 441.112C576.347 441.05 576.368 440.99 576.402 440.936C576.435 440.882 576.48 440.834 576.534 440.795C576.588 440.757 576.65 440.729 576.716 440.712C576.782 440.695 576.851 440.691 576.92 440.698C577.056 440.715 577.18 440.779 577.265 440.877C577.35 440.975 577.391 441.098 577.377 441.222C577.363 441.338 577.302 441.445 577.207 441.523C577.111 441.602 576.988 441.646 576.859 441.649L576.782 441.635ZM389.908 441.07C389.842 441.054 389.78 441.027 389.725 440.989C389.671 440.951 389.625 440.904 389.591 440.85C389.557 440.796 389.535 440.737 389.527 440.675C389.518 440.614 389.524 440.551 389.542 440.491C389.584 440.371 389.676 440.27 389.798 440.209C389.92 440.148 390.063 440.13 390.198 440.161C390.331 440.199 390.441 440.282 390.507 440.393C390.572 440.503 390.588 440.633 390.549 440.753C390.518 440.851 390.452 440.937 390.361 440.997C390.269 441.057 390.159 441.088 390.046 441.084H389.908V441.07ZM591.783 440.616C591.767 440.555 591.766 440.492 591.778 440.43C591.791 440.369 591.818 440.311 591.856 440.259C591.895 440.207 591.945 440.163 592.003 440.13C592.061 440.096 592.127 440.074 592.195 440.064C592.262 440.052 592.331 440.052 592.398 440.065C592.465 440.077 592.529 440.101 592.586 440.136C592.643 440.17 592.691 440.215 592.729 440.266C592.767 440.318 592.792 440.376 592.805 440.436C592.819 440.497 592.818 440.559 592.805 440.62C592.791 440.681 592.765 440.738 592.726 440.789C592.688 440.841 592.639 440.885 592.582 440.919C592.525 440.953 592.461 440.976 592.393 440.988H592.302C592.181 440.987 592.065 440.95 591.971 440.883C591.876 440.815 591.81 440.721 591.783 440.616ZM571.655 440.781C571.587 440.77 571.522 440.746 571.464 440.711C571.407 440.676 571.359 440.63 571.323 440.576C571.287 440.523 571.264 440.463 571.255 440.401C571.247 440.339 571.253 440.276 571.273 440.216C571.306 440.095 571.39 439.991 571.507 439.927C571.625 439.862 571.766 439.842 571.899 439.871C572.033 439.901 572.148 439.977 572.219 440.083C572.291 440.189 572.313 440.316 572.281 440.436C572.253 440.538 572.189 440.629 572.097 440.694C572.006 440.759 571.893 440.795 571.777 440.795H571.655V440.781ZM420.047 440.395C420.02 440.337 420.007 440.275 420.008 440.213C420.009 440.15 420.025 440.089 420.053 440.032C420.082 439.975 420.123 439.924 420.175 439.882C420.226 439.84 420.286 439.809 420.352 439.789C420.48 439.743 420.622 439.746 420.748 439.795C420.873 439.844 420.972 439.936 421.023 440.051C421.048 440.108 421.059 440.17 421.057 440.232C421.055 440.294 421.039 440.355 421.011 440.411C420.983 440.468 420.942 440.518 420.892 440.56C420.842 440.603 420.783 440.635 420.718 440.657C420.658 440.669 420.595 440.669 420.535 440.657C420.435 440.659 420.336 440.636 420.249 440.589C420.163 440.543 420.093 440.476 420.047 440.395ZM596.834 439.582C596.813 439.521 596.806 439.458 596.813 439.394C596.821 439.331 596.842 439.27 596.876 439.215C596.911 439.159 596.957 439.111 597.013 439.072C597.068 439.033 597.132 439.005 597.2 438.989C597.266 438.973 597.335 438.968 597.404 438.976C597.472 438.983 597.537 439.003 597.597 439.034C597.657 439.065 597.709 439.106 597.751 439.155C597.793 439.204 597.823 439.26 597.841 439.32C597.86 439.38 597.865 439.442 597.856 439.504C597.848 439.565 597.826 439.625 597.792 439.679C597.758 439.732 597.712 439.78 597.658 439.818C597.603 439.855 597.541 439.883 597.475 439.899H597.337C597.227 439.901 597.119 439.872 597.028 439.815C596.938 439.758 596.87 439.676 596.834 439.582ZM566.65 439.417C566.521 439.376 566.414 439.291 566.354 439.18C566.294 439.069 566.285 438.941 566.329 438.824C566.377 438.707 566.475 438.611 566.6 438.557C566.725 438.502 566.869 438.495 567.001 438.535C567.131 438.578 567.237 438.666 567.297 438.779C567.357 438.892 567.365 439.022 567.321 439.141C567.281 439.232 567.211 439.309 567.121 439.363C567.032 439.417 566.926 439.446 566.818 439.444C566.76 439.45 566.702 439.44 566.65 439.417ZM424.732 438.535C424.7 438.48 424.681 438.419 424.676 438.358C424.67 438.296 424.678 438.234 424.699 438.175C424.721 438.116 424.755 438.061 424.8 438.014C424.844 437.967 424.899 437.929 424.961 437.901C425.086 437.848 425.23 437.842 425.361 437.883C425.492 437.924 425.6 438.009 425.662 438.121C425.694 438.175 425.713 438.235 425.718 438.295C425.723 438.356 425.715 438.417 425.694 438.475C425.672 438.533 425.638 438.586 425.594 438.632C425.549 438.678 425.494 438.715 425.434 438.741C425.354 438.762 425.269 438.762 425.189 438.741C425.11 438.737 425.033 438.716 424.964 438.68C424.896 438.644 424.837 438.594 424.793 438.535H424.732ZM601.748 438.204C601.723 438.147 601.712 438.086 601.714 438.025C601.717 437.965 601.733 437.905 601.761 437.849C601.79 437.794 601.83 437.745 601.88 437.704C601.93 437.663 601.989 437.631 602.053 437.611C602.182 437.575 602.322 437.585 602.444 437.639C602.566 437.693 602.661 437.786 602.709 437.901C602.753 438.02 602.745 438.149 602.685 438.263C602.625 438.376 602.519 438.464 602.389 438.507H602.221C602.125 438.497 602.035 438.464 601.96 438.41C601.884 438.357 601.827 438.285 601.793 438.204H601.748ZM561.782 437.625C561.72 437.6 561.664 437.564 561.617 437.519C561.57 437.474 561.534 437.421 561.51 437.364C561.486 437.306 561.474 437.245 561.476 437.183C561.479 437.122 561.494 437.061 561.522 437.005C561.582 436.894 561.686 436.808 561.814 436.765C561.942 436.721 562.083 436.723 562.209 436.771C562.273 436.796 562.331 436.833 562.379 436.879C562.427 436.925 562.464 436.979 562.488 437.038C562.512 437.097 562.523 437.16 562.52 437.223C562.516 437.286 562.499 437.348 562.468 437.405C562.426 437.486 562.359 437.555 562.275 437.603C562.192 437.652 562.095 437.679 561.995 437.68C561.935 437.675 561.877 437.656 561.827 437.625H561.782ZM606.585 436.55C606.558 436.494 606.544 436.432 606.544 436.371C606.544 436.309 606.558 436.248 606.586 436.191C606.613 436.134 606.652 436.083 606.702 436.041C606.752 435.998 606.811 435.965 606.875 435.944C606.937 435.917 607.004 435.902 607.072 435.901C607.14 435.899 607.209 435.91 607.272 435.933C607.335 435.957 607.392 435.992 607.44 436.036C607.487 436.081 607.523 436.134 607.546 436.192C607.574 436.249 607.589 436.31 607.59 436.373C607.591 436.435 607.578 436.496 607.553 436.554C607.527 436.612 607.489 436.664 607.441 436.709C607.393 436.753 607.335 436.788 607.272 436.812C607.206 436.825 607.139 436.825 607.073 436.812C606.981 436.807 606.891 436.78 606.814 436.734C606.736 436.688 606.673 436.625 606.631 436.55H606.585ZM429.264 436.275C429.19 436.167 429.166 436.037 429.197 435.913C429.229 435.789 429.313 435.681 429.432 435.613C429.49 435.581 429.554 435.558 429.622 435.548C429.689 435.538 429.759 435.54 429.825 435.554C429.892 435.568 429.955 435.594 430.01 435.63C430.066 435.667 430.113 435.712 430.149 435.765C430.185 435.817 430.21 435.876 430.221 435.937C430.232 435.998 430.23 436.06 430.214 436.12C430.199 436.181 430.17 436.237 430.13 436.288C430.09 436.338 430.039 436.38 429.981 436.413C429.902 436.466 429.805 436.495 429.706 436.495C429.626 436.487 429.549 436.463 429.481 436.425C429.412 436.387 429.354 436.336 429.31 436.275H429.264ZM557.127 435.517C557.005 435.456 556.914 435.354 556.874 435.233C556.834 435.111 556.848 434.981 556.914 434.869C556.984 434.761 557.098 434.682 557.232 434.648C557.366 434.615 557.509 434.63 557.631 434.69C557.75 434.751 557.837 434.852 557.874 434.97C557.911 435.089 557.895 435.216 557.829 435.324C557.784 435.398 557.718 435.46 557.637 435.503C557.557 435.547 557.465 435.571 557.372 435.572C557.303 435.562 557.236 435.544 557.173 435.517H557.127ZM611.331 434.663C611.273 434.551 611.266 434.423 611.312 434.307C611.358 434.191 611.452 434.096 611.575 434.042C611.701 433.99 611.844 433.983 611.975 434.024C612.106 434.065 612.215 434.151 612.277 434.263C612.305 434.319 612.321 434.38 612.323 434.441C612.325 434.503 612.314 434.564 612.29 434.622C612.266 434.679 612.229 434.732 612.182 434.777C612.136 434.822 612.08 434.858 612.018 434.883H611.789C611.705 434.879 611.625 434.857 611.553 434.818C611.481 434.78 611.421 434.726 611.377 434.663H611.331ZM433.567 433.684C433.489 433.581 433.457 433.455 433.48 433.331C433.503 433.208 433.578 433.097 433.689 433.023C433.802 432.95 433.94 432.92 434.077 432.938C434.214 432.956 434.337 433.021 434.422 433.119C434.5 433.222 434.532 433.349 434.509 433.472C434.486 433.596 434.411 433.706 434.3 433.781C434.211 433.839 434.104 433.872 433.994 433.877C433.919 433.871 433.847 433.851 433.781 433.817C433.715 433.784 433.658 433.739 433.613 433.684H433.567ZM552.595 433.161C552.537 433.129 552.487 433.088 552.447 433.039C552.407 432.99 552.379 432.935 552.363 432.876C552.347 432.816 552.345 432.755 552.356 432.695C552.367 432.635 552.391 432.578 552.427 432.527C552.459 432.472 552.503 432.424 552.556 432.385C552.61 432.347 552.671 432.319 552.738 432.303C552.804 432.287 552.873 432.285 552.94 432.295C553.008 432.305 553.072 432.327 553.129 432.361C553.189 432.393 553.241 432.434 553.282 432.484C553.324 432.534 553.354 432.59 553.371 432.65C553.388 432.711 553.392 432.773 553.382 432.835C553.372 432.897 553.348 432.956 553.312 433.009C553.266 433.078 553.202 433.136 553.124 433.177C553.047 433.218 552.959 433.241 552.87 433.243C552.798 433.228 552.731 433.199 552.671 433.161H552.595ZM615.939 432.568C615.875 432.458 615.861 432.33 615.901 432.211C615.941 432.092 616.032 431.993 616.153 431.934C616.275 431.879 616.416 431.869 616.547 431.904C616.677 431.94 616.787 432.02 616.855 432.127C616.921 432.239 616.935 432.369 616.895 432.49C616.855 432.611 616.764 432.714 616.641 432.775C616.561 432.787 616.478 432.787 616.397 432.775C616.321 432.768 616.247 432.746 616.181 432.71C616.115 432.674 616.058 432.626 616.016 432.568H615.939ZM437.687 430.859C437.644 430.811 437.612 430.756 437.592 430.697C437.572 430.638 437.566 430.576 437.573 430.514C437.58 430.453 437.601 430.393 437.633 430.339C437.666 430.285 437.71 430.237 437.764 430.198C437.872 430.122 438.009 430.087 438.145 430.1C438.282 430.113 438.407 430.173 438.496 430.267C438.591 430.358 438.643 430.479 438.643 430.604C438.643 430.73 438.591 430.85 438.496 430.942C438.399 431.007 438.281 431.04 438.16 431.038C438.083 431.041 438.006 431.026 437.936 430.995C437.867 430.964 437.808 430.917 437.764 430.859H437.687ZM548.2 430.653C548.085 430.585 548.004 430.479 547.976 430.357C547.947 430.236 547.973 430.109 548.048 430.005C548.125 429.9 548.246 429.827 548.383 429.801C548.52 429.775 548.662 429.799 548.78 429.867C548.892 429.937 548.971 430.043 548.999 430.164C549.027 430.284 549.004 430.41 548.933 430.515C548.886 430.583 548.821 430.638 548.743 430.677C548.666 430.716 548.579 430.736 548.49 430.735C548.414 430.72 548.341 430.692 548.277 430.653H548.2ZM620.472 430.308C620.436 430.255 620.412 430.196 620.402 430.134C620.392 430.073 620.396 430.01 620.413 429.95C620.43 429.889 620.46 429.833 620.502 429.783C620.543 429.733 620.595 429.692 620.655 429.66C620.775 429.599 620.917 429.582 621.05 429.613C621.184 429.644 621.299 429.72 621.372 429.826C621.44 429.934 621.459 430.062 621.425 430.183C621.391 430.304 621.306 430.408 621.189 430.473C621.104 430.515 621.01 430.539 620.914 430.542C620.838 430.531 620.765 430.503 620.702 430.463C620.638 430.422 620.586 430.369 620.548 430.308H620.472ZM543.882 428.048C543.768 427.976 543.69 427.866 543.664 427.743C543.639 427.619 543.667 427.491 543.744 427.387C543.827 427.287 543.948 427.218 544.084 427.195C544.22 427.172 544.36 427.196 544.477 427.263C544.588 427.337 544.663 427.447 544.689 427.569C544.714 427.692 544.688 427.818 544.614 427.924C544.565 427.988 544.498 428.041 544.421 428.077C544.344 428.113 544.258 428.131 544.172 428.131C544.095 428.118 544.022 428.09 543.958 428.048H543.882ZM624.897 427.883C624.827 427.774 624.805 427.645 624.836 427.522C624.867 427.399 624.949 427.292 625.065 427.221C625.123 427.189 625.188 427.166 625.255 427.156C625.323 427.146 625.392 427.148 625.458 427.162C625.525 427.176 625.588 427.202 625.644 427.238C625.699 427.275 625.746 427.32 625.782 427.373C625.818 427.425 625.843 427.484 625.854 427.545C625.865 427.606 625.863 427.668 625.848 427.728C625.832 427.789 625.803 427.845 625.763 427.896C625.723 427.946 625.673 427.988 625.614 428.021C625.536 428.076 625.439 428.105 625.34 428.103C625.265 428.091 625.194 428.066 625.131 428.028C625.068 427.99 625.014 427.94 624.973 427.883H624.897ZM441.777 427.883C441.684 427.793 441.632 427.675 441.632 427.552C441.632 427.429 441.684 427.311 441.777 427.221C441.879 427.136 442.012 427.089 442.151 427.089C442.29 427.089 442.423 427.136 442.525 427.221C442.622 427.309 442.676 427.428 442.676 427.552C442.676 427.676 442.622 427.795 442.525 427.883C442.48 427.921 442.427 427.95 442.369 427.969C442.312 427.988 442.25 427.996 442.189 427.993C442.118 428.005 442.044 428.004 441.974 427.99C441.903 427.976 441.836 427.949 441.777 427.91V427.883ZM629.322 425.292C629.244 425.189 629.213 425.063 629.235 424.939C629.258 424.816 629.333 424.705 629.445 424.631C629.501 424.594 629.566 424.569 629.633 424.555C629.701 424.542 629.771 424.541 629.84 424.553C629.908 424.564 629.973 424.588 630.031 424.623C630.089 424.658 630.139 424.702 630.177 424.755C630.253 424.857 630.282 424.983 630.256 425.104C630.23 425.225 630.152 425.333 630.04 425.402C629.954 425.455 629.853 425.483 629.75 425.485C629.669 425.489 629.589 425.477 629.514 425.448C629.44 425.419 629.375 425.375 629.322 425.32V425.292ZM539.67 425.402C539.612 425.369 539.563 425.326 539.525 425.274C539.487 425.223 539.46 425.166 539.447 425.105C539.434 425.045 539.435 424.982 539.45 424.922C539.465 424.862 539.493 424.805 539.533 424.755C539.608 424.651 539.725 424.578 539.86 424.552C539.994 424.526 540.134 424.549 540.25 424.617C540.308 424.652 540.357 424.696 540.396 424.749C540.434 424.801 540.461 424.86 540.474 424.921C540.486 424.983 540.485 425.046 540.471 425.108C540.456 425.169 540.427 425.227 540.387 425.278C540.342 425.343 540.279 425.397 540.204 425.433C540.129 425.469 540.045 425.487 539.96 425.485C539.859 425.492 539.759 425.473 539.67 425.43V425.402ZM445.76 424.879C445.71 424.836 445.67 424.785 445.643 424.728C445.616 424.671 445.602 424.61 445.602 424.548C445.602 424.486 445.616 424.425 445.643 424.368C445.67 424.311 445.71 424.26 445.76 424.217C445.859 424.133 445.99 424.086 446.126 424.086C446.262 424.086 446.393 424.133 446.492 424.217C446.589 424.305 446.644 424.424 446.644 424.548C446.644 424.672 446.589 424.791 446.492 424.879C446.4 424.952 446.28 424.992 446.157 424.989C446.088 425.002 446.017 425.001 445.948 424.987C445.88 424.973 445.816 424.945 445.76 424.906V424.879ZM535.367 422.812C535.308 422.78 535.257 422.737 535.217 422.686C535.178 422.636 535.15 422.578 535.135 422.518C535.121 422.457 535.121 422.394 535.134 422.334C535.148 422.273 535.175 422.215 535.214 422.164C535.25 422.111 535.297 422.065 535.353 422.029C535.409 421.993 535.472 421.968 535.54 421.955C535.607 421.942 535.676 421.942 535.744 421.954C535.811 421.966 535.875 421.991 535.931 422.026C536.047 422.094 536.127 422.2 536.156 422.322C536.185 422.443 536.159 422.57 536.084 422.674C536.039 422.739 535.976 422.792 535.901 422.829C535.826 422.865 535.742 422.883 535.657 422.881C535.557 422.894 535.456 422.88 535.367 422.839V422.812ZM633.565 422.591C633.523 422.543 633.493 422.487 633.476 422.428C633.459 422.369 633.456 422.307 633.466 422.247C633.476 422.187 633.499 422.128 633.534 422.076C633.57 422.024 633.616 421.979 633.672 421.944C633.784 421.871 633.923 421.841 634.059 421.859C634.196 421.877 634.319 421.942 634.404 422.04C634.483 422.143 634.514 422.27 634.491 422.393C634.468 422.517 634.393 422.627 634.282 422.702C634.191 422.756 634.085 422.784 633.977 422.784C633.898 422.79 633.819 422.778 633.747 422.749C633.676 422.72 633.613 422.675 633.565 422.619V422.591ZM449.743 421.889C449.646 421.801 449.591 421.682 449.591 421.558C449.591 421.434 449.646 421.315 449.743 421.227C449.851 421.151 449.988 421.116 450.124 421.129C450.261 421.142 450.386 421.202 450.475 421.296C450.519 421.344 450.551 421.399 450.571 421.458C450.59 421.517 450.597 421.58 450.59 421.641C450.583 421.703 450.562 421.762 450.529 421.816C450.497 421.871 450.452 421.919 450.399 421.957C450.354 421.995 450.301 422.024 450.243 422.043C450.186 422.062 450.125 422.071 450.063 422.068C449.939 422.055 449.825 422.001 449.743 421.916V421.889ZM531.048 420.29C530.99 420.258 530.939 420.215 530.899 420.165C530.859 420.115 530.83 420.058 530.815 419.998C530.799 419.938 530.797 419.875 530.808 419.814C530.819 419.753 530.844 419.695 530.88 419.642C530.916 419.59 530.963 419.544 531.019 419.508C531.074 419.472 531.137 419.446 531.204 419.432C531.271 419.418 531.34 419.416 531.407 419.426C531.475 419.436 531.539 419.458 531.597 419.491C531.656 419.523 531.706 419.566 531.746 419.616C531.786 419.666 531.815 419.723 531.831 419.783C531.846 419.843 531.849 419.906 531.837 419.967C531.826 420.028 531.802 420.086 531.765 420.138C531.719 420.208 531.655 420.266 531.577 420.307C531.5 420.348 531.412 420.37 531.323 420.373C531.224 420.373 531.127 420.344 531.048 420.29ZM637.746 419.794C637.704 419.745 637.672 419.689 637.654 419.63C637.635 419.57 637.63 419.507 637.639 419.446C637.647 419.384 637.669 419.325 637.703 419.271C637.737 419.217 637.783 419.17 637.838 419.133C637.891 419.094 637.953 419.066 638.019 419.049C638.086 419.033 638.155 419.028 638.223 419.036C638.291 419.043 638.357 419.063 638.416 419.094C638.476 419.125 638.528 419.166 638.57 419.215C638.648 419.316 638.683 419.44 638.666 419.562C638.649 419.684 638.582 419.796 638.478 419.877C638.392 419.94 638.284 419.974 638.173 419.973C638.089 419.984 638.003 419.975 637.923 419.949C637.844 419.922 637.772 419.879 637.715 419.821L637.746 419.794ZM453.832 418.995C453.752 418.893 453.718 418.768 453.738 418.645C453.758 418.521 453.83 418.41 453.939 418.333C454.052 418.261 454.19 418.23 454.327 418.248C454.464 418.266 454.587 418.331 454.672 418.43C454.752 418.531 454.786 418.657 454.766 418.78C454.746 418.903 454.674 419.015 454.565 419.091C454.476 419.149 454.37 419.183 454.26 419.188C454.174 419.195 454.088 419.184 454.008 419.156C453.929 419.127 453.858 419.081 453.802 419.022L453.832 418.995ZM526.607 417.906C526.548 417.875 526.496 417.833 526.454 417.783C526.413 417.734 526.382 417.677 526.365 417.617C526.348 417.557 526.345 417.494 526.355 417.432C526.365 417.371 526.389 417.312 526.424 417.258C526.457 417.205 526.502 417.158 526.556 417.121C526.609 417.084 526.671 417.056 526.736 417.041C526.802 417.026 526.87 417.022 526.937 417.031C527.004 417.04 527.068 417.061 527.126 417.093C527.187 417.122 527.24 417.161 527.283 417.209C527.326 417.257 527.357 417.312 527.376 417.372C527.394 417.431 527.399 417.493 527.391 417.554C527.382 417.615 527.359 417.674 527.325 417.727C527.279 417.801 527.213 417.863 527.133 417.906C527.052 417.95 526.961 417.974 526.867 417.975C526.768 417.982 526.669 417.968 526.577 417.934L526.607 417.906ZM641.79 416.873C641.747 416.825 641.714 416.77 641.695 416.71C641.675 416.651 641.668 416.589 641.676 416.528C641.683 416.466 641.703 416.406 641.736 416.352C641.769 416.298 641.813 416.25 641.866 416.211C641.919 416.172 641.98 416.143 642.046 416.125C642.111 416.107 642.18 416.101 642.248 416.108C642.316 416.114 642.382 416.133 642.443 416.162C642.503 416.192 642.556 416.232 642.599 416.28C642.692 416.37 642.744 416.488 642.744 416.611C642.744 416.734 642.692 416.852 642.599 416.941C642.501 417.008 642.385 417.046 642.263 417.052C642.172 417.07 642.077 417.065 641.988 417.039C641.899 417.012 641.82 416.964 641.759 416.9L641.79 416.873ZM458.044 416.266C458.004 416.215 457.976 416.157 457.961 416.096C457.946 416.034 457.945 415.971 457.958 415.909C457.971 415.848 457.997 415.789 458.035 415.737C458.074 415.684 458.124 415.639 458.182 415.605C458.299 415.537 458.442 415.513 458.579 415.539C458.716 415.564 458.836 415.638 458.914 415.743C458.989 415.847 459.015 415.974 458.986 416.095C458.958 416.216 458.877 416.323 458.761 416.39C458.677 416.444 458.575 416.473 458.471 416.473C458.385 416.479 458.298 416.466 458.218 416.435C458.138 416.403 458.068 416.355 458.014 416.294L458.044 416.266ZM522.136 415.688C522.015 415.629 521.924 415.529 521.884 415.41C521.844 415.292 521.858 415.163 521.923 415.054C521.953 414.998 521.996 414.949 522.048 414.908C522.1 414.868 522.16 414.837 522.226 414.818C522.291 414.799 522.36 414.791 522.428 414.796C522.497 414.801 522.564 414.818 522.625 414.847C522.744 414.911 522.834 415.012 522.876 415.131C522.918 415.251 522.91 415.38 522.853 415.495C522.804 415.569 522.735 415.63 522.652 415.674C522.57 415.717 522.476 415.741 522.38 415.743C522.268 415.77 522.149 415.76 522.045 415.715L522.136 415.688ZM645.742 413.855C645.645 413.767 645.591 413.648 645.591 413.524C645.591 413.4 645.645 413.281 645.742 413.193C645.841 413.109 645.972 413.062 646.108 413.062C646.245 413.062 646.376 413.109 646.475 413.193C646.568 413.283 646.62 413.401 646.62 413.524C646.62 413.647 646.568 413.765 646.475 413.855C646.431 413.894 646.378 413.926 646.321 413.947C646.263 413.968 646.201 413.979 646.139 413.979C646.067 413.99 645.993 413.987 645.922 413.97C645.85 413.954 645.784 413.924 645.727 413.882L645.742 413.855ZM462.378 413.8C462.343 413.746 462.32 413.686 462.311 413.624C462.302 413.561 462.307 413.498 462.326 413.438C462.344 413.378 462.376 413.321 462.419 413.272C462.462 413.223 462.516 413.182 462.576 413.152C462.696 413.092 462.837 413.078 462.968 413.111C463.1 413.145 463.211 413.224 463.278 413.331C463.313 413.385 463.336 413.445 463.345 413.507C463.354 413.569 463.349 413.632 463.331 413.693C463.312 413.753 463.281 413.81 463.237 413.859C463.194 413.908 463.141 413.949 463.08 413.979C462.995 413.996 462.906 413.996 462.821 413.979C462.736 413.984 462.652 413.97 462.575 413.939C462.498 413.908 462.43 413.86 462.378 413.8ZM517.39 413.717C517.328 413.692 517.272 413.656 517.226 413.611C517.179 413.566 517.142 413.513 517.118 413.455C517.094 413.398 517.083 413.337 517.085 413.275C517.087 413.214 517.103 413.153 517.131 413.097C517.159 413.041 517.199 412.99 517.249 412.948C517.298 412.906 517.357 412.873 517.421 412.851C517.484 412.829 517.552 412.819 517.62 412.821C517.688 412.823 517.755 412.837 517.818 412.863C517.881 412.886 517.939 412.922 517.986 412.966C518.034 413.011 518.072 413.064 518.096 413.122C518.12 413.18 518.131 413.242 518.128 413.304C518.125 413.366 518.107 413.427 518.077 413.483C518.036 413.565 517.969 413.635 517.886 413.683C517.802 413.732 517.704 413.758 517.604 413.758C517.536 413.756 517.468 413.742 517.406 413.717H517.39ZM512.644 412.022C512.579 412.002 512.518 411.97 512.467 411.929C512.416 411.887 512.374 411.836 512.346 411.779C512.317 411.722 512.302 411.66 512.301 411.598C512.299 411.535 512.313 411.473 512.339 411.416C512.39 411.301 512.489 411.208 512.614 411.156C512.739 411.105 512.881 411.099 513.011 411.14C513.138 411.186 513.241 411.275 513.298 411.388C513.355 411.501 513.361 411.629 513.316 411.746C513.28 411.837 513.214 411.915 513.126 411.97C513.039 412.024 512.934 412.052 512.828 412.05C512.765 412.054 512.702 412.045 512.644 412.022ZM466.956 411.636C466.903 411.522 466.901 411.395 466.949 411.28C466.997 411.164 467.093 411.07 467.215 411.016C467.278 410.989 467.347 410.973 467.417 410.97C467.486 410.967 467.556 410.976 467.622 410.998C467.687 411.02 467.747 411.054 467.798 411.097C467.849 411.14 467.889 411.192 467.917 411.25C467.945 411.307 467.96 411.369 467.961 411.431C467.962 411.493 467.949 411.555 467.924 411.612C467.898 411.67 467.86 411.723 467.812 411.767C467.764 411.811 467.706 411.846 467.643 411.87C467.572 411.885 467.499 411.885 467.429 411.87C467.334 411.874 467.24 411.854 467.156 411.813C467.073 411.772 467.004 411.711 466.956 411.636ZM507.746 410.52C507.614 410.482 507.503 410.399 507.437 410.288C507.372 410.177 507.357 410.048 507.395 409.927C507.437 409.808 507.529 409.708 507.652 409.649C507.774 409.59 507.918 409.576 508.051 409.611C508.184 409.649 508.294 409.732 508.36 409.843C508.425 409.953 508.441 410.082 508.402 410.203C508.367 410.299 508.3 410.382 508.209 410.442C508.119 410.501 508.01 410.533 507.899 410.534H507.746V410.52ZM471.748 409.872C471.726 409.814 471.718 409.751 471.723 409.69C471.729 409.628 471.748 409.568 471.779 409.513C471.81 409.458 471.853 409.409 471.905 409.369C471.958 409.329 472.018 409.299 472.083 409.28C472.149 409.261 472.217 409.253 472.286 409.258C472.354 409.263 472.42 409.28 472.481 409.308C472.542 409.336 472.597 409.375 472.641 409.422C472.685 409.469 472.719 409.524 472.74 409.583C472.761 409.642 472.769 409.704 472.764 409.765C472.759 409.827 472.74 409.887 472.708 409.942C472.677 409.997 472.634 410.046 472.582 410.086C472.53 410.126 472.469 410.157 472.404 410.176H472.236C472.133 410.173 472.032 410.143 471.948 410.089C471.864 410.035 471.799 409.96 471.763 409.872H471.748ZM502.771 409.376C502.638 409.35 502.522 409.277 502.448 409.174C502.374 409.071 502.347 408.946 502.374 408.825C502.387 408.763 502.413 408.704 502.452 408.652C502.491 408.6 502.542 408.556 502.6 408.522C502.659 408.488 502.725 408.466 502.794 408.457C502.863 408.447 502.933 408.451 503 408.467C503.067 408.478 503.131 408.502 503.187 408.536C503.244 408.57 503.292 408.614 503.329 408.666C503.366 408.717 503.391 408.775 503.403 408.836C503.415 408.896 503.413 408.958 503.397 409.018C503.372 409.125 503.307 409.221 503.212 409.289C503.117 409.356 502.999 409.392 502.878 409.39H502.771V409.376ZM476.707 408.591C476.692 408.529 476.69 408.465 476.703 408.403C476.715 408.341 476.741 408.282 476.78 408.229C476.818 408.176 476.868 408.131 476.926 408.096C476.985 408.061 477.05 408.037 477.119 408.026C477.253 408.001 477.392 408.025 477.506 408.092C477.62 408.159 477.7 408.264 477.73 408.384C477.745 408.445 477.747 408.508 477.736 408.569C477.724 408.63 477.7 408.689 477.663 408.742C477.626 408.794 477.577 408.84 477.521 408.875C477.464 408.911 477.4 408.936 477.333 408.949H477.226C477.11 408.947 476.999 408.91 476.908 408.846C476.817 408.781 476.752 408.692 476.722 408.591H476.707ZM497.72 408.591C497.584 408.57 497.461 408.503 497.379 408.403C497.296 408.303 497.26 408.177 497.278 408.053C497.285 407.992 497.306 407.933 497.34 407.879C497.373 407.826 497.419 407.779 497.473 407.741C497.527 407.704 497.589 407.677 497.655 407.662C497.721 407.647 497.79 407.644 497.858 407.654C497.994 407.674 498.116 407.742 498.199 407.842C498.282 407.942 498.318 408.067 498.3 408.191C498.279 408.302 498.215 408.403 498.12 408.475C498.026 408.548 497.906 408.589 497.781 408.591H497.705H497.72ZM481.804 407.805C481.791 407.683 481.832 407.561 481.918 407.466C482.003 407.371 482.127 407.309 482.262 407.295C482.33 407.286 482.4 407.289 482.467 407.305C482.535 407.321 482.597 407.349 482.652 407.388C482.706 407.427 482.751 407.475 482.784 407.53C482.817 407.586 482.836 407.646 482.842 407.709C482.855 407.835 482.812 407.96 482.724 408.058C482.635 408.156 482.508 408.219 482.369 408.233C482.232 408.236 482.099 408.193 481.997 408.111C481.894 408.029 481.831 407.915 481.819 407.792L481.804 407.805ZM492.608 408.109C492.539 408.107 492.471 408.093 492.409 408.066C492.346 408.04 492.291 408.003 492.245 407.956C492.199 407.91 492.164 407.855 492.143 407.796C492.121 407.737 492.113 407.674 492.12 407.612C492.124 407.551 492.141 407.491 492.171 407.435C492.2 407.38 492.242 407.33 492.293 407.289C492.344 407.248 492.404 407.217 492.468 407.196C492.533 407.176 492.601 407.168 492.669 407.171C492.808 407.182 492.937 407.241 493.028 407.337C493.12 407.432 493.166 407.556 493.157 407.681C493.15 407.801 493.092 407.913 492.995 407.995C492.899 408.077 492.771 408.123 492.639 408.122L492.608 408.109ZM486.962 407.502C486.96 407.44 486.972 407.378 486.997 407.321C487.022 407.263 487.061 407.211 487.109 407.167C487.158 407.123 487.216 407.088 487.28 407.065C487.344 407.043 487.412 407.032 487.481 407.034C487.618 407.034 487.75 407.083 487.848 407.171C487.945 407.259 488 407.378 488 407.502C488 407.626 487.945 407.746 487.848 407.833C487.75 407.921 487.618 407.971 487.481 407.971C487.413 407.969 487.346 407.955 487.283 407.93C487.221 407.905 487.165 407.869 487.118 407.824C487.072 407.779 487.035 407.726 487.011 407.669C486.987 407.611 486.975 407.55 486.977 407.488L486.962 407.502Z" fill="white"/>
<path d="M384.934 439.582C384.868 439.595 384.801 439.595 384.735 439.582C384.67 439.558 384.612 439.52 384.567 439.472C384.515 439.433 384.477 439.38 384.461 439.32C384.445 439.261 384.445 439.2 384.461 439.141C384.465 439.018 384.52 438.9 384.613 438.81C384.659 438.766 384.717 438.733 384.781 438.714C384.843 438.687 384.911 438.673 384.979 438.673C385.048 438.673 385.116 438.687 385.178 438.714C385.244 438.729 385.302 438.763 385.346 438.81C385.395 438.853 385.433 438.905 385.459 438.962C385.486 439.018 385.499 439.079 385.498 439.141C385.514 439.2 385.514 439.261 385.498 439.32C385.475 439.381 385.433 439.434 385.376 439.472C385.331 439.52 385.273 439.558 385.208 439.582C385.119 439.609 385.023 439.609 384.934 439.582Z" fill="white"/>
</g>
<path d="M468.604 298.489L465.049 295.016C458.627 300.501 450.142 303.583 441.304 303.642C434.291 303.742 427.462 301.61 422.016 297.618C416.569 293.627 412.852 288.033 411.516 281.815L406.175 283.083L401.292 284.24C402.679 290.75 406.057 296.779 411.043 301.644C426.532 316.719 453.985 316.719 471.87 301.644L468.604 298.489Z" fill="white"/>
<path d="M476.219 246.731L471.534 250.658L468.314 253.414C471.157 256.2 473.329 259.487 474.695 263.068C476.06 266.649 476.59 270.447 476.249 274.222C475.557 282.19 471.556 289.627 465.049 295.044L467.841 297.8L471.87 301.713C480.452 294.557 485.728 284.739 486.641 274.222C487.097 269.238 486.406 264.224 484.612 259.493C482.819 254.762 479.961 250.417 476.219 246.731Z" fill="#263238"/>
<path d="M476.219 246.731C460.73 231.669 433.277 231.669 415.408 246.731C409.752 251.406 405.497 257.296 403.037 263.853C400.577 270.411 399.993 277.424 401.338 284.24L407.442 282.862L411.623 281.87C411.089 279.36 410.925 276.798 411.135 274.25C411.876 266.301 415.863 258.885 422.321 253.443C428.78 248 437.248 244.921 446.08 244.802C450.268 244.76 454.419 245.506 458.27 246.991C462.122 248.476 465.589 250.668 468.452 253.428L472.572 249.942L476.219 246.731Z" fill="#407BFF"/>
<path d="M520.061 298.489L524.166 295.016C521.332 292.23 519.168 288.944 517.81 285.365C516.452 281.786 515.93 277.992 516.276 274.222C516.902 267.599 519.777 261.312 524.507 256.219C529.237 251.126 535.593 247.476 542.707 245.766L541.669 241.026L540.738 236.699C533.228 238.507 526.33 241.962 520.656 246.759C502.771 261.82 500.818 286.61 516.292 301.686L520.061 298.489Z" fill="white"/>
<path d="M577.118 301.658L573.074 297.717L570.297 294.961C563.879 300.452 555.393 303.54 546.552 303.601C542.362 303.643 538.209 302.897 534.355 301.412C530.501 299.927 527.031 297.735 524.166 294.975L520.946 297.731L516.292 301.658C520.077 305.288 524.653 308.172 529.732 310.128C534.811 312.085 540.283 313.071 545.805 313.027C557.456 312.937 568.64 308.876 577.118 301.658Z" fill="#263238"/>
<path d="M577.118 301.658C594.987 286.583 596.956 261.792 581.482 246.731C576.341 241.874 569.833 238.371 562.655 236.599C555.477 234.827 547.901 234.852 540.738 236.672L541.898 242.032L542.707 245.739C545.486 245.08 548.348 244.747 551.222 244.747C555.419 244.691 559.582 245.432 563.442 246.923C567.301 248.413 570.771 250.619 573.626 253.399C576.48 256.178 578.656 259.468 580.012 263.055C581.368 266.642 581.874 270.447 581.498 274.222C580.801 282.185 576.801 289.616 570.297 295.03L573.868 298.516L577.118 301.658Z" fill="#407BFF"/>
<path opacity="0.3" d="M649.191 238.821C649.61 238.82 650.026 238.897 650.41 239.048C650.795 239.198 651.142 239.419 651.428 239.695C651.715 239.972 651.935 240.299 652.075 240.656C652.215 241.013 652.272 241.392 652.243 241.77L650.351 265.541C650.262 266.381 649.836 267.163 649.153 267.739C648.47 268.315 647.577 268.646 646.643 268.669H620.304C619.883 268.67 619.466 268.592 619.08 268.441C618.694 268.29 618.347 268.068 618.061 267.79C617.774 267.512 617.554 267.183 617.415 266.824C617.276 266.466 617.22 266.085 617.252 265.706L619.129 241.935C619.218 241.097 619.645 240.316 620.328 239.743C621.011 239.169 621.904 238.841 622.837 238.821H649.16M649.16 237.595H622.867C621.592 237.617 620.371 238.065 619.439 238.851C618.507 239.636 617.929 240.706 617.816 241.853L615.939 265.623C615.888 266.167 615.964 266.715 616.16 267.231C616.357 267.748 616.671 268.221 617.081 268.622C617.492 269.022 617.991 269.341 618.546 269.558C619.1 269.775 619.699 269.885 620.304 269.881H646.627C647.903 269.862 649.126 269.415 650.059 268.629C650.992 267.843 651.569 266.772 651.678 265.623L653.571 241.853C653.622 241.308 653.546 240.759 653.348 240.242C653.151 239.724 652.836 239.25 652.424 238.849C652.011 238.448 651.511 238.13 650.954 237.914C650.397 237.698 649.797 237.589 649.191 237.595H649.16Z" fill="#407BFF"/>
<path opacity="0.3" d="M645.941 279.734C646.36 279.733 646.775 279.81 647.16 279.961C647.545 280.111 647.891 280.331 648.178 280.608C648.464 280.885 648.684 281.212 648.825 281.569C648.965 281.926 649.022 282.305 648.993 282.683L647.116 306.453C647.023 307.292 646.596 308.073 645.914 308.648C645.232 309.224 644.341 309.556 643.407 309.582H617.069C616.648 309.583 616.231 309.505 615.845 309.354C615.459 309.203 615.112 308.981 614.825 308.703C614.539 308.424 614.319 308.096 614.18 307.737C614.041 307.378 613.985 306.998 614.017 306.619L615.909 282.848C615.998 282.009 616.425 281.229 617.108 280.655C617.792 280.082 618.684 279.754 619.617 279.734H645.925M645.925 278.508H619.632C618.356 278.527 617.133 278.973 616.201 279.76C615.268 280.546 614.691 281.617 614.581 282.766L612.689 306.536C612.638 307.081 612.714 307.63 612.911 308.147C613.109 308.665 613.424 309.139 613.836 309.54C614.248 309.941 614.749 310.259 615.306 310.475C615.862 310.691 616.463 310.8 617.069 310.794H643.392C644.667 310.771 645.888 310.324 646.82 309.538C647.753 308.752 648.331 307.683 648.443 306.536L650.32 282.766C650.371 282.22 650.296 281.672 650.098 281.154C649.901 280.637 649.586 280.163 649.173 279.762C648.761 279.361 648.26 279.042 647.704 278.826C647.147 278.61 646.546 278.502 645.941 278.508H645.925Z" fill="#407BFF"/>
<path d="M607.348 411.237C607.702 411.228 608.053 411.288 608.379 411.412C608.705 411.535 608.999 411.72 609.24 411.953C609.48 412.19 609.662 412.469 609.775 412.772C609.888 413.076 609.929 413.398 609.896 413.717C609.829 414.433 609.47 415.1 608.89 415.591C608.309 416.082 607.548 416.362 606.753 416.376C606.398 416.386 606.045 416.327 605.718 416.203C605.39 416.08 605.096 415.894 604.855 415.659C604.613 415.424 604.43 415.145 604.318 414.841C604.206 414.537 604.167 414.215 604.204 413.896C604.269 413.179 604.626 412.51 605.208 412.018C605.789 411.527 606.552 411.248 607.348 411.237ZM607.348 410.024C606.215 410.04 605.13 410.436 604.301 411.133C603.473 411.83 602.96 412.781 602.862 413.8C602.812 414.285 602.877 414.774 603.051 415.236C603.225 415.697 603.504 416.121 603.871 416.478C604.238 416.836 604.685 417.119 605.181 417.311C605.677 417.502 606.213 417.597 606.753 417.589C607.888 417.572 608.975 417.175 609.804 416.475C610.633 415.775 611.145 414.821 611.239 413.8C611.286 413.315 611.22 412.827 611.045 412.368C610.87 411.908 610.59 411.486 610.224 411.13C609.857 410.774 609.411 410.492 608.916 410.301C608.421 410.111 607.886 410.016 607.348 410.024Z" fill="#407BFF"/>
<path d="M607.745 410.038L607.073 409.996L607.18 408.784L607.836 408.825L607.745 410.038Z" fill="#407BFF"/>
<path d="M608.035 406.345H607.363L607.562 403.864H608.233L608.035 406.345ZM608.431 401.356H607.76L607.958 398.876H608.63L608.431 401.356ZM608.828 396.382H608.157L608.355 393.888H609.027L608.828 396.382ZM609.225 391.407H608.554L608.752 388.913H609.423L609.225 391.407ZM609.622 386.433H608.95L609.149 383.938H609.82L609.622 386.433ZM610.019 381.458H609.347L609.545 378.964H610.217L610.019 381.458ZM610.415 376.47H609.744L609.942 373.989H610.614L610.415 376.47ZM610.812 371.495H610.141L610.339 369.001H611.01L610.812 371.495ZM611.209 366.52H610.537L610.736 364.026H611.407L611.209 366.52ZM611.59 361.546H610.919L611.117 359.052H611.789L611.59 361.546ZM611.987 356.571H611.316L611.514 354.077H612.185L611.987 356.571Z" fill="#407BFF"/>
<path d="M611.791 350.335L611.696 351.545L612.366 351.588L612.461 350.378L611.791 350.335Z" fill="#407BFF"/>
<path d="M640.584 351.018H398.958C398.296 351.024 397.64 350.904 397.033 350.667C396.426 350.429 395.881 350.079 395.432 349.64C394.98 349.2 394.634 348.68 394.416 348.114C394.198 347.547 394.112 346.945 394.166 346.346L395.371 331.326C395.485 330.098 396.101 328.951 397.1 328.111C398.099 327.27 399.408 326.795 400.773 326.779H642.446C643.106 326.775 643.76 326.895 644.366 327.132C644.971 327.368 645.516 327.716 645.965 328.152C646.414 328.589 646.758 329.105 646.975 329.668C647.191 330.231 647.275 330.829 647.222 331.423L646.032 346.443C645.922 347.682 645.301 348.839 644.293 349.686C643.284 350.533 641.961 351.008 640.584 351.018ZM400.773 328.102C399.774 328.116 398.816 328.465 398.085 329.081C397.355 329.697 396.904 330.537 396.821 331.437L395.631 346.457C395.592 346.874 395.649 347.294 395.799 347.69C395.949 348.086 396.188 348.449 396.501 348.758C396.816 349.059 397.197 349.298 397.62 349.46C398.043 349.621 398.498 349.701 398.958 349.695H640.584C641.585 349.684 642.545 349.336 643.276 348.719C644.007 348.102 644.457 347.261 644.537 346.36L645.742 331.34C645.778 330.929 645.719 330.515 645.57 330.125C645.421 329.735 645.184 329.377 644.875 329.073C644.566 328.769 644.19 328.526 643.773 328.359C643.355 328.192 642.903 328.104 642.446 328.102H400.773Z" fill="#407BFF"/>
<path opacity="0.8" fill-rule="evenodd" clip-rule="evenodd" d="M635.396 336.48H406.343C406.051 336.483 405.762 336.431 405.494 336.326C405.226 336.222 404.985 336.069 404.786 335.875C404.588 335.682 404.436 335.453 404.342 335.203C404.247 334.954 404.212 334.689 404.237 334.427C404.294 333.877 404.572 333.365 405.02 332.989C405.467 332.613 406.052 332.399 406.664 332.387H635.732C636.022 332.384 636.309 332.436 636.575 332.54C636.842 332.643 637.081 332.796 637.278 332.988C637.475 333.18 637.625 333.408 637.719 333.655C637.813 333.903 637.848 334.166 637.822 334.427C637.773 334.98 637.497 335.497 637.048 335.877C636.6 336.256 636.011 336.472 635.396 336.48Z" fill="white"/>
<path opacity="0.8" fill-rule="evenodd" clip-rule="evenodd" d="M597.231 345.093H405.657C405.367 345.095 405.079 345.044 404.813 344.94C404.547 344.837 404.307 344.684 404.11 344.492C403.913 344.3 403.763 344.072 403.669 343.824C403.576 343.577 403.54 343.314 403.566 343.053C403.615 342.5 403.891 341.983 404.34 341.603C404.788 341.223 405.378 341.008 405.992 341H597.551C597.855 340.988 598.159 341.036 598.44 341.14C598.722 341.245 598.974 341.404 599.181 341.606C599.387 341.808 599.542 342.049 599.635 342.31C599.728 342.572 599.756 342.849 599.718 343.122C599.643 343.669 599.348 344.172 598.89 344.535C598.431 344.898 597.841 345.097 597.231 345.093Z" fill="white"/>
</svg>
