<svg width="693" height="656" viewBox="0 0 693 656" fill="none" xmlns="http://www.w3.org/2000/svg">
<path d="M693 501.709H0V502.037H693V501.709Z" fill="#E6E6E6"/>
<path d="M649.202 513.281H623.187V513.609H649.202V513.281Z" fill="#E6E6E6"/>
<path d="M529.119 522.281H517.075V522.609H529.119V522.281Z" fill="#E6E6E6"/>
<path d="M414.857 517.755H388.024V518.083H414.857V517.755Z" fill="#E6E6E6"/>
<path d="M172.03 517.584H112.169V517.912H172.03V517.584Z" fill="#E6E6E6"/>
<path d="M99.8337 517.584H91.0603V517.912H99.8337V517.584Z" fill="#E6E6E6"/>
<path d="M392.21 509.817H262.37V510.145H392.21V509.817Z" fill="#E6E6E6"/>
<path d="M328.482 443.194H60.8592C58.7626 443.19 56.7532 442.399 55.2721 440.995C53.7909 439.59 52.959 437.687 52.959 435.702V79.5859C52.9772 77.6127 53.8172 75.726 55.2964 74.3356C56.7756 72.9452 58.7746 72.1634 60.8592 72.16H328.482C330.581 72.16 332.594 72.9493 334.078 74.3542C335.562 75.7592 336.396 77.6646 336.396 79.6515V435.702C336.396 437.689 335.562 439.594 334.078 440.999C332.594 442.404 330.581 443.194 328.482 443.194ZM60.8592 72.4224C58.8545 72.4259 56.9333 73.1821 55.5171 74.5252C54.1009 75.8682 53.3055 77.6883 53.3055 79.5859V435.702C53.3055 437.6 54.1009 439.42 55.5171 440.763C56.9333 442.106 58.8545 442.862 60.8592 442.866H328.482C330.488 442.862 332.411 442.106 333.829 440.764C335.247 439.421 336.046 437.601 336.049 435.702V79.5859C336.046 77.6871 335.247 75.867 333.829 74.5244C332.411 73.1817 330.488 72.4259 328.482 72.4224H60.8592Z" fill="#E6E6E6"/>
<path d="M628.288 443.194H360.651C358.553 443.19 356.542 442.4 355.059 440.996C353.576 439.591 352.741 437.688 352.737 435.702V79.5859C352.759 77.6115 353.602 75.7248 355.083 74.3348C356.565 72.9447 358.565 72.1633 360.651 72.16H628.288C630.37 72.1668 632.365 72.9502 633.842 74.3402C635.318 75.7302 636.156 77.615 636.174 79.5859V435.702C636.174 437.684 635.344 439.586 633.866 440.99C632.388 442.394 630.382 443.187 628.288 443.194ZM360.651 72.4224C358.645 72.4259 356.722 73.1817 355.304 74.5244C353.886 75.867 353.087 77.6871 353.084 79.5859V435.702C353.087 437.601 353.886 439.421 355.304 440.764C356.722 442.106 358.645 442.862 360.651 442.866H628.288C630.294 442.862 632.216 442.106 633.635 440.764C635.053 439.421 635.852 437.601 635.855 435.702V79.5859C635.852 77.6871 635.053 75.867 633.635 74.5244C632.216 73.1817 630.294 72.4259 628.288 72.4224H360.651Z" fill="#E6E6E6"/>
<path d="M361.691 96.6682H81.3721V285.767H361.691V96.6682Z" fill="#FAFAFA"/>
<path d="M366.874 96.6682H83.7976V285.767H366.874V96.6682Z" fill="#F5F5F5"/>
<path d="M359.612 278.039V104.383L91.0602 104.383V278.039H359.612Z" fill="#FAFAFA"/>
<path d="M139.958 278.039L182.564 104.383H238.42L195.814 278.039H139.958Z" fill="white"/>
<path d="M204.851 278.039L247.47 104.383H272.696L230.076 278.039H204.851Z" fill="white"/>
<path d="M359.612 278.039V104.383H358.683V278.039H359.612Z" fill="#FAFAFA"/>
<path d="M75.925 96.3533V171.295H96.8675C96.8675 171.295 134.442 148.059 143.049 100.263C143.258 99.1183 143.199 97.9443 142.876 96.8234C142.554 95.7026 141.976 94.6622 141.184 93.7755C140.391 92.8888 139.402 92.1773 138.288 91.691C137.174 91.2048 135.96 90.9556 134.733 90.961H81.6215C80.1107 90.961 78.6618 91.5291 77.5935 92.5403C76.5252 93.5516 75.925 94.9232 75.925 96.3533Z" fill="#E0E0E0"/>
<path d="M75.925 308.897V177.343H96.8675C96.8675 177.343 139.376 254.817 144.296 308.897H75.925Z" fill="#E0E0E0"/>
<path d="M96.2577 171.295H76.6873C75.5315 171.295 74.5945 172.182 74.5945 173.276V175.362C74.5945 176.456 75.5315 177.343 76.6873 177.343H96.2577C97.4135 177.343 98.3505 176.456 98.3505 175.362V173.276C98.3505 172.182 97.4135 171.295 96.2577 171.295Z" fill="#F5F5F5"/>
<path d="M372.834 96.3533V171.295H351.85C351.85 171.295 314.22 148.059 305.668 100.263C305.462 99.1187 305.523 97.9455 305.846 96.8256C306.17 95.7058 306.748 94.6664 307.54 93.7802C308.332 92.894 309.319 92.1825 310.433 91.6956C311.546 91.2086 312.758 90.9578 313.984 90.961H367.151C368.659 90.9679 370.102 91.5386 371.166 92.5488C372.231 93.5589 372.83 94.9265 372.834 96.3533Z" fill="#E0E0E0"/>
<path d="M372.834 308.897V177.343H351.85C351.85 177.343 309.355 254.817 304.421 308.897H372.834Z" fill="#E0E0E0"/>
<path d="M352.46 177.33H372.03C373.186 177.33 374.123 176.443 374.123 175.349V173.263C374.123 172.169 373.186 171.282 372.03 171.282H352.46C351.304 171.282 350.367 172.169 350.367 173.263V175.349C350.367 176.443 351.304 177.33 352.46 177.33Z" fill="#F5F5F5"/>
<path d="M366.5 332.802H320.443V501.709H366.5V332.802Z" fill="#FAFAFA"/>
<path d="M354.206 501.709H366.5V482.199H341.316L354.206 501.709Z" fill="#F4F8FF"/>
<path d="M146.154 332.802H100.097V501.709H146.154V332.802Z" fill="#E0E0E0"/>
<path d="M366.5 332.802H135.426V494.991H366.5V332.802Z" fill="#FAFAFA"/>
<path d="M204.851 304.122C204.851 319.866 220.873 332.802 240.471 332.802H258.156C277.741 332.802 293.763 319.892 293.763 304.122H204.851Z" fill="#EBEBEB"/>
<path d="M194.594 268.081H227.858C227.858 268.081 222.079 282.513 222.079 291.015C222.079 299.516 247.387 332.802 211.226 332.802C175.066 332.802 200.374 299.503 200.374 291.015C200.374 282.526 194.594 268.081 194.594 268.081Z" fill="#E0E0E0"/>
<path d="M356.964 342.681H144.962V383.576H356.964V342.681Z" fill="#EBEBEB"/>
<path d="M147.72 501.709H135.426V482.199H160.624L147.72 501.709Z" fill="#FAFAFA"/>
<path d="M244.449 363.122C244.449 364.342 244.831 365.534 245.547 366.548C246.262 367.562 247.28 368.353 248.47 368.819C249.66 369.286 250.97 369.408 252.234 369.17C253.497 368.932 254.658 368.345 255.569 367.483C256.48 366.62 257.101 365.521 257.352 364.325C257.603 363.129 257.474 361.889 256.981 360.762C256.488 359.636 255.653 358.673 254.582 357.995C253.511 357.317 252.251 356.956 250.963 356.956C249.235 356.956 247.578 357.605 246.357 358.762C245.135 359.918 244.449 361.487 244.449 363.122Z" fill="#FAFAFA"/>
<path d="M356.964 393.456H144.962V434.351H356.964V393.456Z" fill="#EBEBEB"/>
<path d="M244.449 413.897C244.449 415.116 244.831 416.308 245.547 417.323C246.262 418.337 247.28 419.127 248.47 419.594C249.66 420.06 250.97 420.182 252.234 419.945C253.497 419.707 254.658 419.119 255.569 418.257C256.48 417.395 257.101 416.296 257.352 415.1C257.603 413.903 257.474 412.664 256.981 411.537C256.488 410.41 255.653 409.447 254.582 408.769C253.511 408.092 252.251 407.73 250.963 407.73C249.235 407.73 247.578 408.38 246.357 409.536C245.135 410.693 244.449 412.261 244.449 413.897Z" fill="#FAFAFA"/>
<path d="M356.964 444.217H144.962V485.112H356.964V444.217Z" fill="#EBEBEB"/>
<path d="M250.963 470.837C254.561 470.837 257.477 468.077 257.477 464.671C257.477 461.265 254.561 458.505 250.963 458.505C247.365 458.505 244.449 461.265 244.449 464.671C244.449 468.077 247.365 470.837 250.963 470.837Z" fill="#FAFAFA"/>
<path d="M512.654 94.3853H409.771V163.711H512.654V94.3853Z" fill="#E0E0E0"/>
<path d="M521.053 94.3853H415.62V163.711H521.053V94.3853Z" fill="#F5F5F5"/>
<path d="M514.331 157.348V100.748H422.342V157.348H514.331Z" fill="white"/>
<path d="M498.142 140.856V117.227H438.53V140.856H498.142Z" fill="#F5F5F5"/>
<path d="M596.118 129.048H533.499V191.211H596.118V129.048Z" fill="#E0E0E0"/>
<path d="M604.545 129.048H539.362V191.211H604.545V129.048Z" fill="#F5F5F5"/>
<path d="M597.823 184.848V135.412H546.084V184.848H597.823Z" fill="white"/>
<path d="M562.272 160.13C562.272 157.947 563.188 155.853 564.817 154.308C566.446 152.763 568.657 151.894 570.963 151.89H572.931C575.237 151.894 577.447 152.763 579.077 154.308C580.706 155.853 581.621 157.947 581.621 160.13C581.621 162.311 580.705 164.404 579.076 165.946C577.446 167.489 575.236 168.356 572.931 168.356H571.032C569.885 168.365 568.747 168.158 567.685 167.749C566.623 167.339 565.657 166.734 564.842 165.97C564.028 165.205 563.382 164.295 562.941 163.293C562.499 162.291 562.272 161.215 562.272 160.13Z" fill="#F5F5F5"/>
<path d="M693 212.347H527.65H497.588V248.519H467.525V284.691H437.463V320.863H407.401V357.035H377.338V393.193H347.276V429.365H317.214V465.537H287.151V501.709H317.214H693V212.347Z" fill="#FAFAFA"/>
<path d="M455.412 465.537H284.061V476.387H455.412V465.537Z" fill="#EBEBEB"/>
<path d="M485.474 429.365H314.123V440.215H485.474V429.365Z" fill="#EBEBEB"/>
<path d="M515.536 393.193H344.185V404.044H515.536V393.193Z" fill="#EBEBEB"/>
<path d="M545.599 357.021H374.248V367.872H545.599V357.021Z" fill="#EBEBEB"/>
<path d="M575.661 320.863H404.31V331.713H575.661V320.863Z" fill="#EBEBEB"/>
<path d="M605.723 284.691H434.372V295.541H605.723V284.691Z" fill="#EBEBEB"/>
<path d="M635.786 248.519H464.435V259.369H635.786V248.519Z" fill="#EBEBEB"/>
<path d="M665.848 212.347H494.497V223.197H665.848V212.347Z" fill="#EBEBEB"/>
<path d="M662.938 212.347V248.519H632.875V284.691H602.813V320.863H572.751V357.035H542.688V393.193H512.626V429.365H482.564V465.537H452.501V501.709H482.564H693V248.519V212.347H662.938Z" fill="white"/>
<path d="M346.5 560.959C494.916 560.959 615.232 554.309 615.232 546.107C615.232 537.904 494.916 531.255 346.5 531.255C198.084 531.255 77.7686 537.904 77.7686 546.107C77.7686 554.309 198.084 560.959 346.5 560.959Z" fill="#F5F5F5"/>
<path d="M506.098 212.544C508.038 218.697 518.045 230.217 518.835 238.6C519.625 246.984 502.564 260.393 502.564 260.393C502.564 260.393 489.812 220.036 497.796 215.325C505.779 210.615 506.098 212.544 506.098 212.544Z" fill="#263238"/>
<path d="M471.06 256.142C468.038 258.53 465.072 260.537 461.982 262.597C458.891 264.657 455.703 266.533 452.46 268.291C449.205 270.114 445.851 271.774 442.411 273.263C440.665 274.011 438.932 274.746 437.131 275.389C436.244 275.73 435.343 276.058 434.428 276.347L431.656 277.265C429.286 277.892 426.806 278.062 424.366 277.764C422.325 277.538 420.305 277.169 418.323 276.661C414.626 275.693 411.009 274.474 407.498 273.014C400.682 270.197 394.107 266.885 387.831 263.108L390.422 258.543C393.693 259.855 397.047 261.167 400.374 262.308C403.7 263.45 407.054 264.657 410.408 265.641C413.678 266.655 417.011 267.479 420.388 268.107C421.938 268.394 423.508 268.574 425.086 268.645C426.263 268.731 427.446 268.616 428.579 268.304C431.741 267.159 434.832 265.845 437.837 264.368C439.376 263.607 440.901 262.833 442.397 261.993C443.894 261.154 445.419 260.34 446.902 259.474C449.882 257.729 452.792 255.879 455.675 253.977C458.558 252.075 461.427 250.041 463.991 248.112L471.06 256.142Z" fill="#E58A7B"/>
<path d="M478.378 242.169C474.94 239.624 460.72 247.955 456.41 251.432L459.556 269.445C459.556 269.445 479.999 261.337 481.219 255.801C482.508 250.015 480.942 244.111 478.378 242.169Z" fill="#407BFF"/>
<path opacity="0.2" d="M478.378 242.169C474.94 239.624 460.72 247.955 456.41 251.432L459.556 269.445C459.556 269.445 479.999 261.337 481.219 255.801C482.508 250.015 480.942 244.111 478.378 242.169Z" fill="black"/>
<path d="M526.209 296.683L483.049 304.646C460.748 247.483 465.599 245.606 465.599 245.606C468.735 243.975 471.976 242.529 475.301 241.277L475.883 241.067C478.655 240.109 479.209 239.965 482.896 238.941C489.244 237.511 495.162 236.317 502.494 235.333L503.88 235.15C505.266 234.992 506.528 234.861 507.803 234.743C508.662 234.651 509.521 234.599 510.339 234.546L513.111 234.402C517.851 234.179 521.247 234.244 521.247 234.244C519.93 269.944 522.065 280.191 526.209 296.683Z" fill="#407BFF"/>
<path opacity="0.2" d="M526.209 296.683L483.049 304.646C460.748 247.483 465.599 245.606 465.599 245.606C468.735 243.975 471.976 242.529 475.301 241.277L475.883 241.067C478.655 240.109 479.209 239.965 482.896 238.941C489.244 237.511 495.162 236.317 502.494 235.333L503.88 235.15C505.266 234.992 506.528 234.861 507.803 234.743C508.662 234.651 509.521 234.599 510.339 234.546L513.111 234.402C517.851 234.179 521.247 234.244 521.247 234.244C519.93 269.944 522.065 280.191 526.209 296.683Z" fill="black"/>
<path d="M492.404 216.651C489.632 220.993 499.681 223.001 505.627 218.553C510.381 214.984 509.258 206.745 505.183 204.829C501.108 202.914 492.404 216.651 492.404 216.651Z" fill="#407BFF"/>
<path opacity="0.4" d="M492.404 216.651C489.632 220.993 499.681 223.001 505.627 218.553C510.381 214.984 509.258 206.745 505.183 204.829C501.108 202.914 492.404 216.651 492.404 216.651Z" fill="black"/>
<path d="M534.414 533.289L523.617 534.05L519.667 510.525L530.464 509.765L534.414 533.289Z" fill="#E58A7B"/>
<path d="M610.783 500.41L601.621 505.868L585.308 487.552L594.469 482.081L610.783 500.41Z" fill="#E58A7B"/>
<path d="M519.667 510.525L521.857 523.593L532.501 521.9L530.478 509.778L519.667 510.525Z" fill="#CF6F64"/>
<path d="M594.483 482.094L585.308 487.552L592.072 495.136L601.441 489.901L594.483 482.094Z" fill="#CF6F64"/>
<path d="M483.714 304.646C483.714 304.646 483.562 385.754 490.561 416.298C497.851 448.074 519.293 520.365 519.293 520.365L534.844 518.463C534.844 518.463 522.688 445.437 517.505 413.857C511.864 379.444 515.329 298.821 515.329 298.821L483.714 304.646Z" fill="#407BFF"/>
<path opacity="0.7" d="M483.714 304.646C483.714 304.646 483.562 385.754 490.561 416.298C497.851 448.074 519.293 520.365 519.293 520.365L534.844 518.463C534.844 518.463 522.688 445.437 517.505 413.857C511.864 379.444 515.329 298.821 515.329 298.821L483.714 304.646Z" fill="black"/>
<path opacity="0.5" d="M514.358 334.77L506.735 327.58C507.026 358.74 508.87 374.13 515.204 390.897C514.206 373.172 514.123 352.206 514.358 334.77Z" fill="black"/>
<path d="M494.442 302.547C494.442 302.547 517.685 369.577 529.216 408.189C541.385 448.927 588.038 493.981 588.038 493.981L601.427 486.66C601.427 486.66 569.549 443.889 557.823 405.88C533.984 328.722 543.783 312.374 526.195 296.683L494.442 302.547Z" fill="#407BFF"/>
<path opacity="0.7" d="M494.442 302.547C494.442 302.547 517.685 369.577 529.216 408.189C541.385 448.927 588.038 493.981 588.038 493.981L601.427 486.66C601.427 486.66 569.549 443.889 557.823 405.88C533.984 328.722 543.783 312.374 526.195 296.683L494.442 302.547Z" fill="black"/>
<path d="M476.174 192.982C482.356 194.937 487.969 209.461 488.205 215.181C488.44 220.901 470.298 228.787 470.298 228.787C470.298 228.787 462.3 210.419 464.532 198.611C465.502 193.481 476.174 192.982 476.174 192.982Z" fill="#263238"/>
<path d="M391.337 259.028L384.005 251.471L381.607 260.944C381.607 260.944 386.819 265.3 391.032 263.804L391.337 259.028Z" fill="#E58A7B"/>
<path d="M376.576 249.306L371.448 253.164L381.607 260.944L384.005 251.471L376.576 249.306Z" fill="#E58A7B"/>
<path d="M598.752 503.913L607.317 495.739C607.465 495.599 607.662 495.515 607.87 495.5C608.079 495.486 608.286 495.543 608.454 495.66L616.257 501.145C616.45 501.288 616.609 501.469 616.723 501.675C616.837 501.88 616.903 502.107 616.918 502.339C616.932 502.571 616.894 502.803 616.807 503.02C616.719 503.237 616.584 503.434 616.41 503.598C613.36 506.393 611.753 507.6 607.983 511.195C605.668 513.412 602.522 516.862 599.32 519.919C596.119 522.976 592.751 520.129 593.776 518.607C598.447 511.693 597.615 509.108 597.934 505.592C597.982 504.957 598.273 504.36 598.752 503.913Z" fill="#263238"/>
<path d="M522.896 532.58H535.065C535.279 532.58 535.487 532.651 535.651 532.78C535.816 532.909 535.927 533.089 535.966 533.289L537.879 542.394C537.922 542.618 537.912 542.848 537.85 543.068C537.788 543.288 537.676 543.492 537.521 543.666C537.366 543.841 537.172 543.98 536.954 544.076C536.736 544.171 536.498 544.219 536.257 544.218C532.002 544.152 529.951 543.916 524.601 543.916C521.316 543.916 514.525 544.231 509.979 544.231C505.433 544.231 504.948 539.98 506.819 539.599C515.135 537.868 518.392 535.493 521.122 533.21C521.617 532.809 522.245 532.586 522.896 532.58Z" fill="#263238"/>
<g style="mix-blend-mode:multiply" opacity="0.27">
<path d="M522.647 254.935L515.994 258.687L523.672 286.016C521.995 277.737 522.744 268.645 522.647 254.935Z" fill="#407BFF"/>
</g>
<path d="M484.837 212.268C489.563 216.008 496.424 221.452 504.504 215.089C511.434 209.605 516.285 195.212 503.853 194.688C497.352 194.412 484.837 212.268 484.837 212.268Z" fill="#263238"/>
<path d="M496.257 214.827C496.257 221.02 497.269 232.185 502.494 235.36C502.494 235.36 502.023 241.736 490.298 243.888C477.422 246.262 482.896 238.968 482.896 238.968C489.605 236.081 488.44 231.174 486.223 226.766L496.257 214.827Z" fill="#E58A7B"/>
<path d="M492.169 219.694L486.237 226.766C486.756 227.788 487.183 228.85 487.512 229.941C490.117 229.075 493.236 225.612 492.973 222.896C492.916 221.791 492.643 220.705 492.169 219.694Z" fill="#CF6F64"/>
<path d="M496.881 200.605C498.267 210.694 499.112 214.932 494.844 221.033C488.426 230.217 475.038 229.626 470.478 220.14C466.32 211.599 464.767 196.524 474.248 190.686C476.332 189.38 478.735 188.6 481.228 188.422C483.721 188.243 486.22 188.671 488.489 189.665C490.758 190.659 492.72 192.186 494.189 194.101C495.658 196.016 496.584 198.255 496.881 200.605Z" fill="#E58A7B"/>
<path d="M478.364 182.932C471.157 187.773 485.613 189.204 485.627 196.223C485.627 199.122 490.658 208.319 497.81 207.795L504.74 196.144C512.03 184.992 494.802 171.872 478.364 182.932Z" fill="#263238"/>
<path d="M478.364 182.932C465.682 182.302 460.152 191.854 461.607 200.434C470.454 198.346 479.606 197.659 488.69 198.401C506.07 200.08 478.364 182.932 478.364 182.932Z" fill="#263238"/>
<path d="M500.346 209.303C500.522 211.262 499.869 213.206 498.53 214.709C496.742 216.69 494.372 215.522 493.541 213.174C492.834 211.048 492.917 207.467 495.329 206.338C495.861 206.105 496.447 206.001 497.033 206.036C497.619 206.07 498.186 206.243 498.684 206.537C499.182 206.831 499.595 207.238 499.885 207.721C500.175 208.204 500.333 208.748 500.346 209.303Z" fill="#E58A7B"/>
<path d="M481.483 206.338C481.649 207.152 481.33 207.886 480.776 207.991C480.221 208.096 479.625 207.519 479.459 206.679C479.293 205.84 479.611 205.118 480.166 205.013C480.72 204.908 481.316 205.525 481.483 206.338Z" fill="#263238"/>
<path d="M471.794 208.123C471.961 208.936 471.642 209.684 471.088 209.789C470.533 209.894 469.937 209.316 469.771 208.477C469.605 207.637 469.923 206.916 470.478 206.824C471.032 206.732 471.628 207.296 471.794 208.123Z" fill="#263238"/>
<path d="M470.741 206.837L468.565 206.666C468.565 206.666 469.937 207.991 470.741 206.837Z" fill="#263238"/>
<path d="M474.65 209.054C474.26 211.042 473.589 212.97 472.654 214.788C473.151 215.007 473.692 215.12 474.241 215.12C474.789 215.12 475.331 215.007 475.828 214.788L474.65 209.054Z" fill="#DF5753"/>
<path d="M479.445 217.412C479.386 217.412 479.328 217.393 479.282 217.357C479.236 217.321 479.206 217.27 479.196 217.215C479.19 217.184 479.19 217.152 479.198 217.121C479.205 217.09 479.219 217.061 479.238 217.035C479.258 217.01 479.282 216.988 479.311 216.971C479.339 216.955 479.371 216.944 479.404 216.939C480.475 216.763 481.487 216.35 482.359 215.735C483.23 215.119 483.937 214.318 484.421 213.397C484.434 213.368 484.452 213.341 484.476 213.318C484.5 213.296 484.528 213.278 484.558 213.266C484.589 213.254 484.623 213.248 484.656 213.247C484.689 213.247 484.723 213.254 484.754 213.266C484.784 213.278 484.813 213.295 484.836 213.318C484.86 213.34 484.879 213.367 484.892 213.396C484.905 213.425 484.911 213.456 484.911 213.488C484.911 213.52 484.905 213.551 484.892 213.58C484.385 214.582 483.63 215.453 482.691 216.12C481.753 216.787 480.658 217.23 479.501 217.412H479.445Z" fill="#263238"/>
<path d="M483.714 202.848C483.587 202.85 483.464 202.808 483.367 202.73C482.901 202.311 482.337 202.002 481.72 201.828C481.103 201.655 480.452 201.622 479.819 201.733C479.68 201.766 479.532 201.745 479.408 201.675C479.285 201.605 479.196 201.491 479.161 201.359C479.126 201.227 479.148 201.087 479.222 200.97C479.296 200.853 479.416 200.769 479.556 200.736C480.355 200.587 481.18 200.62 481.964 200.832C482.747 201.044 483.465 201.43 484.061 201.956C484.155 202.047 484.208 202.17 484.208 202.297C484.208 202.425 484.155 202.548 484.061 202.638C484.022 202.695 483.971 202.743 483.911 202.779C483.851 202.815 483.784 202.839 483.714 202.848Z" fill="#263238"/>
<path d="M466.431 204.672C466.367 204.686 466.3 204.686 466.237 204.672C466.173 204.648 466.116 204.612 466.067 204.566C466.019 204.52 465.981 204.466 465.955 204.406C465.929 204.346 465.916 204.282 465.917 204.217C465.918 204.152 465.932 204.088 465.959 204.029C466.254 203.312 466.726 202.671 467.337 202.162C467.947 201.653 468.677 201.29 469.466 201.103C469.533 201.09 469.601 201.09 469.668 201.103C469.735 201.116 469.798 201.141 469.854 201.178C469.91 201.215 469.957 201.262 469.993 201.317C470.028 201.372 470.052 201.433 470.062 201.497C470.076 201.559 470.077 201.623 470.064 201.686C470.051 201.748 470.025 201.807 469.988 201.86C469.95 201.913 469.902 201.958 469.845 201.992C469.789 202.027 469.726 202.05 469.66 202.061C469.037 202.222 468.462 202.518 467.981 202.926C467.5 203.333 467.126 203.841 466.888 204.41C466.843 204.488 466.778 204.554 466.697 204.6C466.617 204.646 466.525 204.671 466.431 204.672Z" fill="#263238"/>
<path d="M595.537 508.676C595.299 508.67 595.066 508.609 594.859 508.5C594.651 508.39 594.475 508.234 594.345 508.046C594.246 507.935 594.18 507.801 594.153 507.658C594.127 507.516 594.14 507.369 594.192 507.232C594.677 505.999 598.503 505.212 598.932 505.12C598.982 505.112 599.034 505.117 599.08 505.136C599.127 505.154 599.167 505.185 599.196 505.225C599.225 505.263 599.241 505.309 599.241 505.356C599.241 505.403 599.225 505.449 599.196 505.487C598.447 506.655 596.978 508.61 595.606 508.676H595.537ZM598.433 505.724C596.923 506.091 594.927 506.747 594.677 507.403C594.653 507.463 594.648 507.529 594.662 507.592C594.677 507.655 594.711 507.712 594.76 507.757C594.846 507.892 594.968 508.004 595.114 508.08C595.261 508.156 595.425 508.194 595.592 508.19C596.327 508.151 597.366 507.245 598.433 505.724Z" fill="#407BFF"/>
<path d="M597.809 505.723C596.423 505.723 594.691 505.395 594.178 504.687C594.064 504.526 594.012 504.333 594.029 504.14C594.047 503.946 594.134 503.765 594.275 503.624C594.397 503.478 594.55 503.358 594.724 503.272C594.899 503.186 595.091 503.136 595.287 503.126H595.398C596.95 503.126 599.085 505.107 599.168 505.186C599.201 505.215 599.225 505.253 599.237 505.294C599.25 505.336 599.249 505.38 599.237 505.422C599.225 505.462 599.202 505.499 599.17 505.529C599.139 505.559 599.1 505.581 599.057 505.592C598.649 505.685 598.229 505.729 597.809 505.723ZM595.398 503.611H595.315C595.19 503.615 595.068 503.645 594.958 503.7C594.848 503.754 594.752 503.832 594.677 503.926C594.483 504.175 594.539 504.32 594.608 504.411C595.024 505.015 597.144 505.356 598.447 505.212C597.616 504.41 596.557 503.854 595.398 503.611Z" fill="#407BFF"/>
<path d="M518.918 534.378C517.986 534.456 517.054 534.234 516.271 533.748C516.086 533.611 515.941 533.433 515.849 533.228C515.757 533.024 515.721 532.801 515.744 532.58C515.744 532.448 515.779 532.319 515.847 532.204C515.915 532.089 516.013 531.992 516.133 531.924C517.408 531.216 521.871 533.315 522.37 533.551C522.417 533.575 522.455 533.611 522.48 533.655C522.504 533.7 522.514 533.75 522.508 533.8C522.502 533.85 522.48 533.896 522.445 533.933C522.41 533.971 522.365 533.998 522.314 534.01C521.197 534.232 520.06 534.355 518.918 534.378ZM516.867 532.252C516.704 532.242 516.541 532.274 516.396 532.344C516.349 532.367 516.311 532.404 516.286 532.448C516.261 532.493 516.251 532.543 516.257 532.593C516.243 532.741 516.268 532.89 516.328 533.027C516.388 533.164 516.483 533.286 516.604 533.381C517.297 533.945 519.085 534.037 521.441 533.669C520.01 532.959 518.464 532.48 516.867 532.252Z" fill="#407BFF"/>
<path d="M522.259 533.984H522.162C520.776 533.42 518.101 531.189 518.295 530.048C518.295 529.786 518.544 529.445 519.237 529.379H519.445C521.857 529.379 522.48 533.551 522.508 533.735C522.514 533.779 522.509 533.823 522.492 533.865C522.475 533.906 522.447 533.942 522.411 533.971C522.363 533.989 522.31 533.993 522.259 533.984ZM519.487 529.838H519.334C518.891 529.838 518.863 530.035 518.863 530.087C518.752 530.783 520.582 532.528 521.968 533.302C521.69 532.278 520.983 529.864 519.431 529.864L519.487 529.838Z" fill="#407BFF"/>
<path d="M480.429 205.052L478.253 204.869C478.253 204.869 479.625 206.207 480.429 205.052Z" fill="#263238"/>
<path d="M489.951 252.612C466.763 257.506 473.929 244.229 475.315 241.303L475.897 241.093C478.669 240.135 479.223 239.991 482.91 238.968C489.344 237.324 495.893 236.118 502.508 235.36L503.894 235.176C505.28 235.005 506.541 234.874 507.817 234.769C508.676 234.677 509.535 234.625 510.353 234.572L513.125 234.415C513.596 236.462 514.747 247.404 489.951 252.612Z" fill="#E58A7B"/>
<path d="M526.347 294.164L529.05 297.47C529.258 297.719 528.967 298.073 528.468 298.165L483.201 306.509C482.813 306.588 482.453 306.509 482.384 306.234L481.233 302.652C481.233 302.403 481.455 302.127 481.871 302.049L525.585 293.993C525.717 293.956 525.857 293.953 525.99 293.983C526.124 294.012 526.247 294.075 526.347 294.164Z" fill="#26395A"/>
<path d="M521.427 299.871L522.605 299.661C522.841 299.661 522.993 299.477 522.952 299.333L521.427 294.688C521.427 294.544 521.15 294.478 520.914 294.518L519.75 294.728C519.514 294.728 519.362 294.924 519.404 295.056L520.928 299.713C520.97 299.844 521.205 299.923 521.427 299.871Z" fill="#407BFF"/>
<path d="M494.913 315.352L485.89 312.177L487.276 320.299C487.276 320.299 493.818 322.529 497.158 319.669L494.913 315.352Z" fill="#E58A7B"/>
<path d="M477.297 314.329L475.148 319.656L487.276 320.299L485.89 312.177L477.297 314.329Z" fill="#E58A7B"/>
<path d="M486.569 306.3L487.747 306.09C487.969 306.09 488.135 305.906 488.08 305.762L486.555 301.117C486.555 300.973 486.292 300.907 486.056 300.947L484.878 301.156C484.643 301.156 484.49 301.353 484.546 301.484L486.07 306.142C486.112 306.273 486.334 306.352 486.569 306.3Z" fill="#407BFF"/>
<path d="M504.005 303.072L505.169 302.862C505.405 302.862 505.557 302.678 505.516 302.534L503.991 297.89C503.991 297.745 503.714 297.68 503.478 297.719L502.314 297.929C502.079 297.929 501.926 298.126 501.968 298.257L503.492 302.915C503.548 302.99 503.628 303.047 503.721 303.075C503.813 303.104 503.913 303.103 504.005 303.072Z" fill="#407BFF"/>
<path d="M499.071 230.151C500.055 229.797 501.288 233.077 500.983 233.497C500.277 234.454 487.331 237.8 486.749 235.924C486.713 234.907 486.878 233.892 487.234 232.932C487.609 232.303 490.478 233.457 499.071 230.151Z" fill="#407BFF"/>
<path d="M496.881 230.23C497.38 229.141 498.808 227.396 500.055 228.393C501.302 229.39 501.829 231.542 501.011 231.896C500.194 232.25 496.022 232.053 496.881 230.23Z" fill="#407BFF"/>
<path d="M499.528 230.794C500.388 229.928 502.3 228.734 503.173 230.072C504.047 231.411 503.728 233.602 502.841 233.667C501.954 233.733 498.073 232.224 499.528 230.794Z" fill="#407BFF"/>
<path d="M500 230.597C499.93 229.9 500.074 229.198 500.416 228.576C500.758 227.955 501.282 227.44 501.926 227.094C503.506 226.123 505.045 225.493 505.654 224.47C505.917 225.43 505.969 226.43 505.807 227.409C505.488 228.813 500.568 229.889 500.9 231.109L500 230.597Z" fill="#407BFF"/>
<path d="M499.792 230.532C499.332 229.981 499.052 229.316 498.983 228.618C498.914 227.919 499.06 227.217 499.403 226.596C500.152 224.969 501.094 223.657 501.039 222.502C501.809 223.173 502.427 223.986 502.855 224.89C503.381 226.202 499.875 229.652 500.859 230.518L499.792 230.532Z" fill="#407BFF"/>
<path d="M596.188 486.831C596.16 486.83 596.132 486.822 596.108 486.808C596.084 486.795 596.063 486.775 596.049 486.752C595.731 486.332 564.047 443.535 552.432 405.933C544.852 381.813 539.026 357.23 534.996 332.356C532.598 318.344 531.143 309.881 526.375 302.941C526.343 302.909 526.325 302.867 526.325 302.823C526.325 302.779 526.343 302.736 526.375 302.705C526.408 302.678 526.45 302.663 526.493 302.663C526.536 302.663 526.578 302.678 526.611 302.705C531.434 309.711 532.889 318.199 535.287 332.251C539.336 357.089 545.171 381.637 552.751 405.723C564.352 443.272 596.008 486.017 596.327 486.45C596.352 486.482 596.366 486.521 596.366 486.562C596.366 486.602 596.352 486.641 596.327 486.673C596.325 486.71 596.31 486.746 596.285 486.774C596.26 486.802 596.226 486.822 596.188 486.831Z" fill="#407BFF"/>
<path opacity="0.4" d="M596.188 486.831C596.16 486.83 596.132 486.822 596.108 486.808C596.084 486.795 596.063 486.775 596.049 486.752C595.731 486.332 564.047 443.535 552.432 405.933C544.852 381.813 539.026 357.23 534.996 332.356C532.598 318.344 531.143 309.881 526.375 302.941C526.343 302.909 526.325 302.867 526.325 302.823C526.325 302.779 526.343 302.736 526.375 302.705C526.408 302.678 526.45 302.663 526.493 302.663C526.536 302.663 526.578 302.678 526.611 302.705C531.434 309.711 532.889 318.199 535.287 332.251C539.336 357.089 545.171 381.637 552.751 405.723C564.352 443.272 596.008 486.017 596.327 486.45C596.352 486.482 596.366 486.521 596.366 486.562C596.366 486.602 596.352 486.641 596.327 486.673C596.325 486.71 596.31 486.746 596.285 486.774C596.26 486.802 596.226 486.822 596.188 486.831Z" fill="black"/>
<path d="M537.63 518.411L516.451 521.008L515.065 515.419L537.117 510.998L537.63 518.411Z" fill="#407BFF"/>
<path d="M602.55 486.214L586.929 494.755L581.663 490.491L598.752 479.549L602.55 486.214Z" fill="#407BFF"/>
<path d="M529.244 248.139C529.992 251.786 530.422 255.223 530.838 258.779C531.254 262.334 531.406 265.851 531.517 269.406C531.628 272.99 531.544 276.576 531.268 280.151C531.115 281.949 530.949 283.746 530.685 285.557C530.575 286.449 530.45 287.354 530.27 288.26L529.757 291.041C529.189 293.308 528.147 295.445 526.694 297.325C525.502 298.908 524.186 300.403 522.758 301.799C520.083 304.4 517.211 306.812 514.164 309.015C508.271 313.311 502.033 317.167 495.509 320.548L492.543 316.192C495.315 314.106 498.087 311.954 500.859 309.763C503.631 307.572 506.264 305.355 508.801 303.046C511.307 300.823 513.672 298.462 515.883 295.974C516.898 294.823 517.825 293.604 518.655 292.327C519.31 291.396 519.779 290.36 520.041 289.27C520.492 286.085 520.756 282.879 520.831 279.666C520.831 278.026 520.831 276.386 520.831 274.746C520.831 273.106 520.762 271.44 520.679 269.787C520.512 266.48 520.193 263.227 519.819 259.868C519.445 256.509 518.96 253.19 518.433 250.08L529.244 248.139Z" fill="#E58A7B"/>
<path d="M527.567 236.987C533.485 241.526 532.071 255.013 532.071 255.013L512.113 261.232C512.113 261.232 513.028 245.685 514.026 240.096C515.19 233.444 521.732 232.513 527.567 236.987Z" fill="#407BFF"/>
<path opacity="0.2" d="M527.567 236.987C533.485 241.526 532.071 255.013 532.071 255.013L512.113 261.232C512.113 261.232 513.028 245.685 514.026 240.096C515.19 233.444 521.732 232.513 527.567 236.987Z" fill="black"/>
<path d="M263.908 293.271C263.134 290.09 261.243 287.251 258.544 285.219C255.846 283.186 252.499 282.08 249.05 282.08H138.17C134.127 282.08 130.249 283.6 127.39 286.307C124.531 289.014 122.924 292.684 122.924 296.512V529.812C122.924 533.639 124.531 537.31 127.39 540.017C130.249 542.723 134.127 544.244 138.17 544.244H490.214C494.258 544.244 498.136 542.723 500.995 540.017C503.854 537.31 505.46 533.639 505.46 529.812V333.838C505.46 330.011 503.854 326.34 500.995 323.633C498.136 320.927 494.258 319.406 490.214 319.406H298.6C290.547 319.408 282.731 316.824 276.43 312.077C270.129 307.33 265.715 300.7 263.908 293.271Z" fill="#407BFF"/>
<path opacity="0.6" d="M263.908 293.271C263.134 290.09 261.243 287.251 258.544 285.219C255.846 283.186 252.499 282.08 249.05 282.08H138.17C134.127 282.08 130.249 283.6 127.39 286.307C124.531 289.014 122.924 292.684 122.924 296.512V529.812C122.924 533.639 124.531 537.31 127.39 540.017C130.249 542.723 134.127 544.244 138.17 544.244H490.214C494.258 544.244 498.136 542.723 500.995 540.017C503.854 537.31 505.46 533.639 505.46 529.812V333.838C505.46 330.011 503.854 326.34 500.995 323.633C498.136 320.927 494.258 319.406 490.214 319.406H298.6C290.547 319.408 282.731 316.824 276.43 312.077C270.129 307.33 265.715 300.7 263.908 293.271Z" fill="black"/>
<path opacity="0.22" d="M224.768 220.613L234.65 250.907C235.911 254.762 238.738 257.986 242.509 259.871C246.279 261.755 250.686 262.146 254.761 260.957L286.75 251.602L224.768 220.613Z" fill="#407BFF"/>
<path d="M224.768 220.613L110.423 254.056C108.404 254.643 106.528 255.601 104.9 256.875C103.273 258.149 101.928 259.714 100.94 261.481C99.953 263.248 99.3433 265.182 99.1463 267.172C98.9492 269.162 99.1686 271.17 99.7919 273.08L165.073 473.133C165.696 475.044 166.71 476.819 168.058 478.358C169.406 479.896 171.061 481.169 172.929 482.102C174.796 483.035 176.84 483.611 178.942 483.797C181.045 483.982 183.166 483.774 185.183 483.183L331.531 440.386C333.548 439.798 335.423 438.839 337.049 437.564C338.674 436.289 340.019 434.724 341.005 432.957C341.991 431.19 342.599 429.257 342.795 427.267C342.991 425.278 342.771 423.271 342.148 421.362L286.708 251.602L224.768 220.613Z" fill="#407BFF"/>
<path opacity="0.8" d="M224.768 220.613L110.423 254.056C108.404 254.643 106.528 255.601 104.9 256.875C103.273 258.149 101.928 259.714 100.94 261.481C99.953 263.248 99.3433 265.182 99.1463 267.172C98.9492 269.162 99.1686 271.17 99.7919 273.08L165.073 473.133C165.696 475.044 166.71 476.819 168.058 478.358C169.406 479.896 171.061 481.169 172.929 482.102C174.796 483.035 176.84 483.611 178.942 483.797C181.045 483.982 183.166 483.774 185.183 483.183L331.531 440.386C333.548 439.798 335.423 438.839 337.049 437.564C338.674 436.289 340.019 434.724 341.005 432.957C341.991 431.19 342.599 429.257 342.795 427.267C342.991 425.278 342.771 423.271 342.148 421.362L286.708 251.602L224.768 220.613Z" fill="white"/>
<g opacity="0.28">
<path d="M286.292 431.648L191.157 459.462C189.378 459.98 187.455 459.809 185.808 458.988C184.161 458.167 182.925 456.762 182.37 455.08C181.828 453.396 182.012 451.578 182.882 450.022C183.752 448.466 185.237 447.299 187.013 446.775L282.148 418.948C283.929 418.431 285.854 418.604 287.501 419.427C289.147 420.251 290.382 421.659 290.935 423.343C291.477 425.027 291.292 426.846 290.423 428.402C289.553 429.958 288.068 431.125 286.292 431.648Z" fill="#407BFF"/>
</g>
<g opacity="0.28">
<path d="M183.908 268.409L133.596 283.116C131.817 283.63 129.896 283.458 128.25 282.637C126.604 281.817 125.368 280.414 124.809 278.734C124.267 277.048 124.451 275.228 125.321 273.67C126.19 272.112 127.675 270.942 129.452 270.416L179.764 255.709C181.543 255.188 183.468 255.357 185.116 256.178C186.763 257 187.999 258.407 188.551 260.091C189.093 261.777 188.909 263.597 188.04 265.155C187.17 266.713 185.685 267.883 183.908 268.409Z" fill="#407BFF"/>
</g>
<g opacity="0.28">
<path d="M224.962 284.009L141.802 308.32C140.026 308.825 138.112 308.646 136.475 307.824C134.837 307.001 133.609 305.6 133.056 303.925C132.51 302.242 132.691 300.424 133.558 298.867C134.426 297.31 135.91 296.143 137.685 295.62L220.845 271.308C222.624 270.791 224.548 270.962 226.194 271.783C227.841 272.604 229.077 274.009 229.632 275.691C230.17 277.38 229.98 279.202 229.105 280.759C228.231 282.317 226.741 283.485 224.962 284.009Z" fill="#407BFF"/>
</g>
<g opacity="0.28">
<path d="M271.393 298.034L150.034 333.458C148.257 333.975 146.336 333.804 144.691 332.983C143.047 332.161 141.813 330.756 141.261 329.076C140.718 327.392 140.9 325.573 141.767 324.015C142.634 322.457 144.116 321.287 145.89 320.758L267.248 285.334C269.026 284.82 270.945 284.993 272.589 285.814C274.232 286.635 275.466 288.037 276.022 289.716C276.568 291.4 276.388 293.22 275.521 294.779C274.653 296.338 273.169 297.508 271.393 298.034Z" fill="#407BFF"/>
</g>
<g opacity="0.28">
<path d="M279.612 323.224L209.064 343.862C207.285 344.375 205.364 344.2 203.72 343.377C202.076 342.553 200.844 341.148 200.291 339.467C199.749 337.784 199.931 335.967 200.798 334.412C201.665 332.856 203.147 331.688 204.92 331.162L275.467 310.524C277.248 310.015 279.17 310.19 280.815 311.013C282.46 311.836 283.696 313.239 284.255 314.919C284.796 316.603 284.612 318.422 283.742 319.978C282.872 321.534 281.387 322.701 279.612 323.224Z" fill="#407BFF"/>
</g>
<g opacity="0.28">
<path d="M176.715 353.322L158.267 358.714C156.488 359.231 154.565 359.061 152.918 358.239C151.272 357.418 150.035 356.013 149.48 354.332C148.934 352.646 149.116 350.824 149.987 349.265C150.857 347.706 152.344 346.537 154.123 346.014L172.571 340.621C174.35 340.108 176.271 340.28 177.917 341.101C179.563 341.921 180.799 343.324 181.358 345.004C181.896 346.689 181.711 348.508 180.841 350.065C179.972 351.623 178.49 352.793 176.715 353.322Z" fill="#407BFF"/>
</g>
<g opacity="0.28">
<path d="M287.844 348.428L166.486 383.917C164.707 384.43 162.786 384.256 161.142 383.432C159.498 382.609 158.266 381.203 157.713 379.522C157.167 377.84 157.348 376.021 158.215 374.465C159.083 372.908 160.567 371.74 162.342 371.217L283.7 335.728C285.478 335.214 287.397 335.387 289.041 336.208C290.684 337.029 291.918 338.431 292.474 340.11C293.02 341.794 292.84 343.614 291.973 345.173C291.105 346.732 289.621 347.902 287.844 348.428Z" fill="#407BFF"/>
</g>
<g opacity="0.28">
<path d="M249.231 387.316L174.705 409.108C172.928 409.621 171.008 409.449 169.365 408.628C167.722 407.807 166.487 406.404 165.932 404.726C165.389 403.042 165.571 401.223 166.438 399.665C167.305 398.107 168.787 396.936 170.561 396.408L245.086 374.615C246.867 374.102 248.79 374.276 250.436 375.1C252.082 375.923 253.318 377.329 253.874 379.011C254.419 380.695 254.237 382.515 253.366 384.072C252.496 385.629 251.008 386.795 249.231 387.316Z" fill="#407BFF"/>
</g>
<g opacity="0.28">
<path d="M296.063 373.631L276.174 379.444C274.393 379.957 272.47 379.783 270.824 378.959C269.178 378.136 267.943 376.73 267.387 375.048C266.845 373.364 267.03 371.546 267.9 369.99C268.769 368.434 270.254 367.267 272.03 366.743L291.919 360.931C293.697 360.414 295.618 360.585 297.262 361.407C298.907 362.228 300.14 363.633 300.693 365.313C301.239 366.997 301.059 368.818 300.191 370.377C299.324 371.935 297.84 373.106 296.063 373.631Z" fill="#407BFF"/>
</g>
<g opacity="0.28">
<path d="M304.282 398.848L182.952 434.272C181.171 434.789 179.246 434.616 177.599 433.792C175.952 432.969 174.717 431.561 174.165 429.877C173.619 428.193 173.802 426.372 174.672 424.815C175.543 423.259 177.03 422.092 178.808 421.572L300.152 386.082C301.933 385.573 303.854 385.748 305.499 386.571C307.144 387.394 308.38 388.798 308.939 390.477C309.218 391.316 309.318 392.199 309.234 393.075C309.151 393.951 308.885 394.802 308.452 395.58C308.019 396.359 307.428 397.048 306.712 397.609C305.996 398.169 305.171 398.591 304.282 398.848Z" fill="#407BFF"/>
</g>
<path d="M306.888 145.383L343.173 221.925C344.115 223.923 344.184 226.193 343.363 228.238C342.542 230.284 340.899 231.938 338.794 232.841L184.865 298.244C182.754 299.139 180.355 299.205 178.193 298.428C176.031 297.651 174.283 296.094 173.333 294.098L137.034 217.556C136.084 215.557 136.011 213.282 136.833 211.233C137.654 209.183 139.302 207.526 141.413 206.627L295.343 141.224C297.457 140.332 299.858 140.269 302.022 141.049C304.185 141.828 305.935 143.386 306.888 145.383Z" fill="#407BFF"/>
<path opacity="0.3" d="M306.888 145.383L343.173 221.925C344.115 223.923 344.184 226.193 343.363 228.238C342.542 230.284 340.899 231.938 338.794 232.841L184.865 298.244C182.754 299.139 180.355 299.205 178.193 298.428C176.031 297.651 174.283 296.094 173.333 294.098L137.034 217.556C136.084 215.557 136.011 213.282 136.833 211.233C137.654 209.183 139.302 207.526 141.413 206.627L295.343 141.224C297.457 140.332 299.858 140.269 302.022 141.049C304.185 141.828 305.935 143.386 306.888 145.383Z" fill="black"/>
<path d="M282.628 141.6L277.709 143.689L278.276 144.886L283.196 142.798L282.628 141.6Z" fill="#407BFF"/>
<path d="M270.82 146.609L255.48 153.122L256.047 154.319L271.387 147.806L270.82 146.609Z" fill="#407BFF"/>
<path d="M136.897 225.27L135.633 225.807L139.834 234.664L141.098 234.127L136.897 225.27Z" fill="#407BFF"/>
<path opacity="0.6" d="M301.732 140.948L262.037 214.551C258.354 221.373 252.322 226.802 244.938 229.939C237.554 233.076 229.26 233.734 221.427 231.804L136.951 210.956C137.817 209.038 139.409 207.494 141.414 206.627L295.343 141.224C297.359 140.37 299.642 140.272 301.732 140.948Z" fill="#407BFF"/>
<path d="M356.299 235.15L236.853 242.13C234.743 242.248 232.678 242.76 230.777 243.635C228.876 244.51 227.176 245.731 225.774 247.229C224.372 248.726 223.296 250.471 222.607 252.363C221.918 254.255 221.63 256.257 221.76 258.254L235.384 467.229C235.511 469.228 236.054 471.184 236.981 472.983C237.908 474.783 239.201 476.393 240.786 477.719C242.371 479.045 244.216 480.062 246.217 480.711C248.218 481.361 250.335 481.63 252.446 481.504L405.322 472.569C407.43 472.449 409.492 471.936 411.39 471.06C413.288 470.184 414.985 468.962 416.383 467.464C417.781 465.966 418.854 464.222 419.538 462.331C420.223 460.44 420.507 458.44 420.374 456.445L408.87 279.102L356.299 235.15Z" fill="#407BFF"/>
<path opacity="0.8" d="M356.299 235.15L236.853 242.13C234.743 242.248 232.678 242.76 230.777 243.635C228.876 244.51 227.176 245.731 225.774 247.229C224.372 248.726 223.296 250.471 222.607 252.363C221.918 254.255 221.63 256.257 221.76 258.254L235.384 467.229C235.511 469.228 236.054 471.184 236.981 472.983C237.908 474.783 239.201 476.393 240.786 477.719C242.371 479.045 244.216 480.062 246.217 480.711C248.218 481.361 250.335 481.63 252.446 481.504L405.322 472.569C407.43 472.449 409.492 471.936 411.39 471.06C413.288 470.184 414.985 468.962 416.383 467.464C417.781 465.966 418.854 464.222 419.538 462.331C420.223 460.44 420.507 458.44 420.374 456.445L408.87 279.102L356.299 235.15Z" fill="white"/>
<g opacity="0.22">
<path d="M363.52 453.952L264.13 459.764C262.273 459.865 260.45 459.266 259.058 458.098C257.666 456.931 256.819 455.289 256.701 453.532C256.595 451.775 257.225 450.05 258.455 448.73C259.685 447.411 261.416 446.605 263.271 446.487L362.661 440.688C364.518 440.583 366.342 441.179 367.737 442.344C369.132 443.509 369.982 445.15 370.104 446.907C370.214 448.666 369.583 450.396 368.349 451.716C367.115 453.037 365.379 453.841 363.52 453.952Z" fill="#407BFF"/>
</g>
<g opacity="0.22">
<path d="M304.698 272.476L252.127 275.52C250.271 275.621 248.448 275.024 247.055 273.86C245.661 272.695 244.809 271.057 244.684 269.301C244.578 267.542 245.21 265.815 246.443 264.495C247.677 263.175 249.411 262.371 251.268 262.256L303.839 259.186C305.694 259.081 307.518 259.677 308.91 260.843C310.302 262.008 311.15 263.649 311.268 265.404C311.386 267.167 310.76 268.901 309.528 270.227C308.297 271.553 306.559 272.362 304.698 272.476Z" fill="#407BFF"/>
</g>
<g opacity="0.22">
<path d="M340.706 296.801L253.846 301.865C251.988 301.973 250.161 301.378 248.766 300.213C247.37 299.047 246.521 297.404 246.403 295.646C246.293 293.886 246.924 292.157 248.158 290.836C249.392 289.516 251.128 288.712 252.986 288.601L339.833 283.536C341.691 283.428 343.518 284.023 344.913 285.189C346.309 286.355 347.158 287.997 347.276 289.755C347.386 291.513 346.757 293.24 345.526 294.56C344.295 295.88 342.563 296.686 340.706 296.801Z" fill="#407BFF"/>
</g>
<g opacity="0.22">
<path d="M382.328 320.797L255.564 328.197C253.702 328.305 251.87 327.709 250.469 326.541C249.069 325.373 248.215 323.728 248.094 321.965C247.984 320.208 248.613 318.482 249.845 317.164C251.076 315.846 252.809 315.044 254.664 314.932L381.441 307.52C383.298 307.419 385.121 308.018 386.513 309.186C387.905 310.353 388.752 311.995 388.87 313.752C388.98 315.505 388.355 317.229 387.13 318.548C385.905 319.868 384.179 320.676 382.328 320.797Z" fill="#407BFF"/>
</g>
<g opacity="0.22">
<path d="M384.047 347.116L310.353 351.419C308.496 351.523 306.671 350.928 305.277 349.763C303.882 348.598 303.031 346.957 302.91 345.2C302.796 343.442 303.424 341.712 304.656 340.391C305.887 339.071 307.622 338.266 309.48 338.155L383.173 333.852C385.031 333.744 386.858 334.338 388.253 335.504C389.649 336.67 390.499 338.312 390.616 340.07C390.726 341.828 390.097 343.556 388.866 344.876C387.635 346.196 385.903 347.001 384.047 347.116Z" fill="#407BFF"/>
</g>
<g opacity="0.22">
<path d="M276.548 353.387L257.269 354.515C255.414 354.62 253.59 354.024 252.198 352.858C250.806 351.693 249.958 350.053 249.84 348.297C249.73 346.539 250.359 344.811 251.59 343.491C252.821 342.171 254.554 341.366 256.41 341.251L275.689 340.123C277.547 340.022 279.372 340.621 280.766 341.788C282.16 342.955 283.011 344.597 283.132 346.355C283.238 348.112 282.606 349.838 281.372 351.156C280.139 352.474 278.405 353.276 276.548 353.387Z" fill="#407BFF"/>
</g>
<g opacity="0.22">
<path d="M385.765 373.435L258.988 380.834C257.131 380.938 255.306 380.343 253.912 379.178C252.517 378.013 251.666 376.372 251.545 374.615C251.439 372.856 252.071 371.129 253.304 369.809C254.537 368.49 256.271 367.685 258.128 367.57L384.892 360.17C386.751 360.066 388.578 360.663 389.973 361.831C391.368 362.999 392.217 364.643 392.335 366.402C392.445 368.159 391.815 369.885 390.584 371.203C389.353 372.521 387.62 373.323 385.765 373.435Z" fill="#407BFF"/>
</g>
<g opacity="0.22">
<path d="M338.558 402.613L260.707 407.166C258.848 407.267 257.023 406.668 255.629 405.501C254.235 404.334 253.385 402.692 253.264 400.934C253.157 399.176 253.79 397.45 255.024 396.133C256.257 394.815 257.991 394.013 259.847 393.902L337.699 389.349C339.556 389.249 341.379 389.847 342.771 391.015C344.163 392.183 345.01 393.824 345.128 395.581C345.242 397.338 344.613 399.066 343.381 400.385C342.149 401.704 340.414 402.505 338.558 402.613Z" fill="#407BFF"/>
</g>
<g opacity="0.22">
<path d="M387.47 399.766L366.68 400.973C364.825 401.078 363.001 400.482 361.609 399.316C360.217 398.151 359.369 396.51 359.251 394.755C359.137 392.996 359.765 391.267 360.997 389.946C362.228 388.625 363.963 387.821 365.821 387.709L386.611 386.502C388.469 386.394 390.296 386.989 391.691 388.155C393.086 389.32 393.936 390.963 394.054 392.721C394.16 394.48 393.528 396.207 392.295 397.527C391.061 398.847 389.327 399.652 387.47 399.766Z" fill="#407BFF"/>
</g>
<g opacity="0.22">
<path d="M389.189 426.085L262.425 433.485C260.568 433.589 258.743 432.994 257.349 431.828C255.954 430.663 255.104 429.023 254.982 427.266C254.872 425.508 255.501 423.781 256.732 422.461C257.963 421.141 259.696 420.335 261.552 420.22L388.329 412.821C390.185 412.717 392.008 413.312 393.4 414.478C394.793 415.644 395.641 417.284 395.758 419.04C395.872 420.798 395.244 422.528 394.013 423.848C392.781 425.169 391.046 425.974 389.189 426.085Z" fill="#407BFF"/>
</g>
<path opacity="0.22" d="M356.299 235.15L358.364 266.795C358.493 268.79 359.036 270.742 359.962 272.539C360.888 274.335 362.178 275.942 363.76 277.266C365.342 278.59 367.184 279.607 369.181 280.257C371.177 280.908 373.29 281.179 375.398 281.057L408.87 279.102L356.299 235.15Z" fill="#407BFF"/>
<path opacity="0.5" d="M317.186 314.093C317.165 312.576 316.823 311.079 316.181 309.69C315.538 308.3 314.608 307.047 313.445 306.004C312.282 304.961 310.91 304.149 309.41 303.616C307.91 303.083 306.313 302.84 304.712 302.901H193.693C185.28 302.901 177.061 309.37 175.481 317.333L131.67 529.812C130.034 537.776 135.523 544.244 143.936 544.244H495.98C504.393 544.244 512.543 537.789 514.192 529.812L550.325 354.66C551.961 346.683 546.472 340.228 538.059 340.228H346.5C329.868 340.228 317.754 329.391 317.186 314.093Z" fill="#407BFF"/>
</svg>
