<svg width="653" height="549" viewBox="0 0 653 549" fill="none" xmlns="http://www.w3.org/2000/svg">
<g clip-path="url(#clip0_16_3)">
<path d="M71.7637 248.21C75.8941 206.392 91.0248 166.773 123.917 137.895C161.603 104.853 212.661 87.5282 261.513 91.091C270.219 91.7162 278.853 93.0454 287.336 95.0664C307.578 99.9086 326.85 108.183 344.374 119.556C373.932 138.864 396.875 165.457 416.214 195.212C424.805 208.42 432.4 224.524 445.993 233.027C460.093 241.895 478.222 239.432 494.17 239.126C524.063 238.553 569.22 232.527 593.371 254.791C625.066 284.067 625.017 331.26 602.385 362.583C579.754 393.907 536.226 385.744 524.957 411.287C513.687 436.83 481.273 470.89 433.097 454.714C384.922 438.539 376.966 390.229 342.552 395.472C330.446 397.318 319.752 403.58 308.63 408.484C293.136 415.339 277.334 418.71 260.539 417.914C236.525 416.78 212.105 408.224 189.269 401.372C163.059 393.499 134.257 387.467 110.863 371.499C85.7497 354.344 73.8656 327.398 71.4927 296.704C70.1646 280.588 70.2553 264.357 71.7637 248.21Z" fill="#92E3A9"/>
<path opacity="0.7" d="M71.7637 248.21C75.8941 206.392 91.0248 166.773 123.917 137.895C161.603 104.853 212.661 87.5282 261.513 91.091C270.219 91.7162 278.853 93.0454 287.336 95.0664C307.578 99.9086 326.85 108.183 344.374 119.556C373.932 138.864 396.875 165.457 416.214 195.212C424.805 208.42 432.4 224.524 445.993 233.027C460.093 241.895 478.222 239.432 494.17 239.126C524.063 238.553 569.22 232.527 593.371 254.791C625.066 284.067 625.017 331.26 602.385 362.583C579.754 393.907 536.226 385.744 524.957 411.287C513.687 436.83 481.273 470.89 433.097 454.714C384.922 438.539 376.966 390.229 342.552 395.472C330.446 397.318 319.752 403.58 308.63 408.484C293.136 415.339 277.334 418.71 260.539 417.914C236.525 416.78 212.105 408.224 189.269 401.372C163.059 393.499 134.257 387.467 110.863 371.499C85.7497 354.344 73.8656 327.398 71.4927 296.704C70.1646 280.588 70.2553 264.357 71.7637 248.21Z" fill="white"/>
<path d="M251.793 377.375L116.371 343.968C113.783 343.33 111.565 341.652 110.203 339.305C108.841 336.957 108.447 334.131 109.109 331.449L173.174 71.7451C173.835 69.063 175.498 66.7443 177.795 65.2991C180.093 63.8539 182.837 63.4006 185.425 64.0389L577.251 160.696C579.839 161.334 582.057 163.012 583.419 165.36C584.781 167.708 585.175 170.534 584.513 173.216L520.448 432.919C519.787 435.601 518.124 437.92 515.827 439.365C513.529 440.81 510.785 441.264 508.197 440.625L372.775 407.219" stroke="black" stroke-linecap="round" stroke-linejoin="round"/>
<path d="M182.241 75.2692L575.628 172.311L516.752 410.98L123.365 313.937L182.241 75.2692Z" stroke="black" stroke-linecap="round" stroke-linejoin="round"/>
<path d="M251.793 377.375L372.775 407.219L365.8 435.495L244.818 405.651L251.793 377.375Z" stroke="black" stroke-linecap="round" stroke-linejoin="round"/>
<path d="M244.818 405.651L223.743 400.452L221.081 411.245L384.212 451.487L386.874 440.694L365.8 435.495" stroke="black" stroke-linecap="round" stroke-linejoin="round"/>
<path d="M498.139 233.445L528.775 241.002L539.219 198.665L515.147 192.727L506.942 197.758L498.139 233.445Z" fill="white" stroke="#263238" stroke-linecap="round" stroke-linejoin="round"/>
<path d="M512.851 198.477L512.424 200.209L506.94 197.766L512.851 198.477Z" fill="#263238" stroke="#263238" stroke-linecap="round" stroke-linejoin="round"/>
<path d="M515.147 192.727L513.504 199.385L506.94 197.766L515.147 192.727Z" fill="white" stroke="#263238" stroke-linecap="round" stroke-linejoin="round"/>
<path d="M533.054 206.903L509.475 201.086" stroke="#263238" stroke-linecap="round" stroke-linejoin="round"/>
<path d="M531.562 212.955L507.982 207.138" stroke="#263238" stroke-linecap="round" stroke-linejoin="round"/>
<path d="M530.071 218.998L506.491 213.182" stroke="#263238" stroke-linecap="round" stroke-linejoin="round"/>
<path d="M528.578 225.05L504.998 219.233" stroke="#263238" stroke-linecap="round" stroke-linejoin="round"/>
<path d="M527.087 231.094L503.507 225.277" stroke="#263238" stroke-linecap="round" stroke-linejoin="round"/>
<path d="M572.031 305.951L561.057 303.243" stroke="#263238" stroke-linecap="round" stroke-linejoin="round"/>
<path d="M584.161 308.943L574.014 306.44" stroke="#263238" stroke-linecap="round" stroke-linejoin="round"/>
<path d="M564.417 307.883L560.171 306.836" stroke="#263238" stroke-linecap="round" stroke-linejoin="round"/>
<path d="M583.275 312.535L566.4 308.372" stroke="#263238" stroke-linecap="round" stroke-linejoin="round"/>
<path d="M560.955 310.84L559.285 310.428" stroke="#263238" stroke-linecap="round" stroke-linejoin="round"/>
<path d="M570.064 313.087L563.726 311.523" stroke="#263238" stroke-linecap="round" stroke-linejoin="round"/>
<path d="M582.389 316.127L571.844 313.526" stroke="#263238" stroke-linecap="round" stroke-linejoin="round"/>
<path d="M581.502 319.719L558.399 314.02" stroke="#263238" stroke-linecap="round" stroke-linejoin="round"/>
<path d="M561.361 318.561L557.513 317.612" stroke="#263238" stroke-linecap="round" stroke-linejoin="round"/>
<path d="M574.622 321.833L565.318 319.538" stroke="#263238" stroke-linecap="round" stroke-linejoin="round"/>
<path d="M580.616 323.311L577.393 322.516" stroke="#263238" stroke-linecap="round" stroke-linejoin="round"/>
<path d="M569.185 324.302L556.626 321.204" stroke="#263238" stroke-linecap="round" stroke-linejoin="round"/>
<path d="M579.73 326.904L571.363 324.839" stroke="#263238" stroke-linecap="round" stroke-linejoin="round"/>
<path d="M561.969 326.333L555.74 324.796" stroke="#263238" stroke-linecap="round" stroke-linejoin="round"/>
<path d="M568.104 327.846L563.749 326.772" stroke="#263238" stroke-linecap="round" stroke-linejoin="round"/>
<path d="M578.844 330.496L570.477 328.432" stroke="#263238" stroke-linecap="round" stroke-linejoin="round"/>
<path d="M489.771 336.88L515.037 343.113L523.651 308.195L503.802 303.298L497.034 307.439L489.771 336.88Z" fill="#92E3A9" stroke="#263238" stroke-linecap="round" stroke-linejoin="round"/>
<path d="M501.912 308.042L501.56 309.466L497.032 307.447L501.912 308.042Z" fill="#263238" stroke="#263238" stroke-linecap="round" stroke-linejoin="round"/>
<path d="M503.802 303.298L502.449 308.784L497.032 307.447L503.802 303.298Z" fill="white" stroke="#263238" stroke-linecap="round" stroke-linejoin="round"/>
<path d="M518.573 314.984L499.122 310.186" stroke="#263238" stroke-linecap="round" stroke-linejoin="round"/>
<path d="M517.342 319.976L497.891 315.178" stroke="#263238" stroke-linecap="round" stroke-linejoin="round"/>
<path d="M516.11 324.968L496.659 320.17" stroke="#263238" stroke-linecap="round" stroke-linejoin="round"/>
<path d="M514.881 329.951L495.43 325.153" stroke="#263238" stroke-linecap="round" stroke-linejoin="round"/>
<path d="M513.649 334.943L494.198 330.145" stroke="#263238" stroke-linecap="round" stroke-linejoin="round"/>
<path d="M539.899 247.901L570.535 255.458L580.979 213.121L556.907 207.183L548.704 212.206L539.899 247.901Z" fill="#92E3A9" stroke="#263238" stroke-linecap="round" stroke-linejoin="round"/>
<path d="M554.619 212.935L554.192 214.666L548.702 212.214L554.619 212.935Z" fill="#263238" stroke="#263238" stroke-linecap="round" stroke-linejoin="round"/>
<path d="M556.907 207.183L555.267 213.833L548.702 212.214L556.907 207.183Z" fill="white" stroke="#263238" stroke-linecap="round" stroke-linejoin="round"/>
<path d="M574.823 221.361L551.235 215.542" stroke="#263238" stroke-linecap="round" stroke-linejoin="round"/>
<path d="M573.332 227.404L549.744 221.586" stroke="#263238" stroke-linecap="round" stroke-linejoin="round"/>
<path d="M571.839 233.456L548.251 227.637" stroke="#263238" stroke-linecap="round" stroke-linejoin="round"/>
<path d="M570.346 239.508L546.758 233.689" stroke="#263238" stroke-linecap="round" stroke-linejoin="round"/>
<path d="M568.855 245.551L545.267 239.732" stroke="#263238" stroke-linecap="round" stroke-linejoin="round"/>
<path d="M469.51 251.084L500.146 258.641L510.592 216.296L486.52 210.358L478.315 215.389L469.51 251.084Z" fill="#92E3A9" stroke="#263238" stroke-linecap="round" stroke-linejoin="round"/>
<path d="M484.224 216.108L483.795 217.848L478.313 215.397L484.224 216.108Z" fill="#263238" stroke="#263238" stroke-linecap="round" stroke-linejoin="round"/>
<path d="M486.52 210.358L484.877 217.016L478.313 215.397L486.52 210.358Z" fill="white" stroke="#263238" stroke-linecap="round" stroke-linejoin="round"/>
<path d="M504.425 224.542L480.846 218.725" stroke="#263238" stroke-linecap="round" stroke-linejoin="round"/>
<path d="M502.935 230.586L479.355 224.769" stroke="#263238" stroke-linecap="round" stroke-linejoin="round"/>
<path d="M501.442 236.637L477.862 230.821" stroke="#263238" stroke-linecap="round" stroke-linejoin="round"/>
<path d="M499.951 242.681L476.371 236.864" stroke="#263238" stroke-linecap="round" stroke-linejoin="round"/>
<path d="M498.458 248.732L474.878 242.916" stroke="#263238" stroke-linecap="round" stroke-linejoin="round"/>
<path d="M416.831 287.869L447.467 295.427L457.913 253.081L433.842 247.143L425.637 252.174L416.831 287.869Z" fill="white" stroke="#263238" stroke-linecap="round" stroke-linejoin="round"/>
<path d="M431.553 252.896L431.124 254.635L425.635 252.182L431.553 252.896Z" fill="#263238" stroke="#263238" stroke-linecap="round" stroke-linejoin="round"/>
<path d="M433.842 247.143L432.199 253.802L425.635 252.182L433.842 247.143Z" fill="white" stroke="#263238" stroke-linecap="round" stroke-linejoin="round"/>
<path d="M451.755 261.329L428.167 255.51" stroke="#263238" stroke-linecap="round" stroke-linejoin="round"/>
<path d="M450.264 267.373L426.677 261.554" stroke="#263238" stroke-linecap="round" stroke-linejoin="round"/>
<path d="M448.771 273.424L425.184 267.606" stroke="#263238" stroke-linecap="round" stroke-linejoin="round"/>
<path d="M447.281 279.468L423.693 273.649" stroke="#263238" stroke-linecap="round" stroke-linejoin="round"/>
<path d="M445.788 285.52L422.2 279.701" stroke="#263238" stroke-linecap="round" stroke-linejoin="round"/>
<path d="M521.371 231.743L555.082 240.059C558.793 240.975 561.033 244.836 560.084 248.683L549.837 290.219C548.888 294.066 545.11 296.443 541.399 295.527L507.688 287.211C503.976 286.296 501.737 282.435 502.686 278.588L512.932 237.051C513.881 233.204 517.659 230.828 521.371 231.743Z" fill="white" stroke="#263238" stroke-linecap="round" stroke-linejoin="round"/>
<path d="M519.895 231.379L556.58 240.429C557.969 240.772 559.16 241.672 559.892 242.933C560.623 244.193 560.834 245.71 560.479 247.15L560.189 248.323L513.045 236.693L513.333 235.528C513.685 234.089 514.575 232.844 515.805 232.066C517.036 231.288 518.507 231.041 519.895 231.379Z" fill="#263238" stroke="#263238" stroke-linecap="round" stroke-linejoin="round"/>
<path d="M551.055 256.352L517.375 248.043" stroke="#263238" stroke-linecap="round" stroke-linejoin="round"/>
<path d="M548.951 264.879L515.271 256.571" stroke="#263238" stroke-linecap="round" stroke-linejoin="round"/>
<path d="M546.845 273.414L513.166 265.106" stroke="#263238" stroke-linecap="round" stroke-linejoin="round"/>
<path d="M544.74 281.95L511.06 273.641" stroke="#263238" stroke-linecap="round" stroke-linejoin="round"/>
<path d="M525.928 236.163C526.003 235.856 526.165 235.577 526.393 235.362C526.621 235.148 526.904 235.006 527.207 234.956C527.51 234.906 527.818 234.95 528.094 235.081C528.37 235.213 528.601 235.427 528.757 235.696C528.913 235.965 528.987 236.277 528.971 236.592C528.954 236.908 528.848 237.213 528.664 237.469C528.481 237.725 528.229 237.92 527.94 238.03C527.652 238.14 527.339 238.159 527.043 238.086C526.646 237.988 526.305 237.73 526.096 237.37C525.886 237.009 525.826 236.575 525.928 236.163Z" fill="white"/>
<path d="M520.963 234.939C521.039 234.631 521.201 234.353 521.429 234.138C521.657 233.923 521.94 233.782 522.243 233.732C522.545 233.682 522.854 233.725 523.13 233.857C523.406 233.989 523.637 234.202 523.793 234.471C523.949 234.74 524.023 235.052 524.007 235.368C523.99 235.683 523.883 235.988 523.7 236.244C523.517 236.5 523.265 236.695 522.976 236.805C522.687 236.915 522.375 236.935 522.079 236.862C521.681 236.764 521.341 236.506 521.131 236.145C520.922 235.785 520.862 235.351 520.963 234.939Z" fill="white"/>
<path d="M516.038 233.724C516.114 233.416 516.276 233.137 516.504 232.922C516.733 232.707 517.016 232.566 517.319 232.516C517.623 232.467 517.932 232.511 518.208 232.643C518.484 232.776 518.714 232.99 518.87 233.26C519.025 233.53 519.099 233.842 519.081 234.158C519.064 234.474 518.956 234.779 518.771 235.034C518.587 235.29 518.334 235.484 518.044 235.593C517.755 235.701 517.442 235.72 517.146 235.645C516.949 235.596 516.765 235.508 516.603 235.385C516.441 235.262 516.304 235.107 516.201 234.929C516.098 234.75 516.031 234.552 516.003 234.345C515.975 234.138 515.987 233.927 516.038 233.724Z" fill="white"/>
<path d="M542.48 285.134L561.736 289.884C565.448 290.8 567.687 294.661 566.738 298.508L560.687 323.038C559.738 326.886 555.96 329.262 552.248 328.346L532.992 323.596C529.281 322.681 527.041 318.82 527.99 314.973L534.042 290.442C534.991 286.595 538.769 284.219 542.48 285.134Z" fill="white" stroke="#263238" stroke-linecap="round" stroke-linejoin="round"/>
<path d="M539.393 284.39L564.823 290.663C565.786 290.901 566.611 291.525 567.118 292.398C567.624 293.271 567.77 294.323 567.524 295.32L567.325 296.13L534.652 288.07L534.851 287.261C535.097 286.266 535.712 285.405 536.564 284.867C537.415 284.329 538.432 284.157 539.393 284.39Z" fill="#263238" stroke="#263238" stroke-linecap="round" stroke-linejoin="round"/>
<path d="M561.003 301.685L537.649 295.924" stroke="#263238" stroke-linecap="round" stroke-linejoin="round"/>
<path d="M559.544 307.599L536.19 301.838" stroke="#263238" stroke-linecap="round" stroke-linejoin="round"/>
<path d="M558.083 313.521L534.729 307.761" stroke="#263238" stroke-linecap="round" stroke-linejoin="round"/>
<path d="M556.624 319.436L533.27 313.675" stroke="#263238" stroke-linecap="round" stroke-linejoin="round"/>
<path d="M544.332 289.007C543.759 288.866 543.413 288.269 543.559 287.675C543.706 287.081 544.29 286.714 544.863 286.855C545.436 286.996 545.782 287.593 545.636 288.187C545.489 288.781 544.905 289.149 544.332 289.007Z" fill="white"/>
<path d="M540.913 288.164C540.34 288.022 539.994 287.426 540.141 286.832C540.287 286.237 540.871 285.87 541.444 286.012C542.018 286.153 542.363 286.75 542.217 287.344C542.07 287.938 541.487 288.305 540.913 288.164Z" fill="white"/>
<path d="M536.722 285.988C536.774 285.775 536.887 285.582 537.044 285.434C537.202 285.285 537.398 285.187 537.608 285.152C537.818 285.118 538.032 285.148 538.223 285.239C538.414 285.33 538.574 285.478 538.682 285.665C538.79 285.851 538.841 286.067 538.83 286.286C538.819 286.504 538.745 286.716 538.618 286.893C538.49 287.07 538.316 287.205 538.116 287.281C537.916 287.357 537.7 287.371 537.495 287.32C537.358 287.287 537.23 287.226 537.118 287.141C537.005 287.055 536.91 286.948 536.838 286.824C536.767 286.7 536.719 286.563 536.699 286.42C536.679 286.276 536.687 286.13 536.722 285.988Z" fill="white"/>
<path d="M539.94 337.592L528.966 334.885" stroke="#263238" stroke-linecap="round" stroke-linejoin="round"/>
<path d="M552.077 340.586L541.922 338.081" stroke="#263238" stroke-linecap="round" stroke-linejoin="round"/>
<path d="M532.326 339.525L528.079 338.477" stroke="#263238" stroke-linecap="round" stroke-linejoin="round"/>
<path d="M551.191 344.178L534.308 340.014" stroke="#263238" stroke-linecap="round" stroke-linejoin="round"/>
<path d="M528.872 342.483L527.193 342.069" stroke="#263238" stroke-linecap="round" stroke-linejoin="round"/>
<path d="M537.973 344.728L531.642 343.167" stroke="#263238" stroke-linecap="round" stroke-linejoin="round"/>
<path d="M550.305 347.771L539.752 345.167" stroke="#263238" stroke-linecap="round" stroke-linejoin="round"/>
<path d="M549.419 351.363L526.307 345.661" stroke="#263238" stroke-linecap="round" stroke-linejoin="round"/>
<path d="M529.269 350.203L525.421 349.254" stroke="#263238" stroke-linecap="round" stroke-linejoin="round"/>
<path d="M542.53 353.474L533.234 351.181" stroke="#263238" stroke-linecap="round" stroke-linejoin="round"/>
<path d="M548.533 354.955L545.301 354.158" stroke="#263238" stroke-linecap="round" stroke-linejoin="round"/>
<path d="M537.094 355.944L524.535 352.846" stroke="#263238" stroke-linecap="round" stroke-linejoin="round"/>
<path d="M547.646 358.547L539.271 356.481" stroke="#263238" stroke-linecap="round" stroke-linejoin="round"/>
<path d="M529.878 357.974L523.649 356.438" stroke="#263238" stroke-linecap="round" stroke-linejoin="round"/>
<path d="M536.012 359.488L531.657 358.413" stroke="#263238" stroke-linecap="round" stroke-linejoin="round"/>
<path d="M546.76 362.139L538.385 360.073" stroke="#263238" stroke-linecap="round" stroke-linejoin="round"/>
<path d="M463.555 313.625L452.573 310.916" stroke="#263238" stroke-linecap="round" stroke-linejoin="round"/>
<path d="M475.684 316.617L465.529 314.112" stroke="#263238" stroke-linecap="round" stroke-linejoin="round"/>
<path d="M455.938 315.566L451.684 314.516" stroke="#263238" stroke-linecap="round" stroke-linejoin="round"/>
<path d="M474.796 320.218L457.913 316.053" stroke="#263238" stroke-linecap="round" stroke-linejoin="round"/>
<path d="M452.476 318.523L450.798 318.109" stroke="#263238" stroke-linecap="round" stroke-linejoin="round"/>
<path d="M461.577 320.768L455.247 319.206" stroke="#263238" stroke-linecap="round" stroke-linejoin="round"/>
<path d="M473.91 323.81L463.357 321.207" stroke="#263238" stroke-linecap="round" stroke-linejoin="round"/>
<path d="M473.024 327.402L449.912 321.701" stroke="#263238" stroke-linecap="round" stroke-linejoin="round"/>
<path d="M452.882 326.244L449.026 325.293" stroke="#263238" stroke-linecap="round" stroke-linejoin="round"/>
<path d="M466.143 329.515L456.839 327.22" stroke="#263238" stroke-linecap="round" stroke-linejoin="round"/>
<path d="M472.137 330.994L468.914 330.199" stroke="#263238" stroke-linecap="round" stroke-linejoin="round"/>
<path d="M460.699 331.983L448.14 328.885" stroke="#263238" stroke-linecap="round" stroke-linejoin="round"/>
<path d="M471.251 334.586L462.876 332.52" stroke="#263238" stroke-linecap="round" stroke-linejoin="round"/>
<path d="M453.482 334.014L447.254 332.477" stroke="#263238" stroke-linecap="round" stroke-linejoin="round"/>
<path d="M459.617 335.527L455.262 334.453" stroke="#263238" stroke-linecap="round" stroke-linejoin="round"/>
<path d="M470.365 338.178L461.99 336.112" stroke="#263238" stroke-linecap="round" stroke-linejoin="round"/>
<path d="M457.977 225.804L447.002 223.096" stroke="#263238" stroke-linecap="round" stroke-linejoin="round"/>
<path d="M470.114 228.798L459.959 226.293" stroke="#263238" stroke-linecap="round" stroke-linejoin="round"/>
<path d="M450.362 227.736L446.116 226.689" stroke="#263238" stroke-linecap="round" stroke-linejoin="round"/>
<path d="M469.228 232.39L452.345 228.225" stroke="#263238" stroke-linecap="round" stroke-linejoin="round"/>
<path d="M446.908 230.695L445.23 230.281" stroke="#263238" stroke-linecap="round" stroke-linejoin="round"/>
<path d="M456.009 232.94L449.679 231.378" stroke="#263238" stroke-linecap="round" stroke-linejoin="round"/>
<path d="M468.342 235.982L457.789 233.379" stroke="#263238" stroke-linecap="round" stroke-linejoin="round"/>
<path d="M467.455 239.574L444.344 233.873" stroke="#263238" stroke-linecap="round" stroke-linejoin="round"/>
<path d="M447.306 238.414L443.458 237.465" stroke="#263238" stroke-linecap="round" stroke-linejoin="round"/>
<path d="M460.567 241.686L451.271 239.392" stroke="#263238" stroke-linecap="round" stroke-linejoin="round"/>
<path d="M466.569 243.166L463.338 242.369" stroke="#263238" stroke-linecap="round" stroke-linejoin="round"/>
<path d="M455.13 244.155L442.572 241.057" stroke="#263238" stroke-linecap="round" stroke-linejoin="round"/>
<path d="M465.683 246.758L457.308 244.692" stroke="#263238" stroke-linecap="round" stroke-linejoin="round"/>
<path d="M447.914 246.186L441.686 244.649" stroke="#263238" stroke-linecap="round" stroke-linejoin="round"/>
<path d="M454.049 247.699L449.694 246.625" stroke="#263238" stroke-linecap="round" stroke-linejoin="round"/>
<path d="M464.797 250.351L456.422 248.285" stroke="#263238" stroke-linecap="round" stroke-linejoin="round"/>
<path d="M576.379 263.62L565.405 260.913" stroke="#263238" stroke-linecap="round" stroke-linejoin="round"/>
<path d="M588.517 266.614L578.362 264.109" stroke="#263238" stroke-linecap="round" stroke-linejoin="round"/>
<path d="M568.765 265.552L564.519 264.505" stroke="#263238" stroke-linecap="round" stroke-linejoin="round"/>
<path d="M587.63 270.206L570.748 266.042" stroke="#263238" stroke-linecap="round" stroke-linejoin="round"/>
<path d="M565.303 268.509L563.633 268.097" stroke="#263238" stroke-linecap="round" stroke-linejoin="round"/>
<path d="M574.412 270.756L568.074 269.193" stroke="#263238" stroke-linecap="round" stroke-linejoin="round"/>
<path d="M586.744 273.798L576.192 271.195" stroke="#263238" stroke-linecap="round" stroke-linejoin="round"/>
<path d="M585.858 277.391L562.747 271.689" stroke="#263238" stroke-linecap="round" stroke-linejoin="round"/>
<path d="M565.709 276.231L561.861 275.282" stroke="#263238" stroke-linecap="round" stroke-linejoin="round"/>
<path d="M578.97 279.502L569.666 277.207" stroke="#263238" stroke-linecap="round" stroke-linejoin="round"/>
<path d="M584.972 280.983L581.741 280.186" stroke="#263238" stroke-linecap="round" stroke-linejoin="round"/>
<path d="M573.533 281.972L560.974 278.874" stroke="#263238" stroke-linecap="round" stroke-linejoin="round"/>
<path d="M584.086 284.575L575.711 282.509" stroke="#263238" stroke-linecap="round" stroke-linejoin="round"/>
<path d="M566.317 284.002L560.088 282.466" stroke="#263238" stroke-linecap="round" stroke-linejoin="round"/>
<path d="M572.452 285.516L568.097 284.441" stroke="#263238" stroke-linecap="round" stroke-linejoin="round"/>
<path d="M583.2 288.167L574.825 286.101" stroke="#263238" stroke-linecap="round" stroke-linejoin="round"/>
<path d="M500.726 275.152L491.921 310.847L461.285 303.29L471.729 260.952L495.793 266.888L500.726 275.152Z" fill="white" stroke="#263238" stroke-linecap="round" stroke-linejoin="round"/>
<path d="M495.151 273.047L494.724 274.778L500.722 275.168L495.151 273.047Z" fill="#263238" stroke="#263238" stroke-linecap="round" stroke-linejoin="round"/>
<path d="M495.8 266.89L494.158 273.549L500.722 275.168L495.8 266.89Z" fill="white" stroke="#263238" stroke-linecap="round" stroke-linejoin="round"/>
<path d="M473.347 271.11L496.934 276.929" stroke="#263238" stroke-linecap="round" stroke-linejoin="round"/>
<path d="M471.856 277.154L495.444 282.972" stroke="#263238" stroke-linecap="round" stroke-linejoin="round"/>
<path d="M470.363 283.205L493.951 289.024" stroke="#263238" stroke-linecap="round" stroke-linejoin="round"/>
<path d="M468.87 289.257L492.458 295.076" stroke="#263238" stroke-linecap="round" stroke-linejoin="round"/>
<path d="M463.722 293.411L494.358 300.969L491.919 310.855L461.283 303.298L463.722 293.411Z" fill="#263238" stroke="#263238" stroke-linecap="round" stroke-linejoin="round"/>
<path d="M464.676 269.203L485.875 274.432L483.265 285.015L462.065 279.785L464.676 269.203Z" fill="#263238" stroke="#263238" stroke-linecap="round" stroke-linejoin="round"/>
<path d="M476.803 273.782C475.718 273.514 475.078 274.06 474.813 275.136L474.601 275.994C474.511 276.21 474.47 276.445 474.481 276.678C474.492 276.912 474.555 277.139 474.665 277.342C474.775 277.545 474.929 277.718 475.115 277.848C475.301 277.979 475.515 278.063 475.739 278.094L476.418 278.262L475.724 281.077L476.504 281.27L478.262 274.142L476.803 273.782ZM475.969 277.396C475.4 277.255 475.194 276.913 475.362 276.233L475.595 275.287C475.755 274.639 476.063 274.364 476.617 274.5L477.351 274.681L476.641 277.561L475.969 277.396Z" fill="white"/>
<path d="M472.994 272.842C471.925 272.579 471.267 273.129 470.996 274.229L470.11 277.821C469.84 278.914 470.166 279.706 471.236 279.97L472.875 280.375L474.633 273.247L472.994 272.842ZM471.415 279.242C470.869 279.107 470.723 278.694 470.882 278.046L471.786 274.381C471.948 273.726 472.301 273.435 472.855 273.572L473.683 273.776L472.286 279.44L471.415 279.242Z" fill="white"/>
<path d="M467.586 275.027L467.408 275.747L468.97 276.133L468.207 279.223L468.988 279.416L470.746 272.288L468.014 271.614L467.836 272.334L469.803 272.819L469.163 275.416L467.586 275.027Z" fill="white"/>
<path opacity="0.2" d="M95.0808 210.146L100.516 211.341L99.8077 214.548C101.101 215.02 102.337 215.642 103.491 216.401L105.725 213.888L109.832 217.751L107.676 220.18C108.559 221.274 109.323 222.467 109.953 223.737L113.087 222.682L114.717 228.156L111.703 229.129C111.932 230.543 112.008 231.981 111.929 233.416L115.128 234.111L113.877 239.751L110.782 239.073C110.303 240.416 109.68 241.702 108.926 242.906L111.33 245.242L107.531 249.532L105.206 247.344C104.136 248.275 102.97 249.081 101.731 249.749L102.692 252.972L97.3582 254.755L96.4266 251.65C95.056 251.909 93.6645 252.012 92.2771 251.957L91.5429 255.269L86.0999 254.072L86.7653 250.837C85.472 250.365 84.2365 249.744 83.0822 248.985L80.8555 251.499L76.7626 247.649L78.9284 245.214C78.0425 244.123 77.278 242.933 76.6491 241.664L73.5176 242.712L71.8716 237.233L74.9033 236.221C74.6708 234.809 74.595 233.37 74.6774 231.934L71.4787 231.24L72.7213 225.598L75.8165 226.276C76.2991 224.935 76.9216 223.649 77.673 222.443L75.2815 220.188L79.0804 215.898L81.4039 218.093C82.4714 217.156 83.638 216.346 84.8805 215.681L83.9125 212.455L89.2265 210.651L90.156 213.764C91.5263 213.495 92.9192 213.39 94.3075 213.449L95.0808 210.146ZM90.3078 246.278C92.8983 246.847 95.6069 246.607 98.0909 245.588C100.575 244.57 102.723 242.819 104.263 240.557C105.803 238.295 106.667 235.623 106.744 232.88C106.821 230.136 106.109 227.445 104.698 225.145C103.286 222.845 101.238 221.04 98.8133 219.959C96.3885 218.877 93.6954 218.568 91.0747 219.07C88.454 219.572 86.0233 220.862 84.0901 222.778C82.1568 224.694 80.8079 227.149 80.2137 229.833C79.4192 233.432 80.036 237.185 81.9286 240.269C83.8213 243.352 86.835 245.514 90.3078 246.278Z" stroke="black" stroke-linecap="round" stroke-linejoin="round"/>
<path opacity="0.2" d="M120.686 172.038L126.121 173.233L125.415 176.432C126.706 176.91 127.941 177.534 129.096 178.293L131.369 175.79L135.454 179.638L133.297 182.076C134.18 183.167 134.945 184.357 135.576 185.625L138.715 184.579L140.353 190.056L137.329 191.07C137.559 192.48 137.635 193.915 137.557 195.348L140.754 196.051L139.504 201.691L136.418 201.007C135.933 202.362 135.304 203.661 134.544 204.879L136.943 207.136L133.146 211.417L130.821 209.23C129.75 210.163 128.584 210.972 127.344 211.643L128.306 214.858L122.971 216.649L122.08 213.545C120.71 213.81 119.318 213.913 117.931 213.852L117.197 217.164L111.752 215.975L112.46 212.769C111.167 212.294 109.932 211.67 108.779 210.908L106.552 213.423L102.467 209.574L104.529 207.156C103.643 206.066 102.879 204.876 102.25 203.607L99.1184 204.654L97.4724 199.175L100.504 198.164C100.27 196.754 100.193 195.318 100.276 193.885L97.0795 193.182L98.3201 187.549L101.415 188.227C101.895 186.883 102.521 185.598 103.28 184.395L100.882 182.13L104.679 177.848L107.005 180.036C108.075 179.102 109.242 178.293 110.481 177.623L109.519 174.408L114.853 172.625L115.745 175.72C117.115 175.459 118.507 175.356 119.895 175.414L120.686 172.038ZM115.915 208.162C118.506 208.731 121.215 208.491 123.699 207.472C126.183 206.453 128.331 204.702 129.871 202.439C131.411 200.176 132.274 197.504 132.351 194.76C132.428 192.017 131.715 189.325 130.302 187.025C128.89 184.725 126.841 182.921 124.415 181.84C121.99 180.76 119.296 180.452 116.676 180.955C114.055 181.458 111.624 182.75 109.692 184.667C107.759 186.584 106.411 189.04 105.819 191.725C105.024 195.323 105.642 199.076 107.535 202.158C109.428 205.24 112.442 207.4 115.915 208.162Z" stroke="black" stroke-linecap="round" stroke-linejoin="round"/>
<path opacity="0.2" d="M396.64 184.804L398.037 179.141L401.112 179.9C401.627 178.561 402.283 177.284 403.07 176.091L400.722 173.795L404.628 169.609L406.89 171.884C407.983 170.981 409.167 170.202 410.419 169.562L409.561 166.329L414.936 164.677L415.817 167.82C417.204 167.598 418.609 167.533 420.005 167.626L420.827 164.293L426.236 165.627L425.45 168.815C426.738 169.324 427.965 169.98 429.107 170.773L431.371 168.31L435.361 172.273L433.12 174.646C433.974 175.762 434.708 176.97 435.311 178.251L438.457 177.311L439.961 182.831L436.908 183.795C437.1 185.223 437.14 186.672 437.026 188.115L440.203 188.899L438.82 194.506L435.744 193.747C435.23 195.085 434.573 196.363 433.786 197.555L436.135 199.851L432.229 204.037L429.966 201.763C428.871 202.663 427.688 203.442 426.437 204.085L427.296 207.318L421.922 208.962L421.04 205.826C419.652 206.049 418.248 206.114 416.852 206.02L416.035 209.329L410.626 207.995L411.425 204.759C410.136 204.25 408.91 203.593 407.767 202.801L405.504 205.264L401.513 201.301L403.755 198.927C402.898 197.814 402.164 196.605 401.564 195.323L398.417 196.263L396.906 190.741L399.967 189.779C399.774 188.35 399.735 186.901 399.849 185.458L396.64 184.804ZM431.436 190.032C432.094 187.363 431.974 184.566 431.091 181.993C430.208 179.421 428.601 177.19 426.474 175.582C424.347 173.974 421.796 173.061 419.142 172.958C416.488 172.856 413.851 173.569 411.564 175.007C409.278 176.445 407.445 178.544 406.297 181.038C405.149 183.532 404.737 186.309 405.114 189.017C405.492 191.726 406.64 194.246 408.416 196.257C410.191 198.268 412.513 199.68 415.088 200.315C416.8 200.738 418.582 200.806 420.331 200.516C422.081 200.226 423.763 199.583 425.282 198.625C426.802 197.667 428.128 196.412 429.185 194.932C430.243 193.452 431.01 191.776 431.444 190L431.436 190.032Z" stroke="black" stroke-linecap="round" stroke-linejoin="round"/>
<path opacity="0.2" d="M360.811 158.019L362.194 152.413L365.261 153.169C365.776 151.831 366.432 150.553 367.219 149.361L364.879 147.067L368.777 142.879L371.039 145.154C372.132 144.247 373.319 143.468 374.576 142.833L373.72 139.592L379.093 137.948L379.976 141.084C381.362 140.858 382.767 140.795 384.162 140.898L384.988 137.549L390.389 138.881L389.603 142.069C390.892 142.575 392.119 143.232 393.26 144.026L395.524 141.564L399.516 145.518L397.275 147.892C398.121 149.004 398.842 150.212 399.425 151.495L402.572 150.555L404.082 156.077L401.022 157.039C401.224 158.466 401.264 159.916 401.14 161.359L404.332 162.147L402.949 167.753L399.874 166.995C399.358 168.332 398.701 169.61 397.916 170.803L400.264 173.099L396.366 177.287L394.096 175.01C393.007 175.906 391.826 176.674 390.575 177.3L391.434 180.533L386.058 182.185L385.177 179.041C383.791 179.273 382.385 179.339 380.989 179.236L380.177 182.528L374.768 181.194L375.554 178.006C374.264 177.502 373.037 176.845 371.897 176.049L369.634 178.511L365.641 174.557L367.883 172.183C367.024 171.068 366.29 169.857 365.694 168.57L362.539 169.509L361.036 163.988L364.089 163.025C363.893 161.597 363.856 160.148 363.978 158.706L360.811 158.019ZM395.599 163.245C396.257 160.576 396.137 157.779 395.254 155.207C394.371 152.634 392.765 150.403 390.638 148.795C388.511 147.187 385.959 146.274 383.305 146.171C380.651 146.069 378.014 146.782 375.728 148.22C373.441 149.658 371.608 151.757 370.46 154.251C369.312 156.745 368.9 159.522 369.278 162.231C369.655 164.94 370.803 167.459 372.579 169.47C374.354 171.481 376.676 172.893 379.251 173.528C380.96 173.951 382.74 174.021 384.487 173.733C386.234 173.445 387.915 172.805 389.433 171.85C390.952 170.895 392.278 169.643 393.336 168.167C394.394 166.69 395.163 165.018 395.599 163.245Z" stroke="black" stroke-linecap="round" stroke-linejoin="round"/>
<g opacity="0.2">
<path d="M477.716 377.155C470.086 375.273 465.483 367.336 467.434 359.427C469.385 351.518 477.152 346.633 484.782 348.515C492.412 350.397 497.015 358.334 495.064 366.243C493.113 374.152 485.347 379.037 477.716 377.155Z" stroke="black" stroke-linecap="round" stroke-linejoin="round"/>
<path d="M470.384 362.288C470.771 356.086 475.952 351.298 481.955 351.594C487.958 351.891 492.511 357.159 492.123 363.362C491.736 369.565 486.555 374.353 480.552 374.056C474.549 373.76 469.996 368.491 470.384 362.288Z" stroke="black" stroke-linecap="round" stroke-linejoin="round"/>
<path d="M458.595 367.666L467.083 365.314L467.739 367.991L459.245 370.333C459.332 370.688 459.278 371.066 459.095 371.384C458.912 371.703 458.616 371.936 458.271 372.032L442.09 376.503C441.745 376.598 441.379 376.549 441.074 376.366C440.768 376.183 440.547 375.881 440.46 375.526L439.803 372.849C439.72 372.494 439.777 372.116 439.96 371.799C440.144 371.481 440.44 371.249 440.785 371.152L456.967 366.681C457.313 366.589 457.677 366.641 457.982 366.825C458.287 367.01 458.507 367.312 458.595 367.666Z" stroke="black" stroke-miterlimit="10"/>
</g>
<path opacity="0.2" d="M289.359 141.174C288.594 144.269 288.732 147.513 289.754 150.496C290.777 153.479 292.639 156.067 295.105 157.933C297.571 159.799 300.529 160.859 303.607 160.979C306.684 161.098 309.742 160.273 312.394 158.606C315.045 156.939 317.172 154.505 318.504 151.614C319.835 148.722 320.313 145.502 319.876 142.361C319.439 139.219 318.108 136.298 316.049 133.966C313.991 131.634 311.298 129.996 308.312 129.259" stroke="black" stroke-linecap="round" stroke-linejoin="round"/>
<path opacity="0.2" d="M289.359 141.174L304.455 144.898L308.312 129.259C304.31 128.272 300.065 128.973 296.511 131.207C292.957 133.441 290.385 137.026 289.359 141.174Z" stroke="black" stroke-linecap="round" stroke-linejoin="round"/>
<path opacity="0.2" d="M293.581 130.775L287.372 122.377L276.445 119.681" stroke="black" stroke-linecap="round" stroke-linejoin="round"/>
<path opacity="0.2" d="M270.2 118.141L255.636 114.548" stroke="black" stroke-linecap="round" stroke-linejoin="round"/>
<path opacity="0.2" d="M269.003 122.995L254.438 119.402" stroke="black" stroke-linecap="round" stroke-linejoin="round"/>
<path opacity="0.2" d="M267.805 127.85L253.241 124.257" stroke="black" stroke-linecap="round" stroke-linejoin="round"/>
<path opacity="0.2" d="M266.608 132.704L252.043 129.111" stroke="black" stroke-linecap="round" stroke-linejoin="round"/>
<g opacity="0.2">
<path d="M415.866 349.281L417.131 346.572L427.012 349.01L425.748 351.719L424.614 354.134L417.066 370.296L390.684 363.788L399.358 345.209L415.866 349.281Z" stroke="black" stroke-linecap="round" stroke-linejoin="round"/>
<path d="M390.685 363.788L390.314 344.377L398.627 346.427" stroke="black" stroke-linecap="round" stroke-linejoin="round"/>
</g>
<g opacity="0.2">
<path d="M378.822 340.143L380.095 337.436L389.968 339.871L388.704 342.581L387.57 344.996L380.022 361.158L353.641 354.65L362.322 336.073L378.822 340.143Z" stroke="black" stroke-linecap="round" stroke-linejoin="round"/>
<path d="M353.641 354.65L353.27 335.239L361.583 337.289" stroke="black" stroke-linecap="round" stroke-linejoin="round"/>
</g>
<path d="M334.008 280.87C333.822 280.822 333.627 280.812 333.435 280.842C333.244 280.872 333.059 280.94 332.892 281.043C332.725 281.146 332.579 281.282 332.462 281.443C332.345 281.604 332.26 281.786 332.211 281.98L329.928 291.236C329.861 291.619 329.938 292.012 330.142 292.335C330.345 292.658 330.661 292.888 331.026 292.978C331.39 293.068 331.777 293.011 332.107 292.82C332.438 292.629 332.688 292.316 332.808 291.946L335.091 282.691C335.137 282.496 335.145 282.294 335.116 282.097C335.086 281.9 335.019 281.712 334.919 281.543C334.818 281.373 334.686 281.227 334.53 281.112C334.374 280.996 334.196 280.914 334.008 280.87Z" fill="#263238"/>
<path d="M337.489 281.729C337.302 281.68 337.107 281.671 336.915 281.7C336.723 281.73 336.538 281.798 336.371 281.901C336.203 282.004 336.056 282.139 335.938 282.3C335.82 282.461 335.734 282.643 335.684 282.837L333.401 292.092C333.335 292.476 333.411 292.869 333.615 293.192C333.819 293.515 334.134 293.745 334.499 293.834C334.864 293.924 335.25 293.868 335.58 293.677C335.911 293.485 336.161 293.173 336.281 292.803L338.564 283.547C338.657 283.155 338.595 282.744 338.394 282.403C338.193 282.062 337.867 281.82 337.489 281.729Z" fill="#263238"/>
<path d="M340.916 282.574C340.729 282.526 340.534 282.516 340.343 282.546C340.151 282.576 339.967 282.644 339.8 282.747C339.633 282.85 339.487 282.986 339.37 283.147C339.253 283.308 339.167 283.49 339.118 283.684L336.835 292.94C336.788 293.134 336.779 293.335 336.808 293.532C336.837 293.729 336.903 293.917 337.003 294.086C337.103 294.255 337.234 294.401 337.39 294.517C337.546 294.632 337.722 294.714 337.91 294.758C338.097 294.807 338.292 294.816 338.483 294.787C338.675 294.757 338.859 294.688 339.026 294.585C339.193 294.482 339.34 294.346 339.456 294.185C339.573 294.025 339.659 293.842 339.708 293.648L341.991 284.393C342.038 284.198 342.047 283.997 342.018 283.8C341.99 283.604 341.923 283.415 341.823 283.246C341.724 283.077 341.592 282.931 341.436 282.816C341.28 282.7 341.104 282.618 340.916 282.574Z" fill="#263238"/>
<path d="M344.374 283.427C344.187 283.379 343.991 283.369 343.8 283.398C343.608 283.428 343.423 283.496 343.255 283.599C343.087 283.702 342.94 283.838 342.823 283.998C342.705 284.159 342.618 284.341 342.568 284.535L340.285 293.791C340.219 294.174 340.295 294.567 340.499 294.89C340.703 295.213 341.019 295.443 341.383 295.533C341.748 295.623 342.134 295.566 342.465 295.375C342.795 295.184 343.046 294.871 343.165 294.501L345.449 285.246C345.541 284.853 345.48 284.442 345.278 284.101C345.077 283.76 344.752 283.518 344.374 283.427Z" fill="#263238"/>
<path d="M347.824 284.278C347.637 284.23 347.442 284.22 347.251 284.25C347.059 284.28 346.875 284.348 346.707 284.451C346.54 284.554 346.394 284.69 346.277 284.851C346.16 285.012 346.075 285.194 346.026 285.388L343.743 294.644C343.646 295.039 343.704 295.454 343.904 295.8C344.104 296.146 344.431 296.393 344.812 296.487C345.193 296.581 345.597 296.514 345.935 296.301C346.273 296.088 346.518 295.747 346.615 295.352L348.899 286.097C348.945 285.902 348.955 285.701 348.926 285.504C348.897 285.308 348.831 285.119 348.731 284.95C348.631 284.781 348.5 284.635 348.344 284.52C348.188 284.404 348.011 284.322 347.824 284.278Z" fill="#263238"/>
<path d="M351.281 285.131C351.094 285.083 350.899 285.073 350.707 285.102C350.515 285.132 350.33 285.2 350.163 285.303C349.995 285.406 349.848 285.542 349.73 285.702C349.612 285.863 349.526 286.045 349.476 286.239L347.193 295.495C347.147 295.69 347.139 295.891 347.168 296.088C347.198 296.285 347.265 296.474 347.365 296.643C347.466 296.812 347.598 296.958 347.754 297.074C347.91 297.189 348.088 297.271 348.276 297.315C348.653 297.411 349.053 297.347 349.39 297.139C349.727 296.931 349.972 296.595 350.073 296.205L352.356 286.95C352.449 286.557 352.387 286.146 352.186 285.805C351.985 285.464 351.659 285.222 351.281 285.131Z" fill="#263238"/>
<path d="M354.731 285.982C354.545 285.934 354.35 285.924 354.158 285.954C353.967 285.984 353.782 286.052 353.615 286.155C353.448 286.258 353.302 286.394 353.185 286.555C353.068 286.716 352.983 286.898 352.934 287.092L350.651 296.348C350.553 296.742 350.611 297.158 350.812 297.504C351.012 297.85 351.339 298.097 351.72 298.191C352.101 298.285 352.505 298.218 352.843 298.005C353.181 297.792 353.426 297.451 353.523 297.056L355.806 287.801C355.853 287.606 355.862 287.405 355.834 287.208C355.805 287.012 355.739 286.823 355.639 286.654C355.539 286.485 355.407 286.339 355.252 286.224C355.096 286.108 354.919 286.026 354.731 285.982Z" fill="#263238"/>
<path d="M358.181 286.833C357.804 286.738 357.404 286.801 357.067 287.009C356.73 287.217 356.484 287.553 356.384 287.943L354.101 297.199C354.034 297.582 354.111 297.975 354.315 298.298C354.518 298.621 354.834 298.851 355.199 298.941C355.563 299.031 355.95 298.974 356.28 298.783C356.611 298.592 356.861 298.279 356.981 297.909L359.264 288.654C359.31 288.459 359.318 288.257 359.289 288.06C359.259 287.863 359.192 287.675 359.092 287.506C358.991 287.337 358.859 287.19 358.703 287.075C358.547 286.959 358.369 286.877 358.181 286.833Z" fill="#263238"/>
<path d="M361.639 287.686C361.452 287.638 361.258 287.628 361.066 287.658C360.875 287.688 360.69 287.756 360.523 287.859C360.356 287.962 360.21 288.098 360.093 288.259C359.976 288.42 359.89 288.602 359.842 288.796L357.558 298.052C357.461 298.447 357.519 298.863 357.719 299.208C357.92 299.554 358.246 299.801 358.627 299.895C359.008 299.989 359.412 299.922 359.75 299.709C360.089 299.496 360.333 299.155 360.431 298.76L362.714 289.505C362.761 289.31 362.77 289.109 362.741 288.912C362.713 288.716 362.646 288.527 362.547 288.358C362.447 288.189 362.315 288.043 362.159 287.928C362.004 287.812 361.827 287.73 361.639 287.686Z" fill="#263238"/>
<path d="M365.089 288.537C364.712 288.442 364.311 288.505 363.975 288.713C363.638 288.921 363.392 289.257 363.292 289.647L361.008 298.903C360.942 299.286 361.019 299.679 361.222 300.002C361.426 300.325 361.742 300.555 362.106 300.645C362.471 300.735 362.857 300.678 363.188 300.487C363.518 300.296 363.769 299.984 363.889 299.613L366.172 290.358C366.218 290.163 366.226 289.961 366.196 289.764C366.167 289.567 366.1 289.379 365.999 289.21C365.899 289.041 365.767 288.894 365.611 288.779C365.454 288.663 365.277 288.581 365.089 288.537Z" fill="#263238"/>
<path d="M368.547 289.39C368.36 289.342 368.165 289.332 367.974 289.362C367.782 289.392 367.598 289.46 367.431 289.563C367.264 289.666 367.117 289.802 367 289.963C366.884 290.124 366.798 290.306 366.749 290.5L364.466 299.756C364.369 300.151 364.427 300.567 364.627 300.912C364.828 301.258 365.154 301.505 365.535 301.599C365.916 301.693 366.32 301.626 366.658 301.413C366.996 301.2 367.241 300.859 367.338 300.464L369.622 291.209C369.669 291.015 369.678 290.813 369.649 290.616C369.62 290.42 369.554 290.231 369.454 290.062C369.354 289.893 369.223 289.747 369.067 289.632C368.911 289.516 368.734 289.434 368.547 289.39Z" fill="#263238"/>
<path d="M371.013 289.999C371.016 290.148 370.979 290.296 370.907 290.427C370.741 290.53 370.596 290.665 370.48 290.825C370.364 290.985 370.279 291.166 370.23 291.359L367.947 300.614C367.901 300.808 367.891 301.008 367.92 301.203C367.948 301.399 368.014 301.586 368.113 301.754C368.661 302.214 369.31 302.53 370.006 302.676C371.629 303.076 372.821 302.675 372.669 301.779L371.269 291.615C371.144 291.084 371.059 290.544 371.013 289.999Z" fill="#263238"/>
<path d="M371.013 289.999C371.173 290.536 371.295 291.085 371.378 291.642L373.645 302.02C373.812 302.92 375.259 303.972 376.882 304.372C378.506 304.773 379.331 304.281 378.711 303.27L372.065 291.811L371.298 290.524C371.106 290.193 371.013 289.999 371.013 289.999Z" fill="#263238"/>
<path d="M371.013 289.999C371.129 290.157 371.235 290.324 371.329 290.497L372.065 291.811L378.711 303.27C379.292 304.271 380.09 303.756 380.523 302C380.956 300.244 380.733 298.43 380.042 297.873L372.254 291.043C371.815 290.728 371.4 290.379 371.013 289.999Z" fill="#263238"/>
<path d="M371.013 289.999C371.458 290.277 371.882 290.588 372.282 290.93L380.299 296.83C380.992 297.378 381.896 296.434 382.321 294.711C382.42 294.312 382.482 293.904 382.505 293.494C382.514 293.311 382.513 293.127 382.5 292.944C382.503 292.878 382.49 292.814 382.464 292.755L382.396 292.626C382.302 292.455 382.174 292.305 382.021 292.186C381.869 292.067 381.694 291.982 381.507 291.935L372.578 289.732C372.391 289.687 372.196 289.681 372.005 289.715C371.815 289.749 371.632 289.823 371.469 289.931L371.357 290.015C371.345 290.063 371.282 290.082 371.253 290.066L371.011 290.007L371.013 289.999Z" fill="#263238"/>
<path d="M371.692 287.248C371.639 287.443 371.624 287.646 371.648 287.846C371.672 288.046 371.734 288.238 371.83 288.412C371.927 288.586 372.056 288.737 372.21 288.858C372.364 288.98 372.541 289.068 372.729 289.117L381.659 291.32C382.037 291.384 382.428 291.297 382.751 291.076C383.075 290.856 383.307 290.519 383.403 290.132C383.498 289.746 383.449 289.339 383.265 288.994C383.081 288.648 382.776 288.39 382.411 288.27L373.482 286.067C373.291 286.025 373.093 286.021 372.9 286.058C372.707 286.094 372.522 286.169 372.356 286.279C372.19 286.388 372.046 286.53 371.932 286.697C371.818 286.863 371.736 287.05 371.692 287.248Z" fill="#263238"/>
<path d="M372.596 283.583C372.543 283.778 372.528 283.982 372.552 284.182C372.575 284.383 372.637 284.575 372.733 284.75C372.829 284.924 372.958 285.077 373.112 285.199C373.266 285.321 373.443 285.41 373.631 285.461L382.561 287.663C382.939 287.727 383.33 287.64 383.653 287.419C383.977 287.199 384.21 286.862 384.305 286.476C384.4 286.089 384.351 285.683 384.167 285.337C383.983 284.992 383.678 284.733 383.313 284.613L374.384 282.41C374.194 282.367 373.997 282.363 373.804 282.398C373.611 282.434 373.426 282.508 373.26 282.617C373.094 282.726 372.949 282.867 372.835 283.033C372.722 283.199 372.64 283.386 372.596 283.583Z" fill="#263238"/>
<path d="M373.498 279.926C373.445 280.122 373.43 280.325 373.454 280.525C373.477 280.726 373.539 280.918 373.635 281.093C373.731 281.267 373.86 281.42 374.014 281.542C374.169 281.664 374.345 281.753 374.534 281.804L383.463 284.006C383.841 284.07 384.232 283.983 384.555 283.762C384.879 283.542 385.112 283.205 385.207 282.819C385.302 282.432 385.253 282.026 385.069 281.68C384.885 281.335 384.58 281.076 384.215 280.956L375.286 278.753C375.096 278.71 374.899 278.706 374.706 278.741C374.513 278.777 374.328 278.851 374.162 278.96C373.996 279.069 373.852 279.21 373.738 279.376C373.624 279.542 373.542 279.729 373.498 279.926Z" fill="#263238"/>
<path d="M374.392 276.302C374.339 276.497 374.325 276.7 374.348 276.9C374.372 277.099 374.434 277.292 374.53 277.466C374.627 277.639 374.756 277.791 374.91 277.912C375.065 278.033 375.241 278.121 375.429 278.171L384.359 280.374C384.737 280.437 385.128 280.35 385.451 280.13C385.775 279.91 386.008 279.572 386.103 279.186C386.198 278.8 386.149 278.393 385.965 278.048C385.781 277.702 385.476 277.443 385.111 277.324L376.182 275.121C375.991 275.078 375.794 275.075 375.601 275.111C375.407 275.148 375.222 275.223 375.056 275.332C374.89 275.442 374.746 275.584 374.632 275.75C374.518 275.917 374.436 276.104 374.392 276.302Z" fill="#263238"/>
<path d="M375.304 272.604C375.251 272.8 375.237 273.003 375.26 273.204C375.284 273.404 375.345 273.597 375.441 273.771C375.538 273.945 375.666 274.098 375.821 274.22C375.975 274.342 376.151 274.431 376.34 274.482L385.269 276.684C385.648 276.748 386.038 276.661 386.361 276.441C386.685 276.22 386.918 275.883 387.013 275.497C387.108 275.111 387.059 274.704 386.875 274.358C386.691 274.013 386.386 273.754 386.021 273.634L377.092 271.432C376.902 271.388 376.705 271.384 376.512 271.419C376.319 271.455 376.134 271.529 375.968 271.638C375.802 271.747 375.658 271.888 375.544 272.054C375.43 272.22 375.348 272.407 375.304 272.604Z" fill="#263238"/>
<path d="M376.206 268.947C376.154 269.142 376.139 269.346 376.163 269.545C376.186 269.745 376.248 269.938 376.345 270.111C376.441 270.285 376.57 270.437 376.724 270.558C376.879 270.679 377.055 270.767 377.244 270.817L386.173 273.019C386.552 273.083 386.942 272.996 387.265 272.776C387.589 272.555 387.822 272.218 387.917 271.832C388.012 271.446 387.963 271.039 387.779 270.693C387.595 270.348 387.29 270.089 386.925 269.969L377.996 267.767C377.805 267.724 377.608 267.721 377.415 267.757C377.222 267.793 377.037 267.869 376.87 267.978C376.704 268.088 376.56 268.23 376.446 268.396C376.332 268.562 376.251 268.75 376.206 268.947Z" fill="#263238"/>
<path d="M377.332 264.384C377.235 264.784 377.176 265.192 377.156 265.602C377.144 265.785 377.143 265.968 377.153 266.151C377.152 266.215 377.168 266.279 377.199 266.334C377.213 266.381 377.232 266.426 377.257 266.468C377.351 266.64 377.479 266.79 377.631 266.909C377.784 267.028 377.959 267.113 378.146 267.16L387.075 269.363C387.262 269.408 387.457 269.414 387.647 269.38C387.838 269.346 388.02 269.272 388.184 269.164L388.306 269.074C388.316 269.033 388.378 269.015 388.4 269.028L388.634 269.086C388.184 268.816 387.759 268.505 387.365 268.155L379.345 262.263C378.663 261.709 377.757 262.661 377.332 264.384Z" fill="#263238"/>
<path d="M379.138 257.062C378.713 258.786 378.928 260.633 379.619 261.189L387.408 268.012C387.841 268.344 388.253 268.703 388.642 269.088C388.642 269.088 388.517 268.92 388.326 268.59L387.588 267.283L380.942 255.825C380.371 254.783 379.563 255.339 379.138 257.062Z" fill="#263238"/>
<path d="M382.677 254.7C381.116 254.315 380.33 254.816 380.942 255.825L387.588 267.283L388.359 268.589C388.461 268.755 388.554 268.927 388.637 269.104C388.474 268.568 388.346 268.02 388.255 267.465L385.855 257.054C385.661 256.131 384.238 255.085 382.677 254.7Z" fill="#263238"/>
<path d="M389.343 256.344C387.781 255.959 386.644 256.374 386.811 257.273L388.431 267.491C388.548 268.02 388.632 268.557 388.68 269.098C388.704 268.955 388.739 268.814 388.784 268.677L388.838 268.459C388.909 268.392 388.975 268.319 389.033 268.241C389.15 268.079 389.235 267.896 389.282 267.701L391.565 258.446C391.613 258.249 391.624 258.044 391.597 257.844C391.584 257.75 391.559 257.657 391.524 257.569C391.445 257.458 391.353 257.358 391.251 257.27C390.697 256.808 390.043 256.491 389.343 256.344Z" fill="#263238"/>
<path d="M393.831 257.451C393.458 257.364 393.065 257.433 392.737 257.643C392.409 257.853 392.173 258.187 392.08 258.573L389.797 267.828C389.703 268.21 389.759 268.613 389.953 268.947C390.147 269.281 390.462 269.52 390.831 269.611C391.199 269.702 391.59 269.637 391.917 269.432C392.245 269.226 392.481 268.896 392.576 268.514L394.859 259.258C394.956 258.874 394.902 258.468 394.709 258.13C394.517 257.791 394.201 257.547 393.831 257.451Z" fill="#263238"/>
<path d="M397.164 258.273C396.791 258.186 396.398 258.255 396.07 258.465C395.742 258.675 395.506 259.01 395.413 259.395L393.13 268.65C393.036 269.032 393.092 269.435 393.286 269.769C393.479 270.103 393.795 270.342 394.164 270.433C394.532 270.524 394.923 270.46 395.25 270.254C395.578 270.048 395.814 269.718 395.908 269.336L398.192 260.08C398.241 259.89 398.253 259.692 398.228 259.498C398.203 259.304 398.141 259.118 398.045 258.95C397.95 258.782 397.823 258.636 397.671 258.52C397.52 258.403 397.347 258.32 397.164 258.273Z" fill="#263238"/>
<path d="M400.496 259.095C400.124 259.008 399.731 259.077 399.403 259.287C399.075 259.497 398.839 259.832 398.746 260.217L396.463 269.473C396.415 269.663 396.403 269.86 396.429 270.053C396.455 270.246 396.517 270.432 396.613 270.599C396.709 270.766 396.836 270.911 396.987 271.027C397.138 271.142 397.31 271.225 397.493 271.272C397.677 271.317 397.868 271.324 398.057 271.293C398.245 271.262 398.426 271.192 398.589 271.089C398.752 270.986 398.894 270.85 399.008 270.691C399.121 270.532 399.203 270.351 399.249 270.16L401.532 260.904C401.581 260.713 401.592 260.515 401.566 260.321C401.54 260.127 401.477 259.94 401.381 259.772C401.285 259.604 401.157 259.458 401.005 259.342C400.854 259.226 400.681 259.142 400.496 259.095Z" fill="#263238"/>
<path d="M398.467 277.494L404.201 254.25C401.888 253.68 399.436 254.085 397.383 255.376C395.33 256.668 393.844 258.74 393.253 261.136L391.977 266.306C391.685 267.493 391.62 268.724 391.788 269.928C391.956 271.133 392.352 272.287 392.955 273.326C393.557 274.365 394.354 275.268 395.3 275.983C396.246 276.698 397.322 277.212 398.467 277.494Z" fill="white" stroke="#263238" stroke-linecap="round" stroke-linejoin="round"/>
<path d="M415.361 305.444L394.983 287.758C394.02 286.923 393.308 285.823 392.926 284.582C392.545 283.341 392.509 282.009 392.823 280.736L400.606 249.184C400.92 247.911 401.572 246.748 402.487 245.827C403.401 244.906 404.544 244.264 405.784 243.972L432.05 237.792L415.361 305.444Z" fill="white" stroke="#263238" stroke-linecap="round" stroke-linejoin="round"/>
<path d="M368.478 307.963L351.244 303.712" stroke="#263238" stroke-linecap="round" stroke-linejoin="round"/>
<path d="M371.147 311.944L364.255 310.243" stroke="#263238" stroke-linecap="round" stroke-linejoin="round"/>
<path d="M372.564 259.912L368.267 277.331" stroke="#263238" stroke-linecap="round" stroke-linejoin="round"/>
<path d="M374.034 266.91L376.677 256.198" stroke="#263238" stroke-linecap="round" stroke-linejoin="round"/>
<path d="M388.455 293.675L386.252 302.607" stroke="#263238" stroke-linecap="round" stroke-linejoin="round"/>
<path d="M386.205 289.807L384.221 297.849" stroke="#263238" stroke-linecap="round" stroke-linejoin="round"/>
<path d="M252.733 193.515L248.253 192.41" stroke="#263238" stroke-width="9" stroke-linecap="round" stroke-linejoin="round"/>
<path d="M273.354 257.78L255.418 253.355L269.179 197.572L252.733 193.515" stroke="#263238" stroke-width="4" stroke-linecap="round" stroke-linejoin="round"/>
<path d="M224.956 306.118L219.476 304.766" stroke="#263238" stroke-width="9" stroke-linecap="round" stroke-linejoin="round"/>
<path d="M272.638 275.687L251.712 270.525L241.901 310.298L224.956 306.118" stroke="#263238" stroke-width="4" stroke-linecap="round" stroke-linejoin="round"/>
<path d="M354.466 221.769L358.939 222.872L348.579 264.87" stroke="#263238" stroke-width="4" stroke-linecap="round" stroke-linejoin="round"/>
<path d="M350.985 220.91L354.466 221.769" stroke="#263238" stroke-width="7" stroke-linecap="round" stroke-linejoin="round"/>
<path d="M307.111 226.807L327.553 231.849L321.953 254.551L301.511 249.508L307.111 226.807Z" fill="#263238" stroke="#263238" stroke-linecap="round" stroke-linejoin="round"/>
<path d="M296.015 190.76L316.09 195.712L311.049 216.148L290.973 211.196L296.015 190.76Z" fill="#263238" stroke="#263238" stroke-linecap="round" stroke-linejoin="round"/>
<path d="M298.999 213.167L290.109 210.974C290.79 217.315 293.212 223.293 297.091 228.207C300.97 233.122 306.145 236.769 312.009 238.721C317.873 240.673 324.182 240.848 330.197 239.227C336.212 237.606 341.683 234.256 345.968 229.569C349.998 225.186 352.825 219.781 354.15 213.924C354.275 213.414 354.403 212.896 354.49 212.377C355.931 204.42 354.561 196.24 350.63 189.331C346.698 182.423 340.467 177.245 333.074 174.744C325.681 172.243 317.619 172.584 310.358 175.706C303.098 178.828 297.124 184.523 293.526 191.751L303.673 194.254C304.871 194.549 305.997 195.087 306.987 195.835C307.977 196.583 308.811 197.528 309.442 198.615C310.072 199.703 310.487 200.911 310.663 202.172C310.838 203.432 310.771 204.72 310.464 205.962C310.158 207.204 309.619 208.376 308.877 209.41C308.135 210.445 307.206 211.321 306.142 211.991C305.078 212.66 303.9 213.108 302.676 213.311C301.452 213.513 300.205 213.465 299.007 213.169L298.999 213.167Z" fill="white" stroke="#263238" stroke-linecap="round" stroke-linejoin="round"/>
<path d="M319.776 207.453L310.644 205.2" stroke="#263238" stroke-linecap="round" stroke-linejoin="round"/>
<path d="M335.101 176.713L319.7 239.147" stroke="#263238" stroke-linecap="round" stroke-linejoin="round"/>
<path d="M325.754 217.759C321.319 216.665 318.642 212.05 319.776 207.453C320.911 202.855 325.426 200.015 329.862 201.109C334.297 202.203 336.974 206.817 335.84 211.415C334.705 216.013 330.19 218.853 325.754 217.759Z" fill="#263238" stroke="#263238" stroke-linecap="round" stroke-linejoin="round"/>
<path d="M323.788 208.442C323.992 207.618 324.426 206.87 325.038 206.294C325.649 205.718 326.409 205.338 327.221 205.205C328.034 205.071 328.863 205.188 329.603 205.542C330.343 205.896 330.961 206.47 331.379 207.192C331.797 207.915 331.996 208.752 331.951 209.599C331.905 210.446 331.618 211.264 331.125 211.95C330.632 212.635 329.955 213.158 329.18 213.452C328.405 213.745 327.567 213.796 326.772 213.599C326.245 213.468 325.749 213.232 325.314 212.902C324.878 212.572 324.511 212.156 324.234 211.677C323.957 211.198 323.775 210.666 323.698 210.111C323.622 209.556 323.652 208.989 323.788 208.442Z" fill="white" stroke="#263238" stroke-linecap="round" stroke-linejoin="round"/>
<path d="M299.768 206.928C297.552 206.382 296.215 204.077 296.782 201.78C297.348 199.484 299.604 198.065 301.82 198.611C304.035 199.158 305.372 201.463 304.806 203.76C304.239 206.056 301.984 207.475 299.768 206.928Z" fill="#92E3A9"/>
<path d="M343.972 211.413L339.864 228.063L345.991 229.574C350.022 225.192 352.849 219.787 354.173 213.929L343.972 211.413Z" fill="#263238" stroke="#263238" stroke-linecap="round" stroke-linejoin="round"/>
<path d="M295.608 317.375L283.484 366.525" stroke="#263238" stroke-width="3" stroke-linecap="round" stroke-linejoin="round"/>
<path d="M287.224 351.363C280.49 349.702 276.428 342.698 278.149 335.718C279.871 328.739 286.725 324.428 293.459 326.089C300.192 327.75 304.255 334.754 302.533 341.734C300.811 348.713 293.957 353.024 287.224 351.363Z" fill="white" stroke="#263238" stroke-linecap="round" stroke-linejoin="round"/>
<path d="M282.61 370.068C279.376 369.271 277.426 365.908 278.252 362.557C279.079 359.205 282.37 357.135 285.603 357.933C288.836 358.73 290.787 362.093 289.96 365.445C289.134 368.796 285.843 370.866 282.61 370.068Z" fill="white" stroke="#263238" stroke-linecap="round" stroke-linejoin="round"/>
<path d="M265.952 249.791L269.156 294.706C270.052 307.217 279.48 317.937 292.382 321.12L296.73 322.192C309.632 325.375 322.964 320.27 329.569 309.609L353.301 271.339C356.904 265.525 353.435 257.906 346.402 256.171L279.113 239.572C272.072 237.835 265.465 242.968 265.952 249.791Z" fill="white" stroke="#263238" stroke-linecap="round" stroke-linejoin="round"/>
<path d="M270.617 255.079C272.362 255.021 274.051 255.65 275.342 256.839C276.633 258.028 277.428 259.687 277.567 261.48L280.321 297.108C280.455 298.844 279.962 300.581 278.937 301.985C277.912 303.389 276.428 304.361 274.768 304.716L272.141 305.295C270.464 302.024 269.456 298.422 269.179 294.712L266.365 255.232L270.617 255.079Z" fill="white" stroke="#263238" stroke-linecap="round" stroke-linejoin="round"/>
<path d="M337.91 276.365C338.866 274.843 340.342 273.744 342.038 273.292C343.734 272.84 345.522 273.068 347.039 273.931L350.481 275.888L329.569 309.609C327.63 312.723 325.108 315.412 322.154 317.512L320.28 315.943C318.983 314.853 318.127 313.301 317.878 311.584C317.628 309.866 318.001 308.103 318.926 306.631L337.91 276.365Z" fill="white" stroke="#263238" stroke-linecap="round" stroke-linejoin="round"/>
<path d="M291.648 242.664C291.429 244.24 291.781 245.834 292.636 247.139C293.491 248.445 294.788 249.37 296.279 249.737L327.5 257.439C328.991 257.807 330.57 257.592 331.934 256.834C333.298 256.075 334.351 254.828 334.89 253.331L291.648 242.664Z" fill="white" stroke="#263238" stroke-linecap="round" stroke-linejoin="round"/>
<path d="M294.579 321.413L311.344 253.453" stroke="#263238" stroke-linecap="round" stroke-linejoin="round"/>
<path d="M291.614 257.169L327.144 265.934C329.325 266.472 330.641 268.741 330.083 271.002L325.944 287.781C325.386 290.042 323.166 291.439 320.985 290.901L285.455 282.136C283.274 281.598 281.958 279.329 282.515 277.068L286.655 260.288C287.212 258.027 289.433 256.631 291.614 257.169Z" fill="#92E3A9" stroke="#263238" stroke-linecap="round" stroke-linejoin="round"/>
<path d="M314.177 266.099C313.092 265.832 312.449 266.394 312.173 267.51L311.275 271.151C311.002 272.259 311.326 273.06 312.395 273.324L314.034 273.729L315.816 266.504L314.177 266.099ZM312.581 272.572C312.019 272.433 311.843 272.004 312.007 271.34L312.923 267.627C313.086 266.963 313.44 266.673 314.009 266.813L314.845 267.019L313.424 272.78L312.581 272.572Z" fill="#263238"/>
<path d="M309.671 271.107L309.585 272.631L310.296 272.806L310.743 265.252L309.619 264.975L306.502 271.87L307.283 272.063L307.907 270.672L309.671 271.107ZM309.739 270.395L308.178 270.009L309.989 266.027L309.739 270.395Z" fill="#263238"/>
<path d="M305.269 271.566L306.865 265.094L308.153 265.412L308.335 264.675L304.994 263.851L304.813 264.588L306.101 264.905L304.504 271.378L305.269 271.566Z" fill="#263238"/>
<path d="M302.639 269.373L302.553 270.896L303.271 271.073L303.718 263.519L302.587 263.24L299.47 270.136L300.25 270.328L300.875 268.937L302.639 269.373ZM302.707 268.66L301.146 268.275L302.956 264.293L302.707 268.66Z" fill="#263238"/>
<path d="M320.763 281.662L320.585 282.382L322.318 282.81L321.684 285.383L319.592 284.867L319.412 285.595L322.284 286.303L324.067 279.079L321.194 278.37L321.013 279.106L323.105 279.622L322.496 282.09L320.763 281.662Z" fill="#263238"/>
<path d="M317.706 281.87L318.101 285.271L318.834 285.452L318.348 281.384L320.531 278.206L319.75 278.014L317.969 280.638L317.596 277.482L316.862 277.301L317.284 281.096L314.969 284.473L315.789 284.675L317.706 281.87Z" fill="#263238"/>
<path d="M313.332 284.095L314.928 277.622L316.209 277.938L316.39 277.202L313.057 276.38L312.876 277.116L314.156 277.432L312.559 283.904L313.332 284.095Z" fill="#263238"/>
<path d="M310.977 275.85C309.885 275.58 309.273 276.047 309.017 277.083L308.871 277.673C308.748 277.976 308.73 278.312 308.821 278.623C308.912 278.934 309.107 279.2 309.371 279.376C308.683 279.412 308.317 279.888 308.125 280.665L307.848 281.789C307.8 282.092 307.678 282.378 307.494 282.62L308.274 282.813C308.449 282.562 308.565 282.273 308.615 281.97L308.896 280.829C309.096 280.02 309.534 279.854 310.182 280.013L310.728 280.148L309.968 283.231L310.748 283.423L312.523 276.231L310.977 275.85ZM310.34 279.306C309.723 279.154 309.399 278.859 309.592 278.074L309.764 277.378C309.923 276.731 310.241 276.449 310.788 276.584L311.568 276.776L310.91 279.446L310.34 279.306Z" fill="#263238"/>
<path d="M306.401 280.84L306.307 282.362L307.025 282.539L307.473 274.985L306.349 274.708L303.232 281.603L304.012 281.796L304.645 280.407L306.401 280.84ZM306.469 280.127L304.908 279.742L306.718 275.76L306.469 280.127Z" fill="#263238"/>
<path d="M300.907 275.219L300.747 275.866L301.488 276.049L301.658 275.362C301.82 274.706 302.158 274.378 302.696 274.511C303.235 274.643 303.42 275.101 303.258 275.756L302.316 279.575C302.157 280.222 301.801 280.555 301.239 280.417C300.677 280.278 300.556 279.828 300.716 279.18L300.948 278.242L300.206 278.059L299.985 278.957C299.715 280.049 300.037 280.893 301.099 281.154C302.16 281.416 302.837 280.819 303.107 279.727L304.029 275.989C304.3 274.889 303.978 274.046 302.917 273.784C301.855 273.522 301.178 274.119 300.907 275.219Z" fill="#263238"/>
<path d="M297.846 280.275L299.443 273.802L300.723 274.118L300.904 273.382L297.572 272.56L297.39 273.296L298.67 273.612L297.073 280.084L297.846 280.275Z" fill="#263238"/>
<path d="M296.272 272.222L294.49 279.447L295.27 279.639L297.053 272.415L296.272 272.222Z" fill="#263238"/>
<path d="M295.099 273.787C295.373 272.678 295.026 271.837 293.987 271.581C292.949 271.325 292.251 271.908 291.977 273.017L291.055 276.754C290.786 277.847 291.131 278.696 292.169 278.952C293.207 279.208 293.908 278.617 294.177 277.525L295.099 273.787ZM293.387 277.372C293.225 278.028 292.864 278.351 292.302 278.212C291.74 278.073 291.57 277.62 291.732 276.964L292.674 273.146C292.836 272.49 293.189 272.165 293.759 272.306C294.329 272.447 294.491 272.898 294.329 273.554L293.387 277.372Z" fill="#263238"/>
<path d="M289.128 278.124L289.83 278.297L291.612 271.073L290.621 270.828L287.724 275.658L289.013 270.431L288.326 270.262L286.544 277.487L287.325 277.679L290.545 272.277L289.128 278.124Z" fill="#263238"/>
<path d="M300.099 299.172C297.512 298.534 295.951 295.843 296.613 293.162C297.274 290.481 299.907 288.825 302.493 289.463C305.08 290.101 306.641 292.792 305.979 295.473C305.318 298.154 302.685 299.81 300.099 299.172Z" fill="#263238" stroke="#263238" stroke-linecap="round" stroke-linejoin="round"/>
<path d="M300.797 296.34C299.719 296.074 299.069 294.953 299.345 293.836C299.62 292.719 300.717 292.029 301.795 292.295C302.873 292.561 303.523 293.682 303.247 294.799C302.972 295.916 301.875 296.606 300.797 296.34Z" fill="#92E3A9"/>
<path d="M144.246 114.192L252.217 140.826C257.821 142.209 261.202 148.038 259.769 153.847L240.726 231.046C239.293 236.855 233.588 240.443 227.984 239.061L120.013 212.426C114.409 211.044 111.028 205.214 112.461 199.405L131.505 122.206C132.938 116.398 138.642 112.809 144.246 114.192Z" fill="#263238" stroke="#263238" stroke-linecap="round" stroke-linejoin="round"/>
<path d="M145.249 120.799L248.256 146.209C252.248 147.194 254.656 151.346 253.635 155.484L236.059 226.736C235.038 230.874 230.975 233.43 226.983 232.445L123.976 207.035C119.985 206.051 117.576 201.898 118.597 197.761L136.173 126.508C137.194 122.37 141.258 119.814 145.249 120.799Z" fill="white" stroke="#263238" stroke-linecap="round" stroke-linejoin="round"/>
<path d="M143.599 135.678L236.732 158.652L235.864 162.172L142.731 139.197L143.599 135.678Z" fill="#E0E0E0"/>
<path d="M141.556 143.963L234.688 166.937L233.82 170.456L140.687 147.482L141.556 143.963Z" fill="#E0E0E0"/>
<path d="M139.512 152.247L232.645 175.222L231.777 178.741L138.644 155.767L139.512 152.247Z" fill="#E0E0E0"/>
<path d="M137.466 160.54L230.599 183.514L229.731 187.034L136.598 164.059L137.466 160.54Z" fill="#E0E0E0"/>
<path d="M135.423 168.825L228.556 191.799L227.687 195.318L134.555 172.344L135.423 168.825Z" fill="#E0E0E0"/>
<path d="M133.379 177.109L226.512 200.084L225.644 203.603L132.511 180.629L133.379 177.109Z" fill="#E0E0E0"/>
<path d="M131.335 185.394L224.468 208.368L223.6 211.888L130.467 188.913L131.335 185.394Z" fill="#E0E0E0"/>
<path d="M221.966 176.922L231.036 179.159L221.456 217.993L212.386 215.756L221.966 176.922Z" fill="#263238"/>
<path d="M205.41 184.39L214.48 186.627L207.586 214.572L198.516 212.334L205.41 184.39Z" fill="#92E3A9"/>
<path d="M193.21 174.197L202.28 176.434L193.716 211.15L184.646 208.913L193.21 174.197Z" fill="#263238"/>
<path d="M175.87 184.81L184.94 187.048L179.836 207.735L170.767 205.498L175.87 184.81Z" fill="#92E3A9"/>
<path d="M165.283 168.08L174.353 170.317L165.966 204.313L156.897 202.076L165.283 168.08Z" fill="#263238"/>
<path d="M153.614 155.7L162.684 157.938L152.09 200.882L143.021 198.644L153.614 155.7Z" fill="#92E3A9"/>
<path d="M141.117 146.713L150.187 148.95L138.22 197.46L129.151 195.223L141.117 146.713Z" fill="#263238"/>
<path d="M243.439 161.002L240.34 160.238" stroke="#263238" stroke-linecap="round" stroke-linejoin="round"/>
<path d="M242.302 165.614L239.203 164.849" stroke="#263238" stroke-linecap="round" stroke-linejoin="round"/>
<path d="M241.162 170.233L238.063 169.469" stroke="#263238" stroke-linecap="round" stroke-linejoin="round"/>
<path d="M240.022 174.853L236.924 174.089" stroke="#263238" stroke-linecap="round" stroke-linejoin="round"/>
<path d="M238.883 179.473L235.784 178.708" stroke="#263238" stroke-linecap="round" stroke-linejoin="round"/>
<path d="M237.745 184.084L234.647 183.32" stroke="#263238" stroke-linecap="round" stroke-linejoin="round"/>
<path d="M236.606 188.704L233.507 187.939" stroke="#263238" stroke-linecap="round" stroke-linejoin="round"/>
<path d="M235.466 193.323L232.367 192.559" stroke="#263238" stroke-linecap="round" stroke-linejoin="round"/>
<path d="M234.326 197.943L231.228 197.179" stroke="#263238" stroke-linecap="round" stroke-linejoin="round"/>
<path d="M233.189 202.555L230.09 201.79" stroke="#263238" stroke-linecap="round" stroke-linejoin="round"/>
<path d="M232.049 207.174L228.951 206.41" stroke="#263238" stroke-linecap="round" stroke-linejoin="round"/>
<path d="M230.91 211.794L227.811 211.03" stroke="#263238" stroke-linecap="round" stroke-linejoin="round"/>
<path d="M229.77 216.414L226.671 215.649" stroke="#263238" stroke-linecap="round" stroke-linejoin="round"/>
<path d="M228.632 221.025L225.534 220.261" stroke="#263238" stroke-linecap="round" stroke-linejoin="round"/>
<path d="M128.272 197.676L127.48 200.887" stroke="#263238" stroke-linecap="round" stroke-linejoin="round"/>
<path d="M135.672 199.501L134.88 202.713" stroke="#263238" stroke-linecap="round" stroke-linejoin="round"/>
<path d="M143.071 201.326L142.279 204.538" stroke="#263238" stroke-linecap="round" stroke-linejoin="round"/>
<path d="M150.463 203.15L149.671 206.362" stroke="#263238" stroke-linecap="round" stroke-linejoin="round"/>
<path d="M157.862 204.975L157.07 208.187" stroke="#263238" stroke-linecap="round" stroke-linejoin="round"/>
<path d="M165.262 206.8L164.469 210.012" stroke="#263238" stroke-linecap="round" stroke-linejoin="round"/>
<path d="M172.653 208.624L171.861 211.836" stroke="#263238" stroke-linecap="round" stroke-linejoin="round"/>
<path d="M180.053 210.449L179.261 213.661" stroke="#263238" stroke-linecap="round" stroke-linejoin="round"/>
<path d="M187.452 212.274L186.66 215.486" stroke="#263238" stroke-linecap="round" stroke-linejoin="round"/>
<path d="M194.844 214.098L194.052 217.31" stroke="#263238" stroke-linecap="round" stroke-linejoin="round"/>
<path d="M202.243 215.923L201.451 219.135" stroke="#263238" stroke-linecap="round" stroke-linejoin="round"/>
<path d="M209.643 217.748L208.85 220.96" stroke="#263238" stroke-linecap="round" stroke-linejoin="round"/>
<path d="M217.042 219.574L216.25 222.786" stroke="#263238" stroke-linecap="round" stroke-linejoin="round"/>
<path d="M224.434 221.397L223.641 224.609" stroke="#263238" stroke-linecap="round" stroke-linejoin="round"/>
<path d="M185.189 137.432L205.936 142.55L205.065 146.077L184.319 140.959L185.189 137.432Z" fill="#263238"/>
<path d="M117.074 224.343L225.044 250.978C230.648 252.36 234.03 258.19 232.597 263.999L213.553 341.198C212.12 347.006 206.415 350.595 200.811 349.212L92.8408 322.578C87.2368 321.195 83.8555 315.366 85.2884 309.557L104.332 232.358C105.765 226.549 111.47 222.961 117.074 224.343Z" fill="#263238" stroke="#263238" stroke-linecap="round" stroke-linejoin="round"/>
<path d="M118.075 230.959L221.081 256.369C225.073 257.353 227.482 261.506 226.461 265.643L208.884 336.896C207.863 341.034 203.8 343.59 199.808 342.605L96.8018 317.195C92.8101 316.21 90.4015 312.058 91.4222 307.92L108.999 236.668C110.02 232.53 114.083 229.974 118.075 230.959Z" fill="white" stroke="#263238" stroke-linecap="round" stroke-linejoin="round"/>
<path d="M170.083 326.423C177.935 328.36 186.253 327.199 193.419 323.166C200.584 319.134 206.084 312.518 208.848 304.606C211.611 296.695 211.441 288.054 208.37 280.365C205.299 272.676 199.547 266.49 192.234 263.011L188.775 270.586C191.816 272.026 194.527 274.102 196.74 276.682C198.954 279.263 200.622 282.295 201.642 285.59C202.662 288.884 203.012 292.371 202.669 295.835C202.327 299.298 201.3 302.663 199.653 305.723C198.005 308.782 195.772 311.469 193.091 313.619C190.41 315.768 187.34 317.333 184.069 318.217C180.799 319.101 177.399 319.285 174.08 318.757C170.76 318.229 167.593 317.001 164.774 315.149L160.379 322.193C163.359 324.145 166.637 325.574 170.083 326.423Z" fill="#263238"/>
<path d="M157.844 279.735C161.151 274.681 166.077 270.982 171.735 269.302C177.394 267.622 183.414 268.072 188.713 270.57L192.234 263.011C185.189 259.686 177.184 259.088 169.66 261.323C162.136 263.558 155.588 268.48 151.195 275.202L157.844 279.735Z" fill="#92E3A9"/>
<path d="M160.351 322.203L164.747 315.159C162.01 313.363 159.657 311.015 157.824 308.253C155.991 305.491 154.716 302.371 154.073 299.075C153.43 295.779 153.432 292.372 154.079 289.054C154.726 285.736 156.004 282.574 157.84 279.751L151.174 275.189C148.738 278.937 147.041 283.137 146.184 287.542C145.326 291.948 145.325 296.471 146.179 300.847C147.033 305.224 148.726 309.366 151.16 313.033C153.593 316.7 156.718 319.817 160.351 322.203Z" fill="#A8A8A8"/>
<path d="M133.404 255.82L142.178 257.984L139.934 267.077L131.161 264.913L133.404 255.82Z" fill="#263238"/>
<path d="M127.914 278.076L136.687 280.241L134.444 289.334L125.671 287.17L127.914 278.076Z" fill="#92E3A9"/>
<path d="M122.422 300.341L131.195 302.506L128.952 311.599L120.178 309.435L122.422 300.341Z" fill="#A8A8A8"/>
<path d="M127.61 259.471L112.827 255.824" stroke="#263238" stroke-linecap="round" stroke-linejoin="round"/>
<path d="M122.297 281.008L107.514 277.361" stroke="#263238" stroke-linecap="round" stroke-linejoin="round"/>
<path d="M186.145 296.252L171.362 292.605" stroke="#263238" stroke-linecap="round" stroke-linejoin="round"/>
<path d="M116.747 303.508L101.964 299.861" stroke="#263238" stroke-linecap="round" stroke-linejoin="round"/>
<path d="M521.585 485.374L538.757 489.61" stroke="#263238" stroke-width="0.75" stroke-miterlimit="10" stroke-linecap="round"/>
<path d="M86.83 378.127L512.219 483.064" stroke="#263238" stroke-width="0.75" stroke-miterlimit="10" stroke-linecap="round"/>
<path d="M54.0477 370.041L81.3662 376.78" stroke="#263238" stroke-width="0.75" stroke-miterlimit="10" stroke-linecap="round"/>
</g>
<defs>
<clipPath id="clip0_16_3">
<rect width="602.946" height="416.649" fill="white" transform="matrix(-0.970895 -0.239504 -0.239504 0.970895 685.187 144.408)"/>
</clipPath>
</defs>
</svg>
