<svg width="100" height="100" viewBox="0 0 100 100" fill="none" xmlns="http://www.w3.org/2000/svg">
<g clip-path="url(#clip0_2_333)">
<path d="M28.75 9.375H51.25C51.9375 9.375 52.5 10.0781 52.5 10.9375V18.75H27.5V10.9375C27.5 10.0781 28.0625 9.375 28.75 9.375ZM20 10.9375V18.75H10C4.48438 18.75 0 24.3555 0 31.25V50H30H55H56.2812C61.3281 42.3633 68.9531 37.5 77.5 37.5C78.3438 37.5 79.1719 37.5391 80 37.6367V31.25C80 24.3555 75.5156 18.75 70 18.75H60V10.9375C60 4.90234 56.0781 0 51.25 0H28.75C23.9219 0 20 4.90234 20 10.9375ZM50 68.75H35C32.2344 68.75 30 65.957 30 62.5V56.25H0V81.25C0 88.1445 4.48438 93.75 10 93.75H56.2812C52.3594 87.8125 50 80.1758 50 71.875C50 70.8203 50.0312 69.7852 50.1094 68.75H50ZM100 71.875C100 64.4158 97.6295 57.2621 93.4099 51.9876C89.1903 46.7132 83.4674 43.75 77.5 43.75C71.5326 43.75 65.8097 46.7132 61.5901 51.9876C57.3705 57.2621 55 64.4158 55 71.875C55 79.3342 57.3705 86.4879 61.5901 91.7624C65.8097 97.0368 71.5326 100 77.5 100C83.4674 100 89.1903 97.0368 93.4099 91.7624C97.6295 86.4879 100 79.3342 100 71.875ZM77.5 56.25C78.875 56.25 80 57.6562 80 59.375V68.75H85C86.375 68.75 87.5 70.1562 87.5 71.875C87.5 73.5938 86.375 75 85 75H77.5C76.125 75 75 73.5938 75 71.875V59.375C75 57.6562 76.125 56.25 77.5 56.25Z" fill="white"/>
</g>
<defs>
<clipPath id="clip0_2_333">
<rect width="100" height="100" fill="white"/>
</clipPath>
</defs>
</svg>
