<svg width="709" height="682" viewBox="0 0 709 682" fill="none" xmlns="http://www.w3.org/2000/svg">
<path d="M709 521.594H0V521.935H709V521.594Z" fill="#EBEBEB"/>
<path d="M637.958 543.54H590.994V543.881H637.958V543.54Z" fill="#EBEBEB"/>
<path d="M469.67 547.25H457.348V547.591H469.67V547.25Z" fill="#EBEBEB"/>
<path d="M589.576 530.882H562.365V531.223H589.576V530.882Z" fill="#EBEBEB"/>
<path d="M135.632 533.174H74.3883V533.515H135.632V533.174Z" fill="#EBEBEB"/>
<path d="M157.242 533.174H148.266V533.515H157.242V533.174Z" fill="#EBEBEB"/>
<path d="M319.263 538.93H186.424V539.271H319.263V538.93Z" fill="#EBEBEB"/>
<path d="M336.066 460.759H62.2644C60.1194 460.756 58.0636 459.933 56.5482 458.473C55.0329 457.013 54.1818 455.034 54.1818 452.971V82.7402C54.2004 80.6888 55.0598 78.7273 56.5731 77.2818C58.0865 75.8363 60.1316 75.0235 62.2644 75.02H336.066C338.213 75.02 340.273 75.8406 341.791 77.3012C343.31 78.7618 344.163 80.7428 344.163 82.8084V452.971C344.163 455.036 343.31 457.017 341.791 458.478C340.273 459.939 338.213 460.759 336.066 460.759ZM62.2644 75.2928C60.2134 75.2964 58.2478 76.0826 56.7989 77.4789C55.35 78.8752 54.5363 80.7674 54.5363 82.7402V452.971C54.5363 454.944 55.35 456.836 56.7989 458.232C58.2478 459.628 60.2134 460.415 62.2644 460.418H336.066C338.118 460.415 340.085 459.629 341.536 458.233C342.988 456.837 343.805 454.945 343.808 452.971V82.7402C343.805 80.7662 342.988 78.874 341.536 77.4781C340.085 76.0822 338.118 75.2964 336.066 75.2928H62.2644Z" fill="#EBEBEB"/>
<path d="M642.794 460.759H368.978C366.832 460.756 364.774 459.934 363.257 458.474C361.739 457.014 360.885 455.035 360.881 452.971V82.7402C360.903 80.6876 361.766 78.7261 363.281 77.281C364.797 75.8358 366.844 75.0235 368.978 75.02H642.794C644.924 75.0271 646.965 75.8415 648.476 77.2866C649.986 78.7317 650.843 80.6912 650.862 82.7402V452.971C650.862 455.032 650.013 457.009 648.501 458.468C646.988 459.928 644.936 460.752 642.794 460.759ZM368.978 75.2928C366.926 75.2964 364.958 76.0822 363.507 77.4781C362.056 78.874 361.239 80.7662 361.235 82.7402V452.971C361.239 454.945 362.056 456.837 363.507 458.233C364.958 459.629 366.926 460.415 368.978 460.418H642.794C644.846 460.415 646.813 459.629 648.264 458.233C649.715 456.837 650.532 454.945 650.536 452.971V82.7402C650.532 80.7662 649.715 78.874 648.264 77.4781C646.813 76.0822 644.846 75.2964 642.794 75.2928H368.978Z" fill="#EBEBEB"/>
<path d="M211.892 270.74H202.349V521.935H211.892V270.74Z" fill="#F5F5F5"/>
<path d="M249.625 302.631H240.082V521.935H249.625V302.631Z" fill="#F5F5F5"/>
<path d="M287.003 334.521H277.46V521.935H287.003V334.521Z" fill="#F5F5F5"/>
<path d="M324.396 313.256H314.853V521.935H324.396V313.256Z" fill="#F5F5F5"/>
<path d="M361.788 302.631H352.245V521.935H361.788V302.631Z" fill="#F5F5F5"/>
<path d="M399.167 281.366H389.624V521.935H399.167V281.366Z" fill="#F5F5F5"/>
<path d="M436.56 292.005H427.017V521.935H436.56V292.005Z" fill="#F5F5F5"/>
<path d="M473.952 281.366H464.409V521.935H473.952V281.366Z" fill="#F5F5F5"/>
<path d="M511.331 260.101H501.788V521.921H511.331V260.101Z" fill="#F5F5F5"/>
<path d="M548.723 238.85H539.18V521.935H548.723V238.85Z" fill="#F5F5F5"/>
<path d="M586.102 217.585H576.559V521.935H586.102V217.585Z" fill="#F5F5F5"/>
<path d="M282.182 319.585C281.65 319.565 281.145 319.356 280.764 318.999L200.874 244.074C200.47 243.694 200.239 243.176 200.232 242.632C200.225 242.088 200.444 241.565 200.838 241.176C201.233 240.787 201.773 240.565 202.338 240.558C202.903 240.552 203.447 240.762 203.852 241.142L282.451 314.866L393.155 237.118C393.583 236.824 394.109 236.692 394.632 236.747C395.155 236.803 395.639 237.041 395.991 237.418L432.235 276.892L582.259 194.206C582.502 194.073 582.77 193.987 583.048 193.953C583.325 193.919 583.607 193.938 583.877 194.009C584.147 194.08 584.4 194.201 584.621 194.366C584.842 194.531 585.027 194.736 585.166 194.97C585.305 195.204 585.394 195.462 585.429 195.729C585.465 195.996 585.445 196.267 585.371 196.526C585.297 196.786 585.171 197.029 585 197.242C584.828 197.455 584.615 197.633 584.372 197.766L432.844 281.298C432.419 281.529 431.923 281.613 431.441 281.536C430.959 281.459 430.518 281.226 430.193 280.875L394.091 241.592L283.487 319.19C283.109 319.456 282.65 319.595 282.182 319.585Z" fill="#F0F0F0"/>
<path d="M273.178 520.366L203.455 255.873L206.943 242.656H203.313V167.117H193.954V242.656H190.324L193.812 255.873L124.075 520.366H133.732L193.954 291.923V521.757H203.313V291.923L263.535 520.366H273.178Z" fill="#E0E0E0"/>
<path d="M251.168 253.245C258.017 225.333 240.046 197.366 211.029 190.778C182.012 184.19 152.937 201.477 146.089 229.389C139.24 257.3 157.211 285.268 186.228 291.856C215.245 298.443 244.32 281.157 251.168 253.245Z" fill="#E6E6E6"/>
<path d="M198.633 285.663C224.086 285.663 244.718 265.815 244.718 241.333C244.718 216.85 224.086 197.003 198.633 197.003C173.181 197.003 152.548 216.85 152.548 241.333C152.548 265.815 173.181 285.663 198.633 285.663Z" fill="#F5F5F5"/>
<path d="M198.633 276.033C218.557 276.033 234.707 260.497 234.707 241.332C234.707 222.168 218.557 206.632 198.633 206.632C178.71 206.632 162.56 222.168 162.56 241.332C162.56 260.497 178.71 276.033 198.633 276.033Z" fill="#E6E6E6"/>
<path d="M209.955 267.601C225.041 261.591 232.204 244.954 225.956 230.443C219.707 215.932 202.412 209.041 187.327 215.052C172.241 221.063 165.077 237.699 171.326 252.21C177.575 266.721 194.87 273.612 209.955 267.601Z" fill="#F5F5F5"/>
<path d="M218.598 245.851C221.201 235.242 214.371 224.611 203.342 222.107C192.313 219.604 181.262 226.174 178.659 236.783C176.056 247.392 182.886 258.022 193.915 260.526C204.944 263.03 215.995 256.46 218.598 245.851Z" fill="#E6E6E6"/>
<path d="M204.279 254.42C211.796 251.425 215.366 243.134 212.252 235.903C209.139 228.672 200.52 225.238 193.003 228.233C185.485 231.229 181.915 239.519 185.029 246.75C188.143 253.981 196.761 257.415 204.279 254.42Z" fill="#F5F5F5"/>
<path d="M205.312 241.333C205.312 242.606 204.919 243.852 204.183 244.911C203.447 245.97 202.401 246.795 201.177 247.282C199.953 247.769 198.607 247.895 197.308 247.646C196.01 247.396 194.817 246.782 193.882 245.88C192.946 244.978 192.31 243.83 192.053 242.58C191.797 241.33 191.931 240.035 192.44 238.859C192.949 237.683 193.809 236.679 194.911 235.973C196.014 235.267 197.309 234.892 198.633 234.894C199.512 234.894 200.381 235.061 201.193 235.385C202.004 235.708 202.741 236.183 203.361 236.781C203.981 237.379 204.473 238.089 204.808 238.87C205.143 239.651 205.314 240.488 205.312 241.333Z" fill="#E6E6E6"/>
<path d="M129.35 198.503L130.81 207.887L120.658 211.175L130.81 216.303L140.935 212.88L139.162 203.632L129.35 198.503Z" fill="#E6E6E6"/>
<path d="M198.633 242.697C198.407 242.694 198.184 242.643 197.981 242.546L125.337 206.728C125.014 206.557 124.772 206.272 124.664 205.933C124.556 205.594 124.589 205.227 124.757 204.911C124.925 204.595 125.214 204.355 125.563 204.241C125.912 204.127 126.294 204.148 126.627 204.3L199.272 240.064C199.606 240.228 199.859 240.512 199.976 240.854C200.092 241.197 200.064 241.57 199.895 241.892C199.786 242.127 199.609 242.327 199.385 242.47C199.162 242.612 198.901 242.691 198.633 242.697Z" fill="#E0E0E0"/>
<path d="M298.602 182.994C298.595 181.117 299.047 179.265 299.92 177.587C300.793 175.909 302.063 174.451 303.629 173.331C305.195 172.211 307.012 171.46 308.934 171.139C310.856 170.818 312.83 170.935 314.697 171.482C314.142 167.863 314.406 164.171 315.468 160.659C316.531 157.146 318.369 153.896 320.856 151.128C323.343 148.36 326.421 146.141 329.88 144.621C333.339 143.101 337.098 142.316 340.901 142.32C342.533 142.319 344.161 142.465 345.765 142.756C348.375 138.631 352.308 135.434 356.972 133.647C361.636 131.86 366.778 131.581 371.621 132.851C376.465 134.122 380.748 136.872 383.824 140.689C386.9 144.505 388.602 149.181 388.674 154.009H389.071C394.727 154.009 400.152 156.171 404.151 160.018C408.151 163.865 410.398 169.083 410.398 174.524C410.398 179.965 408.151 185.183 404.151 189.03C400.152 192.877 394.727 195.038 389.071 195.038H310.74C307.484 194.949 304.393 193.641 302.125 191.391C299.858 189.141 298.594 186.128 298.602 182.994Z" fill="#F0F0F0"/>
<path d="M521.072 176.392C521.072 174.855 521.707 173.381 522.838 172.293C523.968 171.206 525.501 170.595 527.099 170.595C527.685 170.601 528.267 170.683 528.829 170.841C528.739 170.254 528.691 169.661 528.687 169.068C528.686 167.263 529.099 165.481 529.896 163.847C530.692 162.214 531.854 160.769 533.297 159.617C534.741 158.464 536.43 157.632 538.246 157.179C540.062 156.726 541.959 156.664 543.803 156.996C545.066 155.013 546.965 153.478 549.214 152.622C551.463 151.766 553.939 151.637 556.271 152.252C558.603 152.867 560.665 154.195 562.145 156.035C563.625 157.874 564.443 160.126 564.477 162.452H564.662C567.388 162.452 570.003 163.494 571.931 165.349C573.859 167.203 574.942 169.719 574.942 172.341C574.942 174.964 573.859 177.479 571.931 179.334C570.003 181.189 567.388 182.23 564.662 182.23H526.929C525.352 182.191 523.854 181.557 522.758 180.465C521.662 179.373 521.057 177.91 521.072 176.392Z" fill="#F0F0F0"/>
<path d="M134.313 183.608C134.313 183.096 134.418 182.59 134.622 182.117C134.826 181.645 135.125 181.216 135.502 180.854C135.878 180.493 136.326 180.207 136.818 180.013C137.31 179.818 137.837 179.719 138.368 179.721C138.762 179.72 139.154 179.775 139.531 179.884C139.469 179.487 139.436 179.086 139.432 178.684C139.451 176.519 140.353 174.448 141.944 172.917C143.536 171.386 145.689 170.518 147.94 170.5C148.473 170.502 149.005 170.552 149.528 170.65C150.37 169.309 151.643 168.268 153.155 167.686C154.667 167.104 156.335 167.011 157.906 167.423C159.477 167.835 160.866 168.728 161.862 169.968C162.858 171.207 163.406 172.725 163.425 174.292H163.552C165.331 174.369 167.011 175.104 168.242 176.342C169.472 177.581 170.159 179.228 170.159 180.941C170.159 182.655 169.472 184.302 168.242 185.54C167.011 186.779 165.331 187.513 163.552 187.591H138.255C137.724 187.579 137.201 187.466 136.716 187.259C136.23 187.052 135.792 186.755 135.426 186.385C135.06 186.015 134.773 185.58 134.582 185.103C134.391 184.627 134.3 184.119 134.313 183.608Z" fill="#F0F0F0"/>
<path d="M354.5 583.192C506.343 583.192 629.436 576.279 629.436 567.751C629.436 559.224 506.343 552.311 354.5 552.311C202.657 552.311 79.564 559.224 79.564 567.751C79.564 576.279 202.657 583.192 354.5 583.192Z" fill="#F5F5F5"/>
<path d="M196.223 307.664L205.95 302.317C205.95 302.317 209.694 296.766 210.814 296.506C211.934 296.247 224.271 296.506 224.271 296.506C224.271 296.506 222.413 304.199 222.215 305.713C222.016 307.227 210.247 305.713 210.247 305.713L200.718 311.169L196.223 307.664Z" fill="#EBB376"/>
<path d="M105.627 556.512L95.4455 554.562C95.2637 554.561 95.0871 554.62 94.9452 554.729C94.8032 554.838 94.7046 554.991 94.6656 555.162L91.9289 564.955C91.8712 565.29 91.9453 565.633 92.1367 565.918C92.3281 566.203 92.6231 566.409 92.964 566.497H93.2618C96.8635 566.497 99.4868 566.224 103.996 566.224C106.832 566.224 115.17 566.51 119.013 566.51C122.855 566.51 123.366 562.855 121.849 562.527C114.759 561.041 109.484 558.995 107.229 557.071C106.792 556.689 106.217 556.488 105.627 556.512Z" fill="#263238"/>
<path d="M230.226 556.185H219.109C218.927 556.181 218.749 556.239 218.606 556.349C218.464 556.459 218.366 556.613 218.329 556.785L216.514 564.696C216.461 565.031 216.539 565.372 216.733 565.654C216.927 565.937 217.223 566.14 217.564 566.224H217.861C221.463 566.156 224.072 565.951 228.596 565.951C231.432 565.951 239.77 566.224 243.612 566.224C247.455 566.224 247.951 562.582 246.377 562.241C239.287 560.768 234.013 558.708 231.758 556.785C231.558 556.591 231.319 556.438 231.056 556.335C230.793 556.232 230.511 556.181 230.226 556.185Z" fill="#263238"/>
<path d="M125.252 376.014L172.329 364.529C183.007 386.953 222.186 479.023 231.687 555.625L215.749 559.513C215.749 559.513 187.53 446.546 163.864 413.565C163.864 413.565 162.602 463.705 160.035 471.003C157.923 477.004 109.47 557.303 109.47 557.303L93.7297 555.598C93.7297 555.598 133.292 473.649 135.617 463.433C137.262 456.476 130.059 405.381 130.059 405.381C128.797 400.825 126.897 381.961 126.897 381.961C126.897 381.961 125.479 376.955 125.252 376.014Z" fill="#407BFF"/>
<path opacity="0.2" d="M163.878 413.592C167.873 419.406 171.359 425.528 174.3 431.897C171.039 414.247 160.929 397.156 160.929 397.156L163.878 413.592Z" fill="black"/>
<path opacity="0.3" d="M125.252 376.014L172.329 364.529C183.007 386.953 222.186 479.023 231.687 555.625L215.749 559.513C215.749 559.513 187.53 446.546 163.864 413.565C163.864 413.565 162.602 463.705 160.035 471.003C157.923 477.004 109.47 557.303 109.47 557.303L93.7297 555.598C93.7297 555.598 133.292 473.649 135.617 463.433C137.262 456.476 130.059 405.381 130.059 405.381C128.797 400.825 126.897 381.961 126.897 381.961C126.897 381.961 125.479 376.955 125.252 376.014Z" fill="black"/>
<path d="M207.099 308.441C207.099 308.441 185.63 322.381 179.972 323.118C177.718 323.418 173.067 322.681 168.26 321.754C160.971 320.254 153.371 318.153 153.371 318.153L152.421 311.238L151.414 303.845C153.116 303.299 175.321 312.029 178.64 313.393C181.958 314.757 203.412 302.481 203.412 302.481L207.099 308.441Z" fill="#263238"/>
<path d="M140.708 372.822L142.098 378.06L126.897 381.961L125.479 376.532L140.708 372.822Z" fill="black"/>
<path d="M164.686 366.971L166.005 371.936L143.785 377.637L142.396 372.413L164.686 366.971Z" fill="black"/>
<path d="M174.754 369.699L167.678 371.513L166.374 366.561L172.868 364.979L174.754 369.699Z" fill="black"/>
<path d="M152.598 375.379L161.367 373.239L159.764 367.158L150.995 369.297L152.598 375.379Z" fill="white"/>
<path d="M172.854 364.966L125.465 376.532C123.153 370.517 120.799 364.461 118.502 358.555C116.815 354.231 115.156 349.989 113.539 345.883C113.133 344.828 112.721 343.792 112.306 342.773L110.888 339.145C109.838 336.49 108.827 333.93 107.853 331.466L105.244 324.905L104.01 321.795L101.671 315.93L151.428 303.79C167.834 331.329 172.854 364.966 172.854 364.966Z" fill="#263238"/>
<path d="M119.736 314.757C124.855 317.116 134.299 312.956 134.299 312.956C134.299 312.956 137.432 309.628 135.561 308.155C131.76 308.632 132.002 307.432 130.626 305.563C129.84 304.384 129.3 303.068 129.038 301.69C128.868 300.928 128.74 300.159 128.655 299.384L113.724 294.228C117.113 299.493 122.373 309.464 119.736 314.757Z" fill="#EBB376"/>
<path opacity="0.2" d="M118.261 298.934C120.955 305.822 127.563 306.027 130.626 305.563C129.84 304.384 129.3 303.068 129.038 301.69L118.261 298.934Z" fill="black"/>
<path d="M137.716 272.8C137.716 272.8 141.616 284.121 135.986 289.645C130.357 295.17 126.542 273.523 126.542 273.523L137.716 272.8Z" fill="#263238"/>
<path d="M118.999 301.976C120.683 303.667 122.897 304.78 125.302 305.144C127.707 305.509 130.17 305.105 132.314 303.995C135.124 302.598 137.274 300.222 138.326 297.352C138.468 296.97 138.595 296.561 138.709 296.152C140.609 288.527 139.418 275.937 130.782 272.554C128.879 271.8 126.806 271.526 124.762 271.759C122.718 271.992 120.769 272.725 119.102 273.887C117.435 275.049 116.105 276.602 115.238 278.398C114.371 280.194 113.996 282.174 114.149 284.148C114.659 292.646 114.546 297.638 118.999 301.976Z" fill="#EBB376"/>
<path d="M127.521 286.563C127.521 287.245 127.889 287.804 128.371 287.804C128.854 287.804 129.208 287.245 129.222 286.563C129.236 285.881 128.839 285.308 128.371 285.308C127.903 285.308 127.521 285.867 127.521 286.563Z" fill="#263238"/>
<path d="M135.632 286.563C135.632 287.258 136.014 287.818 136.482 287.818C136.95 287.818 137.319 287.245 137.333 286.563C137.347 285.881 136.936 285.322 136.482 285.322C136.029 285.322 135.632 285.908 135.632 286.563Z" fill="#263238"/>
<path d="M133.051 286.904C133.899 289.016 135.049 291.004 136.468 292.81C135.976 293.149 135.412 293.38 134.816 293.486C134.221 293.592 133.608 293.571 133.022 293.424L133.051 286.904Z" fill="#D58745"/>
<path d="M138.595 283.371C138.527 283.405 138.452 283.422 138.375 283.422C138.299 283.422 138.224 283.405 138.156 283.371C137.736 283.061 137.247 282.85 136.727 282.755C136.208 282.66 135.672 282.684 135.164 282.825C135.06 282.863 134.945 282.86 134.844 282.817C134.743 282.773 134.664 282.693 134.625 282.594C134.585 282.494 134.589 282.384 134.634 282.286C134.679 282.189 134.763 282.113 134.866 282.075C135.502 281.882 136.177 281.839 136.834 281.951C137.49 282.063 138.109 282.325 138.638 282.716C138.684 282.745 138.724 282.783 138.755 282.827C138.786 282.871 138.808 282.921 138.818 282.973C138.829 283.025 138.828 283.079 138.817 283.131C138.805 283.183 138.783 283.232 138.751 283.276C138.704 283.314 138.651 283.346 138.595 283.371Z" fill="#263238"/>
<path d="M125.918 283.467C125.837 283.456 125.76 283.428 125.691 283.385C125.613 283.308 125.57 283.205 125.57 283.098C125.57 282.991 125.613 282.888 125.691 282.812C126.187 282.375 126.785 282.061 127.434 281.894C128.084 281.728 128.765 281.715 129.421 281.857C129.524 281.889 129.611 281.957 129.664 282.048C129.717 282.14 129.731 282.247 129.704 282.348C129.671 282.451 129.599 282.538 129.501 282.591C129.404 282.645 129.289 282.66 129.18 282.634C128.662 282.535 128.128 282.554 127.62 282.692C127.112 282.829 126.646 283.081 126.259 283.426C126.208 283.455 126.152 283.473 126.093 283.481C126.034 283.488 125.975 283.483 125.918 283.467Z" fill="#263238"/>
<path d="M120.615 273.618L121.466 275.187C118.63 276.237 119.339 279.456 120.048 280.889C121.466 283.971 119.835 288.922 117.439 290.982C117.439 290.982 117.283 289.618 116.106 290C114.929 290.382 115.609 297.447 118.105 300.721C118.105 300.721 114.433 297.816 112.079 290.477C109.909 283.657 109.399 277.97 110.746 275.242L120.615 273.618Z" fill="#263238"/>
<path d="M110.292 291.132C110.774 292.085 111.447 292.936 112.272 293.638C113.097 294.341 114.057 294.879 115.099 295.224C117.935 296.124 119.353 293.765 118.786 291.132C118.19 288.827 116.049 285.485 113.114 285.744C112.495 285.811 111.903 286.025 111.392 286.367C110.88 286.709 110.466 287.168 110.186 287.703C109.905 288.238 109.768 288.832 109.787 289.431C109.806 290.029 109.979 290.614 110.292 291.132Z" fill="#EBB376"/>
<path d="M120.53 305.386C124.699 308.196 132.824 309.11 136.809 304.022C140.793 298.934 139.517 290.764 139.517 290.764C139.059 292.589 138.188 294.294 136.965 295.756C134.71 293.137 130.881 294.624 130.881 294.624C130.075 293.614 128.917 292.917 127.62 292.66C125.762 292.483 120.53 292.783 120.53 292.783C118.857 291.76 118.786 287.204 118.786 287.204L117.765 288.022C117.765 288.022 116.347 302.562 120.53 305.386Z" fill="#263238"/>
<path d="M131.675 276.51C131.675 276.51 141.601 271.872 140.424 267.235C139.248 262.597 136.355 267.89 136.355 267.89C136.355 267.89 137.688 264.37 135.079 263.798C132.469 263.225 133.292 265.475 131.874 266.826C130.456 268.176 116.701 266.212 112.263 268.858C107.825 271.504 111.214 280.657 111.214 280.657C113.835 278.125 117.167 276.385 120.802 275.648C124.436 274.912 128.215 275.211 131.675 276.51Z" fill="#263238"/>
<path opacity="0.2" d="M120.53 305.386C124.699 308.196 132.824 309.11 136.809 304.022C140.793 298.934 139.517 290.764 139.517 290.764C139.059 292.589 138.188 294.294 136.965 295.756C134.71 293.137 130.881 294.624 130.881 294.624C130.075 293.614 128.917 292.917 127.62 292.66C125.762 292.483 120.53 292.783 120.53 292.783C118.857 291.76 118.786 287.204 118.786 287.204L117.765 288.022C117.765 288.022 116.347 302.562 120.53 305.386Z" fill="white"/>
<path d="M131.307 297.216C130.544 298.198 129.856 299.233 129.251 300.312L128.613 300.08C125.777 299.084 124.756 297.72 124.529 296.493C124.437 295.898 124.49 295.291 124.685 294.72C124.788 294.389 124.936 294.072 125.124 293.778C126.616 295.148 128.395 296.195 130.343 296.847C130.924 297.093 131.307 297.216 131.307 297.216Z" fill="#263238"/>
<path d="M130.343 296.861L129.704 297.761C127.01 296.82 125.238 295.811 124.685 294.733C124.788 294.402 124.936 294.086 125.124 293.792C126.616 295.162 128.395 296.208 130.343 296.861Z" fill="white"/>
<path d="M128.613 300.08C125.777 299.084 124.756 297.72 124.529 296.493C125.612 296.898 126.614 297.479 127.492 298.211C128.061 298.705 128.453 299.359 128.613 300.08Z" fill="#DE5753"/>
<path d="M136.171 312.97L135.334 320.035L150.648 351.421L149.131 355.581L144.126 353.358L133.207 321.345L125.181 316.121L131.023 313.038L136.171 312.97Z" fill="#407BFF"/>
<path d="M120.076 308.141L130.215 312.165L130.626 305.563L138.099 307.336L138.737 317.389L131.548 314.566L128.542 321.004L115.766 312.792L120.076 308.141Z" fill="#263238"/>
<path opacity="0.2" d="M120.076 308.141L130.215 312.165L130.626 305.563L138.099 307.336L138.737 317.389L131.548 314.566L128.542 321.004L115.766 312.792L120.076 308.141Z" fill="white"/>
<path opacity="0.2" d="M110.873 339.145C109.824 336.49 108.813 333.93 107.839 331.466L105.23 324.905L103.996 321.795C105.414 321.127 109.03 321.522 110.037 323.159C113.724 329.351 110.873 339.145 110.873 339.145Z" fill="black"/>
<path opacity="0.2" d="M128.641 346.074C128.035 348.754 126.809 351.268 125.054 353.428C123.298 355.589 121.059 357.341 118.502 358.555C116.815 354.231 115.156 349.989 113.539 345.883C113.133 344.828 112.722 343.792 112.306 342.773L110.888 339.145L127.308 341.15L128.641 346.074Z" fill="black"/>
<path opacity="0.2" d="M168.26 321.699C160.971 320.199 153.371 318.098 153.371 318.098L152.421 311.183C152.421 311.183 165.821 312.561 168.26 321.699Z" fill="black"/>
<path d="M101.656 482.856C101.212 482.87 100.774 482.75 100.404 482.513C100.034 482.275 99.7511 481.932 99.5945 481.531C99.438 481.131 99.416 480.693 99.5315 480.28C99.647 479.867 99.8942 479.499 100.238 479.228C123.905 460.541 123.451 431.256 123.012 402.926C122.671 381.565 122.359 361.378 132.81 347.656C147.472 328.369 206.447 297.775 216.217 296.902C223.207 296.234 436.432 239.232 548.213 209.183C548.756 209.037 549.338 209.104 549.83 209.37C550.322 209.636 550.684 210.079 550.836 210.602C550.989 211.124 550.919 211.684 550.642 212.157C550.366 212.63 549.905 212.979 549.362 213.125C536.132 216.685 225.377 300.203 216.614 300.98C208.205 301.73 149.826 332.202 136.241 350.084C126.642 362.701 126.939 382.22 127.266 402.871C127.691 430.806 128.187 462.478 102.933 482.406C102.571 482.688 102.122 482.846 101.656 482.856Z" fill="#263238"/>
<path opacity="0.4" d="M549.432 213.111L520.278 220.968C440.09 242.492 223.916 300.353 216.685 300.994C208.276 301.744 149.897 332.216 136.312 350.098C126.712 362.715 127.01 382.234 127.336 402.885C127.762 430.819 128.258 462.492 103.004 482.42C102.606 482.737 102.101 482.902 101.586 482.883C101.141 482.898 100.703 482.777 100.333 482.54C99.9632 482.302 99.6801 481.959 99.5236 481.558C99.3671 481.158 99.345 480.72 99.4605 480.307C99.576 479.894 99.8233 479.526 100.168 479.255C123.834 460.568 123.38 431.283 122.941 402.953C122.6 381.593 122.288 361.405 132.739 347.684C147.401 328.397 206.376 297.802 216.146 296.929C222.725 296.302 411.631 245.861 527.085 214.871L548.142 209.21C548.686 209.064 549.267 209.131 549.759 209.397C550.251 209.663 550.613 210.106 550.765 210.629C550.918 211.152 550.848 211.711 550.571 212.184C550.295 212.658 549.834 213.006 549.291 213.152L549.432 213.111Z" fill="white"/>
<path opacity="0.2" d="M549.432 213.111L520.278 220.968C522.322 218.662 524.656 216.609 527.227 214.857L548.284 209.197C548.827 209.05 549.409 209.117 549.901 209.383C550.393 209.649 550.755 210.093 550.907 210.615C551.059 211.138 550.99 211.698 550.713 212.171C550.436 212.644 549.976 212.992 549.432 213.139V213.111Z" fill="black"/>
<path d="M116.148 342.091L127.294 341.15C127.294 341.15 133.122 337.604 134.242 337.836C135.362 338.067 146.465 343.292 146.465 343.292C146.465 343.292 141.431 349.525 140.595 350.821C139.758 352.117 129.733 346.006 129.733 346.006L118.687 347.138L116.148 342.091Z" fill="#EBB376"/>
<path d="M101.656 315.93C96.5941 319.408 83.4067 347.765 84.8105 352.144C86.2143 356.522 127.251 347.888 127.251 347.888L125.436 340.509H103.358L108.605 332.543C108.605 332.543 111.838 329.515 109.852 322.477C108.42 317.403 101.656 315.93 101.656 315.93Z" fill="#263238"/>
<path d="M529.212 318.78L520.803 314.948C520.803 314.948 516.549 307.118 515.301 305.863C514.053 304.608 508.027 309.478 508.027 310.324C508.027 311.169 512.394 319.081 513.529 319.558C515.217 319.796 516.932 319.796 518.619 319.558L526.617 323.282L529.212 318.78Z" fill="#9F5B53"/>
<path d="M548.837 270.263L550.524 264.466C550.524 264.466 553.19 256.909 552.907 255.164C552.385 253.097 551.712 251.069 550.893 249.094C550.893 249.094 543.519 257.728 543.519 258.805C543.519 259.883 546.44 263.798 546.44 263.798L545.022 270.263H548.837Z" fill="#9F5B53"/>
<path d="M555.317 313.447C555.317 313.447 548.965 305.85 547.093 298.784C545.221 291.719 550.879 268.776 550.879 268.776L544.909 267.249C544.909 267.249 537.819 290.723 537.578 299.289C537.337 307.855 550.581 332.993 550.581 332.993L555.317 313.447Z" fill="#407BFF"/>
<path opacity="0.2" d="M551.474 329.215L550.567 332.939C550.567 332.939 546.001 324.277 542.271 315.384C546.152 318.066 549.079 321.833 550.652 326.173C551.012 327.164 551.287 328.181 551.474 329.215Z" fill="black"/>
<path d="M588.952 330.088C588.872 331.673 588.673 333.25 588.357 334.807C587.704 338.217 586.598 342.241 585.336 346.674C584.656 349.007 583.918 351.503 583.266 354.135C580.104 365.961 578.388 370.667 576.048 385.766L531.169 375.523C533.594 362.597 537.293 349.923 542.215 337.672C543.519 334.412 545.051 331.152 546.596 327.933C549.075 322.886 551.992 318.049 555.317 313.474C555.317 313.474 562.577 319.858 585.379 323.691C588.144 324.1 589.094 326.419 588.952 330.088Z" fill="#407BFF"/>
<path opacity="0.2" d="M583.308 325.164C583.308 326.528 588.683 333.021 588.357 334.712C587.747 335.108 587.024 335.544 586.201 336.076C571.014 344.574 551.091 340.263 542.243 337.631C543.548 334.371 546.497 328.383 548.029 325.164L558.678 327.442C558.678 327.442 576.091 323.623 583.308 325.164Z" fill="black"/>
<path d="M565.059 316.052C566.689 315.452 580.075 318.658 579.083 318.931C578.09 319.203 573.099 333.934 566.108 332.83C559.117 331.725 559.245 318.18 565.059 316.052Z" fill="#407BFF"/>
<path d="M504.453 557.412L496.031 559.172L491.11 540.54L499.547 538.78L504.453 557.412Z" fill="#9F5B53"/>
<path d="M493.932 555.789H504.411C504.582 555.789 504.747 555.846 504.879 555.951C505.011 556.055 505.101 556.201 505.134 556.362L506.836 563.741C506.873 563.899 506.877 564.062 506.848 564.222C506.819 564.381 506.757 564.533 506.666 564.669C506.575 564.805 506.456 564.922 506.317 565.013C506.179 565.105 506.022 565.168 505.857 565.201H505.574C502.185 565.201 499.717 564.942 495.463 564.942C492.84 564.942 484.928 565.201 481.283 565.201C477.639 565.201 477.199 561.763 478.674 561.45C485.325 560.086 490.33 558.122 492.457 556.294C492.656 556.12 492.889 555.986 493.142 555.899C493.395 555.812 493.664 555.775 493.932 555.789Z" fill="#263238"/>
<path d="M491.082 557.249C490.495 557.291 489.911 557.142 489.423 556.826C489.264 556.701 489.141 556.538 489.066 556.354C488.992 556.17 488.968 555.971 488.997 555.775C488.991 555.66 489.019 555.546 489.08 555.446C489.14 555.347 489.23 555.267 489.338 555.216C490.302 554.739 493.081 556.389 493.393 556.58C493.429 556.597 493.458 556.625 493.476 556.66C493.494 556.694 493.5 556.733 493.492 556.771C493.487 556.811 493.47 556.848 493.442 556.877C493.414 556.906 493.377 556.927 493.336 556.935C492.599 557.12 491.843 557.225 491.082 557.249ZM489.791 555.53C489.709 555.503 489.619 555.503 489.536 555.53C489.536 555.53 489.408 555.598 489.394 555.762C489.38 555.891 489.398 556.022 489.447 556.143C489.496 556.264 489.576 556.372 489.678 556.457C490.642 556.881 491.737 556.935 492.741 556.607C491.839 556.068 490.838 555.702 489.791 555.53Z" fill="#407BFF"/>
<path d="M493.28 556.949H493.18C492.301 556.485 490.571 554.657 490.741 553.784C490.774 553.637 490.858 553.506 490.979 553.411C491.101 553.317 491.252 553.266 491.408 553.266C491.563 553.246 491.721 553.259 491.87 553.304C492.019 553.348 492.157 553.424 492.273 553.525C493.265 554.302 493.478 556.689 493.492 556.798C493.495 556.834 493.487 556.869 493.469 556.901C493.451 556.932 493.425 556.958 493.393 556.976C493.373 556.982 493.352 556.982 493.332 556.977C493.312 556.972 493.294 556.963 493.28 556.949ZM491.55 553.579H491.45C491.181 553.579 491.167 553.729 491.153 553.784C491.039 554.33 492.145 555.707 493.024 556.348C492.976 555.418 492.635 554.524 492.046 553.784C491.982 553.719 491.905 553.668 491.82 553.632C491.735 553.597 491.643 553.579 491.55 553.579Z" fill="#407BFF"/>
<path d="M576.417 386.899C576.417 386.899 569.143 420.262 552.127 429.183C550.174 430.239 548.034 430.937 545.817 431.242C545.817 431.242 528.559 438.062 513.642 444.514C504.567 448.456 496.357 452.302 493.421 454.458C485.651 460.145 504.68 548.942 504.68 548.942L491.748 549.078C491.748 549.078 464.537 470.457 469.06 449.82C473.584 429.183 522.42 397.592 522.42 397.592L529.935 377.705L576.417 386.899Z" fill="#263238"/>
<path opacity="0.2" d="M552.127 429.224C550.174 430.28 548.034 430.978 545.817 431.283C545.817 431.283 528.559 438.103 513.642 444.555C523.242 427.573 540.357 416.538 540.357 416.538L552.127 429.224Z" fill="black"/>
<path d="M612.874 557.412L604.451 559.172L599.53 540.54L607.968 538.78L612.874 557.412Z" fill="#9F5B53"/>
<path d="M602.352 555.789H612.831C613.002 555.789 613.168 555.846 613.3 555.951C613.431 556.055 613.522 556.201 613.554 556.362L615.256 563.741C615.293 563.899 615.298 564.062 615.268 564.222C615.239 564.381 615.177 564.533 615.086 564.669C614.995 564.805 614.877 564.922 614.738 565.013C614.599 565.105 614.442 565.168 614.278 565.201H613.994C610.605 565.201 608.138 564.942 603.884 564.942C601.26 564.942 593.348 565.201 589.704 565.201C586.059 565.201 585.62 561.763 587.094 561.45C593.745 560.086 598.75 558.122 600.877 556.294C601.076 556.12 601.309 555.986 601.562 555.899C601.815 555.812 602.084 555.775 602.352 555.789Z" fill="#263238"/>
<path d="M599.502 557.249C598.915 557.291 598.331 557.142 597.843 556.826C597.684 556.701 597.561 556.538 597.487 556.354C597.412 556.17 597.388 555.971 597.418 555.775C597.411 555.66 597.44 555.546 597.5 555.446C597.561 555.347 597.65 555.267 597.758 555.216C598.722 554.739 601.501 556.389 601.813 556.58C601.849 556.597 601.878 556.625 601.896 556.66C601.914 556.694 601.92 556.733 601.913 556.771C601.908 556.811 601.89 556.848 601.862 556.877C601.834 556.906 601.797 556.927 601.757 556.935C601.02 557.12 600.263 557.225 599.502 557.249ZM598.212 555.53C598.129 555.503 598.039 555.503 597.956 555.53C597.956 555.53 597.829 555.598 597.815 555.762C597.8 555.891 597.818 556.022 597.867 556.143C597.917 556.264 597.996 556.372 598.098 556.457C599.062 556.881 600.158 556.935 601.161 556.607C600.26 556.068 599.258 555.702 598.212 555.53Z" fill="#407BFF"/>
<path d="M601.7 556.949H601.601C600.722 556.485 598.992 554.657 599.162 553.784C599.194 553.637 599.278 553.506 599.399 553.411C599.521 553.317 599.672 553.266 599.828 553.266C599.983 553.246 600.141 553.259 600.29 553.304C600.44 553.348 600.577 553.424 600.693 553.525C601.686 554.302 601.898 556.689 601.913 556.798C601.915 556.834 601.907 556.869 601.889 556.901C601.872 556.932 601.845 556.958 601.813 556.976C601.794 556.982 601.773 556.982 601.753 556.977C601.733 556.972 601.714 556.963 601.7 556.949ZM599.97 553.579H599.814C599.545 553.579 599.53 553.729 599.516 553.784C599.403 554.33 600.509 555.707 601.388 556.348C601.333 555.404 600.976 554.499 600.367 553.757C600.259 553.657 600.119 553.595 599.97 553.579Z" fill="#407BFF"/>
<path d="M579.324 323.118C577.211 324.482 567.469 323.964 567.469 323.964L562.946 328.724L562.506 320.854C562.506 320.854 559.458 319.64 560.294 318.794C561.355 318.87 562.42 318.742 563.429 318.416C564.437 318.09 565.367 317.574 566.165 316.898C568.136 315.043 568.519 312.056 568.49 309.096C568.49 309.096 568.49 309.014 568.49 308.987L576.814 304.895L582.571 302.044C579.863 307.664 575.992 318.208 579.324 323.118Z" fill="#9F5B53"/>
<path opacity="0.2" d="M579.565 306.764C576.814 313.461 569.639 316.448 566.108 316.885C568.079 315.029 568.462 312.042 568.434 309.082C568.441 309.042 568.441 309 568.434 308.96L576.757 304.868C576.771 305.959 579.962 305.741 579.565 306.764Z" fill="black"/>
<path d="M584.854 306.491C584.854 306.491 590.257 309.219 592.057 305.959C593.858 302.699 591.292 302.508 593.943 301.335C596.595 300.162 600.367 299.343 599.502 296.875C598.637 294.406 595.957 294.147 598.935 291.419C601.913 288.691 602.565 284.844 598.112 284.094C593.66 283.344 595.361 280.002 595.135 278.638C594.908 277.274 592.412 276.319 589.704 276.865C586.995 277.41 585.861 273.55 584.188 272.35C582.514 271.15 580.203 272.623 579.593 274.246C578.984 275.869 577.381 273.714 574.999 273.441C572.617 273.168 573.17 275.583 572.432 277.833C571.695 280.084 570.234 278.624 568.533 280.479C566.831 282.334 566.675 294.992 584.854 306.491Z" fill="#263238"/>
<path d="M587.208 298.716C583.138 304.854 580.827 308.905 576.261 310.897C575.646 311.169 575.011 311.397 574.361 311.579C565.484 314.088 558.167 305.863 560.507 297.72C560.952 296.25 561.521 294.818 562.209 293.437C565.385 287.04 571.496 280.493 578.799 281.352C580.324 281.52 581.799 281.975 583.141 282.692C584.483 283.409 585.664 284.374 586.618 285.53C587.572 286.687 588.279 288.014 588.699 289.433C589.119 290.853 589.243 292.339 589.065 293.806C588.851 295.559 588.215 297.24 587.208 298.716Z" fill="#9F5B53"/>
<path d="M574.715 294.624C574.418 295.238 573.779 295.511 573.382 295.306C572.985 295.101 572.943 294.433 573.269 293.86C573.595 293.287 574.219 292.974 574.602 293.178C574.985 293.383 575.056 294.065 574.715 294.624Z" fill="#263238"/>
<path d="M567.838 290.982C567.75 291.239 567.562 291.452 567.313 291.577C567.064 291.702 566.774 291.728 566.505 291.651C566.122 291.432 566.066 290.791 566.406 290.205C566.746 289.618 567.342 289.318 567.739 289.536C568.136 289.755 568.164 290.423 567.838 290.982Z" fill="#263238"/>
<path d="M569.866 292.442C568.104 293.835 566.152 294.991 564.066 295.879C564.315 296.39 564.678 296.841 565.129 297.202C565.58 297.562 566.108 297.823 566.675 297.966L569.866 292.442Z" fill="#892B29"/>
<path d="M578.828 293.096C578.754 293.107 578.678 293.099 578.608 293.073C578.538 293.046 578.477 293.003 578.431 292.946C578.143 292.539 577.76 292.202 577.311 291.965C576.862 291.728 576.362 291.597 575.85 291.582C575.79 291.593 575.729 291.591 575.671 291.577C575.612 291.562 575.558 291.535 575.511 291.498C575.465 291.461 575.427 291.414 575.402 291.362C575.376 291.309 575.363 291.252 575.363 291.194C575.363 291.135 575.376 291.078 575.402 291.025C575.427 290.973 575.465 290.926 575.511 290.889C575.558 290.852 575.612 290.825 575.671 290.811C575.729 290.796 575.79 290.794 575.85 290.805C576.496 290.809 577.132 290.964 577.702 291.256C578.273 291.548 578.761 291.969 579.125 292.483C579.159 292.522 579.184 292.568 579.198 292.618C579.213 292.667 579.217 292.719 579.21 292.77C579.204 292.821 579.187 292.87 579.16 292.914C579.133 292.959 579.097 292.997 579.054 293.028C578.986 293.068 578.908 293.092 578.828 293.096Z" fill="#263238"/>
<path d="M568.334 301.621C569.287 301.919 570.299 301.991 571.287 301.832C572.274 301.673 573.207 301.287 574.006 300.707C574.042 300.668 574.062 300.617 574.062 300.564C574.062 300.512 574.042 300.461 574.006 300.421C573.967 300.384 573.913 300.363 573.857 300.363C573.802 300.363 573.748 300.384 573.709 300.421C572.952 300.945 572.078 301.291 571.158 301.433C570.237 301.575 569.295 301.509 568.405 301.239C568.38 301.229 568.353 301.223 568.326 301.224C568.299 301.224 568.272 301.231 568.247 301.243C568.223 301.254 568.202 301.271 568.185 301.292C568.168 301.313 568.156 301.337 568.15 301.362C568.139 301.386 568.133 301.412 568.134 301.438C568.135 301.465 568.141 301.491 568.153 301.514C568.166 301.538 568.183 301.558 568.205 301.574C568.226 301.59 568.251 301.602 568.278 301.608L568.334 301.621Z" fill="#263238"/>
<path d="M567.2 285.322C567.178 285.246 567.178 285.166 567.2 285.09C567.246 284.996 567.328 284.924 567.429 284.889C567.53 284.853 567.641 284.857 567.739 284.899C568.334 285.155 568.856 285.545 569.261 286.037C569.665 286.528 569.941 287.106 570.064 287.722C570.076 287.825 570.046 287.928 569.98 288.01C569.913 288.092 569.816 288.145 569.71 288.159C569.603 288.17 569.495 288.141 569.41 288.077C569.326 288.014 569.27 287.92 569.256 287.818C569.144 287.336 568.917 286.887 568.592 286.505C568.267 286.124 567.853 285.821 567.384 285.622C567.334 285.586 567.291 285.542 567.26 285.49C567.228 285.438 567.208 285.381 567.2 285.322Z" fill="#263238"/>
<path d="M573.042 281.925C575.112 282.171 576.133 284.653 576.133 284.653C578.637 285.533 581.056 286.619 583.365 287.9C584.069 288.452 584.599 289.183 584.895 290.009C585.191 290.836 585.24 291.726 585.038 292.578C584.967 293.233 583.294 293.833 583.294 293.833C583.294 293.833 580.231 300.789 579.395 302.713L579.82 309.137C585.449 305.713 589.956 300.829 592.823 295.047C597.659 285.362 577.48 276.837 577.48 276.837L573.042 281.925Z" fill="#263238"/>
<path d="M585.989 308.428C584.103 309.421 581.886 309.656 579.82 309.082C577.083 308.291 577.239 305.591 579.267 303.858C581.082 302.358 584.726 300.871 586.839 302.617C587.302 302.997 587.657 303.483 587.872 304.03C588.088 304.577 588.156 305.168 588.071 305.747C587.987 306.326 587.751 306.876 587.387 307.344C587.023 307.813 586.542 308.185 585.989 308.428Z" fill="#9F5B53"/>
<path d="M579.083 318.931L567.81 322.054L562.946 328.397L564.265 320.636C564.265 320.636 563.059 318.849 565.059 316.052L558.196 317.416L554.055 324.073L562.109 322.259L562.662 329.993L567.356 324.673L571.199 330.511L582.628 323.541L579.083 318.931Z" fill="#407BFF"/>
<path opacity="0.2" d="M579.083 318.931L567.81 322.054L562.946 328.397L564.265 320.636C564.265 320.636 563.059 318.849 565.059 316.052L558.196 317.416L554.055 324.073L562.109 322.259L562.662 329.993L567.356 324.673L571.199 330.511L582.628 323.541L579.083 318.931Z" fill="black"/>
<path d="M531.764 371.008L530.006 377.746L576.403 386.899L577.098 379.41L531.764 371.008Z" fill="black"/>
<path d="M552.481 374.541C552.112 374.036 541.789 371.895 540.811 372.604C540.811 372.604 538.812 379.247 539.152 379.942C539.492 380.638 549.532 381.988 550.496 382.179C551.46 382.37 552.85 375.1 552.481 374.541ZM549.645 381.361C548.879 381.211 540.627 380.106 540.343 379.533C540.059 378.96 541.761 373.504 541.761 373.504C542.569 372.918 551.049 374.677 551.347 375.086C551.644 375.496 550.411 381.443 549.645 381.293V381.361Z" fill="white"/>
<path d="M550.042 376.805L547.986 376.396C547.799 376.361 547.605 376.395 547.442 376.491C547.28 376.587 547.16 376.738 547.107 376.914C547.077 377.013 547.07 377.116 547.084 377.218C547.099 377.32 547.135 377.417 547.191 377.505C547.247 377.592 547.322 377.667 547.41 377.725C547.498 377.783 547.598 377.823 547.703 377.842L549.759 378.224C549.958 378.262 550.165 378.222 550.334 378.113C550.503 378.004 550.62 377.836 550.659 377.644C550.699 377.452 550.657 377.253 550.544 377.091C550.431 376.928 550.256 376.816 550.056 376.778L550.042 376.805Z" fill="white"/>
<path d="M576.403 386.899C576.403 386.899 577.296 437.367 575.821 452.098C574.347 466.829 612.576 547.455 612.576 547.455H600.197C600.197 547.455 562.691 488.421 554.098 470.253C545.505 452.084 539.152 408.736 539.152 408.736L576.403 386.899Z" fill="#263238"/>
<path d="M589.108 326.542C587.194 322.368 557.799 328.547 555.147 327.824C552.495 327.101 524.901 315.984 524.901 315.984L522.505 321.904C522.505 321.904 547.249 335.544 552.665 337.699C558.082 339.854 579.735 338.818 585.279 336.512C586.228 336.119 587.084 335.544 587.795 334.823C588.506 334.101 589.057 333.249 589.415 332.316C589.773 331.384 589.931 330.391 589.878 329.399C589.825 328.406 589.563 327.434 589.108 326.542Z" fill="#407BFF"/>
<path d="M583.904 218.145L574.999 163.585L528.092 195.488L543.69 201.845C528.63 235.044 479.78 332.311 395.721 404.03C288.393 495.623 138.17 540.69 136.667 541.126L144.976 567.219C151.357 565.337 302.488 520.052 414.595 424.395C503.929 348.175 554.154 247.648 569.923 212.457L583.904 218.145Z" fill="#407BFF"/>
<path opacity="0.4" d="M575.396 208.597L574.999 163.585L528.092 195.488L543.69 201.845C528.63 235.044 479.78 332.311 395.721 404.03C288.393 495.623 138.17 540.69 136.667 541.126L139.304 557.671C145.685 555.789 296.816 514.596 408.923 418.939C498.257 342.719 545.646 240.828 561.415 205.637L575.396 208.597Z" fill="white"/>
<path d="M567.2 220.45C566.979 220.451 566.759 220.419 566.548 220.354L539.308 211.884C539.027 211.814 538.765 211.69 538.536 211.518C538.307 211.347 538.117 211.133 537.977 210.889C537.838 210.644 537.751 210.375 537.724 210.098C537.696 209.82 537.728 209.54 537.817 209.275C537.906 209.009 538.051 208.764 538.242 208.555C538.433 208.345 538.666 208.175 538.928 208.055C539.19 207.936 539.474 207.869 539.764 207.858C540.054 207.848 540.342 207.895 540.613 207.996L567.852 216.453C568.337 216.601 568.751 216.911 569.019 217.327C569.287 217.743 569.39 218.238 569.311 218.721C569.233 219.204 568.976 219.645 568.589 219.962C568.201 220.279 567.709 220.452 567.2 220.45Z" fill="#263238"/>
<path opacity="0.4" d="M567.2 220.45C566.979 220.451 566.759 220.419 566.548 220.354L539.308 211.884C539.027 211.814 538.765 211.69 538.536 211.518C538.307 211.347 538.117 211.133 537.977 210.889C537.838 210.644 537.751 210.375 537.724 210.098C537.696 209.82 537.728 209.54 537.817 209.275C537.906 209.009 538.051 208.764 538.242 208.555C538.433 208.345 538.666 208.175 538.928 208.055C539.19 207.936 539.474 207.869 539.764 207.858C540.054 207.848 540.342 207.895 540.613 207.996L567.852 216.453C568.337 216.601 568.751 216.911 569.019 217.327C569.287 217.743 569.39 218.238 569.311 218.721C569.233 219.204 568.976 219.645 568.589 219.962C568.201 220.279 567.709 220.452 567.2 220.45Z" fill="white"/>
<path d="M240.961 475.79C240.397 475.79 239.856 475.575 239.457 475.191C239.058 474.808 238.834 474.287 238.834 473.745C238.834 408.627 258.501 400.088 262.188 399.038L324.722 356.959L324.864 356.877L565.101 219.85C565.586 219.584 566.16 219.512 566.699 219.649C567.238 219.787 567.699 220.122 567.984 220.584C568.268 221.045 568.353 221.595 568.22 222.116C568.086 222.637 567.746 223.087 567.271 223.369L327.147 360.355L264.315 402.639C264.048 402.818 263.743 402.939 263.422 402.994C263.266 402.994 243.088 407.768 243.088 473.785C243.077 474.321 242.848 474.831 242.45 475.206C242.052 475.581 241.518 475.791 240.961 475.79Z" fill="#263238"/>
<path opacity="0.4" d="M240.961 475.79C240.397 475.79 239.856 475.575 239.457 475.191C239.058 474.808 238.834 474.287 238.834 473.745C238.834 408.627 258.501 400.088 262.188 399.038L324.722 356.959L324.864 356.877L565.101 219.85C565.586 219.584 566.16 219.512 566.699 219.649C567.238 219.787 567.699 220.122 567.984 220.584C568.268 221.045 568.353 221.595 568.22 222.116C568.086 222.637 567.746 223.087 567.271 223.369L327.147 360.355L264.315 402.639C264.048 402.818 263.743 402.939 263.422 402.994C263.266 402.994 243.088 407.768 243.088 473.785C243.077 474.321 242.848 474.831 242.45 475.206C242.052 475.581 241.518 475.791 240.961 475.79Z" fill="white"/>
<path d="M257.296 408.218C257.296 408.218 246.363 415.038 238.054 417.098C236.003 417.764 233.802 417.882 231.687 417.439C225.504 415.556 229.177 404.044 232.864 396.774C233.459 395.587 234.055 394.523 234.608 393.623L245.413 400.048C245.413 400.048 238.862 409.036 239.614 409.596C240.365 410.155 250.461 404.74 250.958 404.562C251.454 404.385 257.296 408.218 257.296 408.218Z" fill="#407BFF"/>
<path opacity="0.2" d="M257.296 408.218C257.296 408.218 246.363 415.038 238.054 417.098C235.747 410.472 234.011 403.674 232.864 396.774C233.459 395.587 234.055 394.523 234.608 393.623L245.413 400.048C245.413 400.048 238.862 409.036 239.614 409.596C240.365 410.155 250.461 404.74 250.958 404.562C251.454 404.385 257.296 408.218 257.296 408.218Z" fill="black"/>
<path d="M310.542 368.635L316.951 363.179C317.464 361.621 318.168 360.128 319.05 358.732C319.745 358.173 331.415 357.3 331.415 357.3C331.415 357.3 331.642 363.233 330.72 364.774C329.798 366.316 320.269 366.984 320.269 366.984L315.165 371.717L310.542 368.635Z" fill="#EEC1BB"/>
<path d="M344.687 497.928C342.858 523.244 337.966 559.172 337.966 559.172L331.67 560.536C331.67 560.536 325.856 530.46 326.778 502.552C326.943 496.468 327.54 490.403 328.565 484.397C328.565 484.397 306.756 476.336 291.612 469.121C284.38 465.683 278.665 462.423 277.574 460.323C274.199 453.844 289.541 438.621 289.541 438.621C290.024 438.99 299.283 444.664 310.06 451.389C324.368 460.309 341.341 471.085 344.092 473.772C345.737 475.313 345.595 485.298 344.687 497.928Z" fill="#EEC1BB"/>
<path opacity="0.2" d="M344.687 497.928C338.868 499.958 332.875 501.496 326.778 502.525C326.943 496.441 327.54 490.375 328.565 484.37C328.565 484.37 306.756 476.309 291.612 469.093L310.046 451.361C324.353 460.282 341.327 471.057 344.078 473.745C345.737 475.313 345.595 485.298 344.687 497.928Z" fill="black"/>
<path d="M295.596 434.393C295.596 434.393 356.102 467.852 364.327 475.409C372.551 482.965 420.026 553.579 420.026 553.579L416.027 557.249C416.027 557.249 376.607 524.704 360.881 493.768L295.653 463.446L295.596 434.393Z" fill="#EEC1BB"/>
<path d="M249.568 372.618C249.666 372.682 249.77 372.737 249.88 372.781C251.366 373.591 253.005 374.106 254.701 374.295C259.636 374.718 262.812 373.654 264.627 371.281C267.151 367.762 267.094 362.142 265.705 355.527C265.245 352.879 264.35 350.319 263.053 347.943C263.053 347.943 263.053 347.847 263.053 347.834L262.883 347.561C262.094 346.23 260.97 345.111 259.615 344.305C258.26 343.5 256.717 343.034 255.127 342.951C253.742 342.84 252.348 342.877 250.972 343.06C237.501 344.737 238.224 366.589 249.568 372.618Z" fill="#EEC1BB"/>
<path opacity="0.2" d="M249.937 372.781C251.426 373.546 253.061 374.01 254.744 374.145C259.664 374.568 262.826 373.34 264.67 370.953C261.912 372.011 258.871 372.178 256.006 371.431C254.954 371.197 253.861 371.197 252.809 371.431C251.757 371.665 250.775 372.127 249.937 372.781Z" fill="black"/>
<path d="M249.029 383.448C247.852 387.103 252.716 389.04 252.716 389.04C261.224 386.312 263.138 382.316 263.138 382.316C256.615 378.224 259.48 368.757 259.48 368.757L258.062 369.303L248.136 370.312C248.136 370.312 250.39 375.536 250.646 376.71C251.893 382.861 249.029 383.448 249.029 383.448Z" fill="#EBB376"/>
<path d="M263.138 347.82C263.138 347.82 265.209 356.836 256.8 361.951C256.8 361.951 254.318 371.949 248.66 372.863C240.947 374.091 232.595 364.42 233.701 353.262C235.147 338.831 257.012 334.726 263.138 347.82Z" fill="#263238"/>
<path d="M260.912 358.732C260.699 357.368 259.168 355.077 256.913 355.718C254.659 356.359 254.077 362.183 260.118 362.66C261.04 362.824 261.408 361.733 260.912 358.732Z" fill="#EBB376"/>
<path d="M417.388 549.242L410.866 554.07C410.732 554.174 410.638 554.318 410.6 554.478C410.561 554.639 410.58 554.808 410.653 554.957L413.971 561.777C414.042 561.921 414.143 562.051 414.266 562.158C414.39 562.265 414.534 562.348 414.691 562.401C414.848 562.454 415.014 562.477 415.18 562.468C415.346 562.46 415.509 562.419 415.658 562.35C415.743 562.312 415.824 562.266 415.899 562.213C418.537 560.181 418.622 559.867 421.983 557.385C424.039 555.857 430.491 551.438 433.327 549.324C436.163 547.209 434.376 544.222 433.015 544.836C426.889 547.564 421.671 549.024 418.835 548.819C418.315 548.781 417.798 548.932 417.388 549.242Z" fill="#263238"/>
<path d="M418.806 549.119C418.77 549.136 418.729 549.142 418.69 549.136C418.65 549.13 418.613 549.112 418.584 549.086C418.554 549.059 418.534 549.025 418.526 548.987C418.518 548.949 418.521 548.909 418.537 548.874C418.665 548.546 419.827 545.614 420.877 545.436C420.993 545.412 421.114 545.421 421.225 545.463C421.335 545.504 421.431 545.575 421.501 545.668C421.645 545.807 421.751 545.978 421.808 546.166C421.865 546.355 421.872 546.554 421.827 546.746C421.658 547.303 421.292 547.785 420.792 548.11C420.172 548.518 419.506 548.857 418.806 549.119ZM419.104 548.56C420.105 548.233 420.937 547.55 421.43 546.65C421.457 546.521 421.451 546.387 421.412 546.261C421.372 546.135 421.3 546.02 421.203 545.927C421.089 545.818 420.99 545.791 420.947 545.832C420.859 545.848 420.776 545.886 420.706 545.941C420.004 546.708 419.46 547.597 419.104 548.56Z" fill="#407BFF"/>
<path d="M418.792 549.187C418.757 549.188 418.722 549.182 418.69 549.167C418.658 549.153 418.63 549.132 418.608 549.105C418.608 549.01 417.19 547.005 417.488 545.805C417.521 545.659 417.585 545.521 417.675 545.399C417.765 545.277 417.88 545.174 418.012 545.095C418.133 545.002 418.283 544.952 418.438 544.952C418.592 544.952 418.742 545.002 418.863 545.095C419.558 545.682 419.345 548.123 418.934 549.01L418.863 549.078L418.792 549.187ZM417.842 545.832C417.838 546.775 418.13 547.697 418.679 548.478C419.017 547.458 418.967 546.356 418.537 545.368C418.537 545.368 418.381 545.218 418.182 545.368H418.097C417.957 545.488 417.866 545.653 417.842 545.832Z" fill="#407BFF"/>
<path d="M339.072 555.148L330.834 555.298C330.665 555.307 330.503 555.369 330.375 555.475C330.247 555.581 330.159 555.725 330.125 555.885L328.579 563.264C328.533 563.572 328.612 563.885 328.799 564.139C328.987 564.393 329.268 564.568 329.586 564.628C329.68 564.641 329.775 564.641 329.869 564.628C333.23 564.505 333.499 564.3 337.739 564.219C340.348 564.219 348.218 564.287 351.82 564.219C355.422 564.15 355.819 560.713 354.344 560.427C347.694 559.172 342.688 557.344 340.533 555.557C340.118 555.246 339.596 555.1 339.072 555.148Z" fill="#263238"/>
<path d="M339.809 556.021C339.768 556.015 339.73 555.995 339.702 555.965C339.673 555.936 339.656 555.898 339.653 555.857C339.642 555.821 339.645 555.782 339.66 555.747C339.676 555.712 339.704 555.684 339.739 555.666C340.036 555.475 342.773 553.784 343.737 554.234C343.847 554.281 343.94 554.358 344.005 554.455C344.071 554.551 344.106 554.664 344.106 554.78C344.134 554.974 344.111 555.172 344.039 555.355C343.968 555.539 343.849 555.702 343.695 555.83C343.218 556.161 342.636 556.32 342.05 556.28C341.295 556.276 340.544 556.189 339.809 556.021ZM340.391 555.734C341.397 556.044 342.488 555.971 343.44 555.53C343.54 555.441 343.616 555.33 343.66 555.206C343.705 555.082 343.717 554.95 343.695 554.821C343.695 554.671 343.61 554.602 343.567 554.602C343.478 554.583 343.386 554.583 343.298 554.602C342.263 554.8 341.277 555.185 340.391 555.734Z" fill="#407BFF"/>
<path d="M339.753 556.062C339.719 556.046 339.692 556.02 339.674 555.988C339.657 555.956 339.649 555.92 339.653 555.885C339.653 555.775 339.809 553.402 340.788 552.597C340.904 552.496 341.041 552.421 341.191 552.376C341.34 552.331 341.498 552.318 341.653 552.338C341.808 552.335 341.959 552.383 342.08 552.475C342.202 552.567 342.286 552.697 342.319 552.843C342.504 553.702 340.901 555.571 339.951 556.035H339.852C339.824 556.055 339.788 556.065 339.753 556.062ZM341.057 552.829C340.473 553.586 340.137 554.493 340.093 555.434C340.972 554.78 342.036 553.375 341.908 552.843C341.908 552.843 341.908 552.652 341.61 552.652H341.511C341.342 552.655 341.18 552.718 341.057 552.829Z" fill="#407BFF"/>
<path d="M293.909 425.432L263.89 437.558C251.482 407.891 234.608 393.623 234.608 393.623C246.633 379.751 268.839 373.368 268.839 373.368C272.118 375.935 274.948 378.993 277.219 382.425C279.723 386.152 281.904 390.071 283.742 394.141C288.202 404.221 291.608 414.703 293.909 425.432Z" fill="#407BFF"/>
<path d="M262.855 353.849C262.855 353.849 272.284 344.601 263.252 338.504C254.219 332.407 245.257 340.55 245.257 340.55C245.257 340.55 223.803 345.747 228.511 359.455C233.218 373.163 236.225 374.295 229.489 381.415C222.754 388.535 215.89 399.038 222.924 405.654C229.957 412.269 254.205 405.176 261.479 395.028C268.753 384.88 255.509 363.37 262.855 353.849Z" fill="#263238"/>
<path d="M291.725 416.538L259.111 427.3C259.111 427.3 266.329 461.468 271.561 467.184C276.794 472.899 311.776 499.36 316.724 497.273C321.673 495.187 354.5 467.184 354.5 467.184L298.957 430.547L291.725 416.538Z" fill="#263238"/>
<path d="M286.975 422.963L293.909 420.753L292.193 417.452L285.628 419.676L286.975 422.963Z" fill="black"/>
<path d="M266.244 426.236L259.14 428.637L260.09 431.556L267.038 429.333L266.244 426.236Z" fill="black"/>
<path d="M268.527 428.855L285.585 423.413L284.309 420.112L267.591 425.773L268.527 428.855Z" fill="black"/>
<path opacity="0.2" d="M283.742 394.196C276.567 393.391 272.525 383.011 272.525 383.011C274.077 382.743 275.645 382.566 277.219 382.479C279.723 386.207 281.904 390.125 283.742 394.196Z" fill="black"/>
<path d="M268.839 373.368C276.638 372.249 294.079 378.333 295.596 378.264C297.114 378.196 314.03 365.402 314.03 365.402L318.426 369.126C318.426 369.126 300.701 386.708 297.057 386.858C293.413 387.008 274.369 385.685 274.369 385.685C274.369 385.685 269.704 384.089 268.81 380.038C268.266 377.844 268.276 375.557 268.839 373.368Z" fill="#407BFF"/>
</svg>
