<svg width="100" height="100" viewBox="0 0 100 100" fill="none" xmlns="http://www.w3.org/2000/svg">
<g clip-path="url(#clip0_2_331)">
<path d="M62.5 18.75H37.5L28.2422 4.86328C26.8555 2.77344 28.3398 0 30.8398 0H69.1602C71.6602 0 73.1445 2.77344 71.7578 4.86328L62.5 18.75ZM37.5 25H62.5C63.2422 25.4883 64.082 26.0352 65.0391 26.6406C76.1133 33.7305 100 49.0039 100 81.25C100 91.6016 91.6016 100 81.25 100H18.75C8.39844 100 0 91.6016 0 81.25C0 49.0039 23.8867 33.7305 34.9609 26.6406C35.8984 26.0352 36.7578 25.4883 37.5 25ZM53.9062 42.1875C53.9062 40.0391 52.1484 38.2812 50 38.2812C47.8516 38.2812 46.0938 40.0391 46.0938 42.1875V44.9219C44.6094 45.2539 43.125 45.7812 41.7578 46.582C39.043 48.2031 36.6992 51.0352 36.7188 55.1562C36.7383 59.1211 39.0625 61.6211 41.543 63.1055C43.6914 64.3945 46.3672 65.2148 48.4961 65.8398L48.8281 65.9375C51.2891 66.6797 53.0859 67.2656 54.2969 68.0273C55.293 68.6523 55.4297 69.082 55.4492 69.6289C55.4688 70.6055 55.0977 71.1914 54.2969 71.6797C53.3203 72.2852 51.7773 72.6562 50.1172 72.5977C47.9492 72.5195 45.918 71.8359 43.2617 70.9375C42.8125 70.7812 42.3438 70.625 41.8555 70.4688C39.8047 69.7852 37.5977 70.8984 36.9141 72.9297C36.2305 74.9609 37.3438 77.1875 39.375 77.8711C39.7461 77.9883 40.1562 78.125 40.5664 78.2812C42.1875 78.8477 44.0625 79.4922 46.0742 79.9219V82.8125C46.0742 84.9609 47.832 86.7188 49.9805 86.7188C52.1289 86.7188 53.8867 84.9609 53.8867 82.8125V80.1172C55.4492 79.7852 57.0117 79.2383 58.418 78.3594C61.2109 76.6211 63.3203 73.6523 63.2617 69.5703C63.2031 65.6055 60.9766 63.0469 58.457 61.4453C56.2109 60.0391 53.3984 59.1797 51.2109 58.5156L51.0742 58.4766C48.5742 57.7148 46.7969 57.168 45.5469 56.4258C44.5312 55.8203 44.5117 55.4688 44.5117 55.1172C44.5117 54.3945 44.7852 53.8477 45.7227 53.3008C46.7773 52.6758 48.3789 52.3047 49.9219 52.3242C51.7969 52.3438 53.8672 52.7539 56.0156 53.3398C58.1055 53.8867 60.2344 52.6562 60.8008 50.5664C61.3672 48.4766 60.1172 46.3477 58.0273 45.7812C56.7578 45.4492 55.3516 45.1172 53.9062 44.8633V42.1875Z" fill="white"/>
</g>
<defs>
<clipPath id="clip0_2_331">
<rect width="100" height="100" fill="white"/>
</clipPath>
</defs>
</svg>
