<svg width="50" height="50" viewBox="0 0 50 50" fill="none" xmlns="http://www.w3.org/2000/svg">
<path d="M42.5112 9.48242C37.8348 5.38086 31.6071 3.125 24.9888 3.125C11.3281 3.125 0.212054 12.8516 0.212054 24.8047C0.212054 28.623 1.35045 32.3535 3.51562 35.6445L0 46.875L13.1362 43.8574C16.7522 45.5859 20.8259 46.4941 24.9777 46.4941H24.9888C38.6384 46.4941 50 36.7676 50 24.8145C50 19.0234 47.1875 13.584 42.5112 9.48242ZM24.9888 42.8418C21.2835 42.8418 17.6562 41.9727 14.4978 40.332L13.75 39.9414L5.95982 41.7285L8.03571 35.0781L7.54464 34.3945C5.47991 31.5234 4.39732 28.2129 4.39732 24.8047C4.39732 14.873 13.6384 6.78711 25 6.78711C30.5022 6.78711 35.6696 8.66211 39.5536 12.0703C43.4375 15.4785 45.8259 20 45.8147 24.8145C45.8147 34.7559 36.3393 42.8418 24.9888 42.8418ZM36.2835 29.3457C35.6696 29.0723 32.6228 27.7637 32.0536 27.5879C31.4844 27.4023 31.0714 27.3145 30.6585 27.8613C30.2455 28.4082 29.0625 29.6191 28.6942 29.9902C28.3371 30.3516 27.9688 30.4004 27.3549 30.127C23.7165 28.5352 21.3281 27.2852 18.9286 23.6816C18.2924 22.7246 19.5647 22.793 20.7478 20.7227C20.9487 20.3613 20.8482 20.0488 20.692 19.7754C20.5357 19.502 19.2969 16.8359 18.7835 15.752C18.2812 14.6973 17.7679 14.8438 17.3884 14.8242C17.0312 14.8047 16.6183 14.8047 16.2054 14.8047C15.7924 14.8047 15.1228 14.9414 14.5536 15.4785C13.9844 16.0254 12.3884 17.334 12.3884 20C12.3884 22.666 14.6094 25.2441 14.9107 25.6055C15.2232 25.9668 19.2746 31.4355 25.4911 33.7891C29.4196 35.2734 30.9598 35.4004 32.9241 35.1465C34.1183 34.9902 36.5848 33.8379 37.0982 32.5684C37.6116 31.2988 37.6116 30.2148 37.4554 29.9902C37.3103 29.7461 36.8973 29.6094 36.2835 29.3457Z" fill="black"/>
</svg>
